<svg version="1.1" xmlns="http://www.w3.org/2000/svg" xmlns:xlink="http://www.w3.org/1999/xlink" width="271.48645" height="170.94794" viewBox="0,0,271.48645,170.94794"><g transform="translate(-161.28023,-123.03505)"><g stroke="none" stroke-miterlimit="10"><path d="M229.19533,152.33333h-3.84l1.85467,-11.171h3.807c1.10933,0 2.02933,0.22933 2.76,0.68733c0.731,0.45833 1.24367,1.11267 1.53833,1.96367c0.298,0.84733 0.349,1.85833 0.15267,3.03267c-0.189,1.149 -0.56167,2.13267 -1.118,2.951c-0.55667,0.818 -1.271,1.44533 -2.14367,1.88167c-0.873,0.43633 -1.87633,0.65467 -3.011,0.65467zM227.668,150.58233h1.631c0.77433,0 1.449,-0.14733 2.02367,-0.44167c0.578,-0.29833 1.049,-0.74 1.41267,-1.32567c0.36733,-0.589 0.62167,-1.32 0.76367,-2.19267c0.14167,-0.83633 0.13267,-1.52733 -0.02733,-2.07267c-0.16,-0.549 -0.471,-0.958 -0.93267,-1.22733c-0.45833,-0.27267 -1.06567,-0.409 -1.822,-0.409h-1.778zM236.398,152.33333l1.39633,-8.37833h1.97467l-1.39633,8.37833zM239.07067,142.755c-0.31633,0 -0.578,-0.10533 -0.78533,-0.31633c-0.20733,-0.21067 -0.29833,-0.46367 -0.27267,-0.758c0.02533,-0.29467 0.158,-0.54733 0.398,-0.75833c0.24367,-0.21067 0.522,-0.31633 0.83467,-0.31633c0.31633,0 0.57633,0.10567 0.78,0.31633c0.20733,0.211 0.298,0.46367 0.27267,0.75833c-0.02167,0.29433 -0.15467,0.54733 -0.398,0.758c-0.24,0.211 -0.51667,0.31633 -0.82933,0.31633zM243.523,155.64967c-0.71267,0 -1.30733,-0.09633 -1.78367,-0.289c-0.47633,-0.189 -0.84367,-0.44367 -1.10167,-0.76367c-0.25833,-0.32 -0.41833,-0.67467 -0.48,-1.06367l1.85433,-0.431c0.05467,0.16367 0.142,0.32567 0.262,0.48567c0.12367,0.16367 0.30533,0.298 0.54533,0.40367c0.24,0.109 0.56,0.16333 0.96,0.16333c0.56,0 1.049,-0.13633 1.46733,-0.409c0.41833,-0.27267 0.67633,-0.71633 0.77467,-1.331l0.25067,-1.587h-0.098c-0.131,0.20367 -0.311,0.41267 -0.54,0.627c-0.22567,0.21467 -0.511,0.39467 -0.85633,0.54c-0.342,0.14567 -0.75267,0.21833 -1.23267,0.21833c-0.64367,0 -1.202,-0.151 -1.67467,-0.45267c-0.47267,-0.30567 -0.81267,-0.76 -1.02,-1.36367c-0.20367,-0.60733 -0.229,-1.36733 -0.07633,-2.28c0.149,-0.92 0.429,-1.69633 0.84,-2.329c0.41433,-0.63633 0.911,-1.11833 1.489,-1.44567c0.57833,-0.33067 1.189,-0.49633 1.83267,-0.49633c0.491,0 0.882,0.08367 1.17267,0.251c0.291,0.16367 0.511,0.36167 0.66,0.59467c0.14933,0.229 0.25833,0.44533 0.32733,0.649h0.10367l0.229,-1.38567h1.94733l-1.40733,8.51467c-0.11633,0.71633 -0.38333,1.309 -0.80167,1.77833c-0.41833,0.47267 -0.94367,0.82367 -1.57633,1.05267c-0.629,0.23267 -1.31833,0.349 -2.06733,0.349zM244.33033,150.66433c0.418,0 0.79267,-0.102 1.12367,-0.30567c0.331,-0.20367 0.60733,-0.49633 0.829,-0.878c0.222,-0.382 0.37633,-0.84 0.46367,-1.37467c0.08733,-0.52733 0.08367,-0.989 -0.011,-1.38533c-0.09067,-0.39633 -0.26733,-0.70367 -0.529,-0.922c-0.26167,-0.22167 -0.60367,-0.33267 -1.02533,-0.33267c-0.44,0 -0.82567,0.11467 -1.15633,0.34367c-0.32733,0.229 -0.59667,0.54367 -0.80733,0.94367c-0.20733,0.39633 -0.35267,0.84733 -0.43633,1.35267c-0.08,0.51267 -0.08,0.962 0,1.34733c0.08367,0.38167 0.25267,0.68 0.507,0.89467c0.25833,0.21067 0.60567,0.31633 1.042,0.31633zM250.003,152.33333l1.39633,-8.37833h1.97467l-1.39633,8.37833zM252.67567,142.755c-0.31633,0 -0.578,-0.10533 -0.78533,-0.31633c-0.20733,-0.21067 -0.29833,-0.46367 -0.27267,-0.758c0.02533,-0.29467 0.158,-0.54733 0.398,-0.75833c0.24367,-0.21067 0.522,-0.31633 0.83467,-0.31633c0.31633,0 0.57633,0.10567 0.78,0.31633c0.20733,0.211 0.298,0.46367 0.27267,0.75833c-0.02167,0.29433 -0.15467,0.54733 -0.398,0.758c-0.24,0.211 -0.51667,0.31633 -0.82933,0.31633zM259.588,143.955l-0.25633,1.52733h-4.811l0.251,-1.52733zM256.288,141.948h1.97467l-1.30933,7.86533c-0.04,0.26533 -0.03267,0.469 0.022,0.611c0.058,0.138 0.151,0.23267 0.278,0.28367c0.131,0.05067 0.27833,0.07633 0.442,0.07633c0.12,0 0.23267,-0.00933 0.338,-0.02733c0.10567,-0.022 0.18933,-0.03833 0.251,-0.049l0.08733,1.54367c-0.12,0.03633 -0.28167,0.07633 -0.48533,0.12c-0.2,0.04333 -0.44,0.069 -0.72,0.07633c-0.502,0.01067 -0.93833,-0.06567 -1.30933,-0.22933c-0.367,-0.167 -0.63633,-0.42367 -0.807,-0.769c-0.16733,-0.349 -0.20567,-0.78533 -0.11467,-1.309zM262.232,152.50233c-0.53067,0 -0.99267,-0.09433 -1.38533,-0.28367c-0.39267,-0.19267 -0.68167,-0.47633 -0.86733,-0.85067c-0.18167,-0.37467 -0.22733,-0.83633 -0.13633,-1.38567c0.08,-0.47267 0.23267,-0.86367 0.45833,-1.17267c0.229,-0.309 0.509,-0.55633 0.84,-0.74167c0.33433,-0.18933 0.698,-0.331 1.09067,-0.42567c0.39633,-0.09433 0.8,-0.16367 1.211,-0.20733c0.502,-0.05067 0.90733,-0.098 1.21633,-0.14167c0.31267,-0.04367 0.54733,-0.109 0.70367,-0.19633c0.15633,-0.091 0.251,-0.229 0.28367,-0.41467v-0.03267c0.06533,-0.411 0,-0.729 -0.19633,-0.95467c-0.19633,-0.22533 -0.52367,-0.338 -0.982,-0.338c-0.48,0 -0.88333,0.10533 -1.21067,0.31633c-0.32733,0.211 -0.56567,0.46 -0.71467,0.74733l-1.789,-0.262c0.22533,-0.509 0.53433,-0.93433 0.92733,-1.27633c0.39267,-0.34533 0.84533,-0.60367 1.358,-0.77433c0.51633,-0.17467 1.06733,-0.262 1.65267,-0.262c0.4,0 0.791,0.04733 1.173,0.142c0.38533,0.09433 0.72533,0.25067 1.02,0.469c0.298,0.21467 0.51633,0.50733 0.65433,0.878c0.142,0.371 0.16567,0.83467 0.071,1.391l-0.93267,5.60733h-1.89833l0.19633,-1.151h-0.06533c-0.15633,0.23267 -0.36,0.451 -0.611,0.65467c-0.251,0.2 -0.549,0.36167 -0.89433,0.48533c-0.34567,0.12 -0.73667,0.18 -1.173,0.18zM262.97933,151.05167c0.39633,0 0.75267,-0.07833 1.069,-0.23467c0.31667,-0.16 0.57667,-0.371 0.78,-0.63267c0.20367,-0.262 0.331,-0.54733 0.382,-0.85633l0.16367,-0.98733c-0.07267,0.051 -0.18567,0.098 -0.33833,0.14167c-0.15267,0.04367 -0.32367,0.082 -0.51267,0.11467c-0.18533,0.03267 -0.369,0.06167 -0.551,0.08733c-0.18167,0.02533 -0.338,0.04733 -0.469,0.06533c-0.30167,0.04 -0.578,0.10533 -0.829,0.19633c-0.24733,0.091 -0.45267,0.21833 -0.61633,0.382c-0.16,0.16 -0.26,0.367 -0.3,0.62167c-0.05833,0.36 0.02733,0.63467 0.25633,0.82367c0.229,0.18533 0.551,0.27833 0.96533,0.27833zM272.492,141.16233l-1.85433,11.171h-1.97467l1.85467,-11.171zM278,152.33333h-2.16l5.787,-11.171h2.49833l2.08367,11.171h-2.16l-1.5,-8.88h-0.08733zM278.79633,147.95333h5.89067l-0.27267,1.62533h-5.891zM287.593,152.33333l1.39633,-8.37833h1.91467l-0.23467,1.39667h0.08733c0.229,-0.48367 0.55267,-0.85667 0.971,-1.11833c0.42167,-0.26533 0.87267,-0.39833 1.35267,-0.39833c0.11267,0 0.23467,0.00567 0.36533,0.01667c0.131,0.007 0.24367,0.02 0.33833,0.038l-0.30567,1.81633c-0.08333,-0.029 -0.21433,-0.05433 -0.39267,-0.07633c-0.17433,-0.02533 -0.34733,-0.038 -0.518,-0.038c-0.36,0 -0.69467,0.078 -1.00367,0.23433c-0.30567,0.15267 -0.56367,0.36567 -0.77467,0.63833c-0.211,0.27267 -0.34733,0.58733 -0.409,0.94367l-0.81267,4.92533zM299.728,143.955l-0.25633,1.52733h-4.811l0.251,-1.52733zM296.428,141.948h1.97467l-1.30933,7.86533c-0.04,0.26533 -0.03267,0.469 0.022,0.611c0.058,0.138 0.151,0.23267 0.278,0.28367c0.131,0.05067 0.27833,0.07633 0.442,0.07633c0.12,0 0.23267,-0.00933 0.338,-0.02733c0.10567,-0.022 0.18933,-0.03833 0.251,-0.049l0.08733,1.54367c-0.12,0.03633 -0.28167,0.07633 -0.48533,0.12c-0.2,0.04333 -0.44,0.069 -0.72,0.07633c-0.502,0.01067 -0.93833,-0.06567 -1.30933,-0.22933c-0.367,-0.167 -0.63633,-0.42367 -0.807,-0.769c-0.16733,-0.349 -0.20567,-0.78533 -0.11467,-1.309z" fill="#d9d9d9"/><path d="M231.49833,172.39633c-0.04,-0.29467 -0.11267,-0.558 -0.218,-0.791c-0.10533,-0.23633 -0.24733,-0.43633 -0.42533,-0.6c-0.17833,-0.167 -0.39467,-0.29433 -0.64933,-0.38167c-0.25433,-0.08733 -0.55067,-0.131 -0.889,-0.131c-0.6,0 -1.169,0.151 -1.70733,0.45267c-0.538,0.302 -0.998,0.74567 -1.38,1.331c-0.38167,0.582 -0.64167,1.291 -0.78,2.12733c-0.138,0.84367 -0.131,1.558 0.022,2.14367c0.15267,0.58533 0.43267,1.031 0.84,1.33633c0.41067,0.30167 0.927,0.45267 1.549,0.45267c0.571,0 1.089,-0.109 1.55467,-0.32733c0.46533,-0.218 0.85067,-0.52733 1.15633,-0.92733c0.309,-0.40333 0.50533,-0.87633 0.589,-1.418l0.44733,0.071h-3.03833l0.27267,-1.582h4.533l-0.22933,1.342c-0.15633,0.96 -0.49633,1.789 -1.02,2.487c-0.52,0.69467 -1.169,1.231 -1.94733,1.60933c-0.77433,0.37433 -1.62333,0.56167 -2.547,0.56167c-1.02567,0 -1.88933,-0.231 -2.591,-0.69267c-0.69833,-0.46533 -1.19267,-1.12533 -1.48367,-1.98c-0.291,-0.85833 -0.33833,-1.87633 -0.14167,-3.05467c0.14533,-0.90167 0.40333,-1.707 0.77433,-2.41633c0.37467,-0.709 0.83267,-1.31067 1.37467,-1.80533c0.54533,-0.49833 1.151,-0.87633 1.81633,-1.13467c0.66533,-0.26167 1.36367,-0.39267 2.09467,-0.39267c0.61433,0 1.17433,0.091 1.68,0.27267c0.50533,0.17833 0.938,0.43267 1.298,0.76367c0.36367,0.331 0.642,0.72367 0.83467,1.17833c0.19267,0.45433 0.28367,0.95633 0.27267,1.50533zM236.657,180.169c-0.53067,0 -0.99267,-0.09433 -1.38533,-0.28367c-0.39267,-0.19267 -0.68167,-0.47633 -0.86733,-0.85067c-0.18167,-0.37467 -0.22733,-0.83633 -0.13633,-1.38567c0.08,-0.47267 0.23267,-0.86367 0.45833,-1.17267c0.229,-0.309 0.509,-0.55633 0.84,-0.74167c0.33433,-0.18933 0.698,-0.331 1.09067,-0.42567c0.39633,-0.09433 0.8,-0.16367 1.211,-0.20733c0.502,-0.05067 0.90733,-0.098 1.21633,-0.14167c0.31267,-0.04367 0.54733,-0.109 0.70367,-0.19633c0.15633,-0.091 0.251,-0.229 0.28367,-0.41467v-0.03267c0.06533,-0.411 0,-0.729 -0.19633,-0.95467c-0.19633,-0.22533 -0.52367,-0.338 -0.982,-0.338c-0.48,0 -0.88333,0.10533 -1.21067,0.31633c-0.32733,0.211 -0.56567,0.46 -0.71467,0.74733l-1.789,-0.262c0.22533,-0.509 0.53433,-0.93433 0.92733,-1.27633c0.39267,-0.34533 0.84533,-0.60367 1.358,-0.77433c0.51633,-0.17467 1.06733,-0.262 1.65267,-0.262c0.4,0 0.791,0.04733 1.173,0.142c0.38533,0.09433 0.72533,0.25067 1.02,0.469c0.298,0.21467 0.51633,0.50733 0.65433,0.878c0.142,0.371 0.16567,0.83467 0.071,1.391l-0.93267,5.60733h-1.89833l0.19633,-1.151h-0.06533c-0.15633,0.23267 -0.36,0.451 -0.611,0.65467c-0.251,0.2 -0.549,0.36167 -0.89433,0.48533c-0.34567,0.12 -0.73667,0.18 -1.173,0.18zM237.40433,178.71833c0.39633,0 0.75267,-0.07833 1.069,-0.23467c0.31667,-0.16 0.57667,-0.371 0.78,-0.63267c0.20367,-0.262 0.331,-0.54733 0.382,-0.85633l0.16367,-0.98733c-0.07267,0.051 -0.18567,0.098 -0.33833,0.14167c-0.15267,0.04367 -0.32367,0.082 -0.51267,0.11467c-0.18533,0.03267 -0.369,0.06167 -0.551,0.08733c-0.18167,0.02533 -0.338,0.04733 -0.469,0.06533c-0.30167,0.04 -0.578,0.10533 -0.829,0.19633c-0.24733,0.091 -0.45267,0.21833 -0.61633,0.382c-0.16,0.16 -0.26,0.367 -0.3,0.62167c-0.05833,0.36 0.02733,0.63467 0.25633,0.82367c0.229,0.18533 0.551,0.27833 0.96533,0.27833zM243.088,180l1.39633,-8.37833h1.91467l-0.23467,1.39667h0.08733c0.229,-0.48367 0.55267,-0.85667 0.971,-1.11833c0.42167,-0.26533 0.87267,-0.39833 1.35267,-0.39833c0.11267,0 0.23467,0.00567 0.36533,0.01667c0.131,0.007 0.24367,0.02 0.33833,0.038l-0.30567,1.81633c-0.08333,-0.029 -0.21433,-0.05433 -0.39267,-0.07633c-0.17433,-0.02533 -0.34733,-0.038 -0.518,-0.038c-0.36,0 -0.69467,0.078 -1.00367,0.23433c-0.30567,0.15267 -0.56367,0.36567 -0.77467,0.63833c-0.211,0.27267 -0.34733,0.58733 -0.409,0.94367l-0.81267,4.92533zM251.94633,180.14733c-0.65833,0 -1.22,-0.169 -1.68567,-0.50733c-0.46533,-0.33833 -0.79633,-0.829 -0.99267,-1.47267c-0.19267,-0.64367 -0.21467,-1.42567 -0.06533,-2.34567c0.15633,-0.93067 0.44167,-1.71633 0.85633,-2.35633c0.41433,-0.64367 0.909,-1.129 1.48367,-1.45633c0.578,-0.33067 1.189,-0.49633 1.83267,-0.49633c0.49467,0 0.88533,0.08367 1.17267,0.251c0.291,0.16367 0.509,0.36167 0.65467,0.59467c0.14533,0.229 0.25267,0.44533 0.32167,0.649h0.082l0.69267,-4.17833h1.98l-1.85467,11.171h-1.94167l0.22367,-1.32h-0.12c-0.13833,0.20367 -0.322,0.42 -0.551,0.649c-0.229,0.22567 -0.51467,0.41833 -0.85633,0.57833c-0.342,0.16 -0.75267,0.24 -1.23267,0.24zM252.73167,178.52733c0.42167,0 0.8,-0.11267 1.13467,-0.33833c0.338,-0.229 0.62,-0.54733 0.84533,-0.95433c0.22533,-0.40733 0.38367,-0.882 0.47467,-1.42367c0.09067,-0.542 0.09067,-1.01267 0,-1.41267c-0.091,-0.4 -0.26733,-0.711 -0.52933,-0.933c-0.26167,-0.22167 -0.60533,-0.33267 -1.03067,-0.33267c-0.43633,0 -0.82,0.11467 -1.151,0.34367c-0.32733,0.229 -0.59633,0.54533 -0.80733,0.949c-0.211,0.40367 -0.36,0.86567 -0.44733,1.38567c-0.08733,0.52367 -0.09267,0.99067 -0.01633,1.40167c0.08,0.40733 0.24567,0.729 0.49633,0.96567c0.25467,0.23267 0.59833,0.349 1.031,0.349zM262.22533,180.16367c-0.84,0 -1.53467,-0.17467 -2.08367,-0.52367c-0.549,-0.35267 -0.93467,-0.851 -1.15633,-1.49467c-0.21833,-0.647 -0.25467,-1.409 -0.109,-2.28533c0.14167,-0.86167 0.43067,-1.61833 0.867,-2.269c0.43667,-0.65467 0.982,-1.16367 1.63667,-1.52733c0.658,-0.36733 1.38533,-0.551 2.18167,-0.551c0.51633,0 0.991,0.08367 1.42367,0.251c0.43267,0.16367 0.798,0.418 1.09633,0.76367c0.29833,0.34533 0.50367,0.78533 0.61633,1.32c0.11267,0.531 0.10733,1.16367 -0.01633,1.898l-0.09267,0.60567h-6.87267l0.21267,-1.331h4.97433c0.06567,-0.37833 0.04367,-0.71467 -0.06533,-1.009c-0.109,-0.29833 -0.291,-0.53267 -0.54533,-0.70367c-0.25467,-0.171 -0.57267,-0.25633 -0.95467,-0.25633c-0.389,0 -0.75267,0.1 -1.091,0.3c-0.33433,0.19633 -0.61633,0.45067 -0.84533,0.76367c-0.229,0.31267 -0.37467,0.64167 -0.43633,0.987l-0.22367,1.27667c-0.08,0.52333 -0.06167,0.95067 0.05467,1.28167c0.11633,0.331 0.32,0.57467 0.61067,0.731c0.291,0.15633 0.65833,0.23433 1.102,0.23433c0.291,0 0.56,-0.04 0.80733,-0.12c0.247,-0.08 0.467,-0.2 0.66,-0.36c0.19633,-0.16367 0.36,-0.36367 0.49067,-0.6l1.80567,0.20733c-0.2,0.48733 -0.49267,0.91267 -0.87833,1.27633c-0.38533,0.36 -0.84733,0.64 -1.38533,0.84c-0.53467,0.19633 -1.129,0.29467 -1.78367,0.29467zM270.45067,175.091l-0.80733,4.909h-1.98l1.39667,-8.37833h1.89267l-0.24,1.42367h0.10367c0.26167,-0.469 0.629,-0.84167 1.10167,-1.118c0.47267,-0.27633 1.02367,-0.41467 1.65267,-0.41467c0.571,0 1.051,0.12367 1.44,0.371c0.38933,0.24367 0.66567,0.60167 0.82933,1.07467c0.16333,0.469 0.189,1.038 0.07633,1.707l-0.89467,5.33467h-1.97467l0.83467,-5.029c0.09467,-0.55633 0.02367,-0.99267 -0.21267,-1.30933c-0.23267,-0.32 -0.60733,-0.48 -1.12367,-0.48c-0.34533,0 -0.66367,0.07667 -0.95467,0.22933c-0.29067,0.149 -0.53633,0.36533 -0.73633,0.649c-0.19633,0.28367 -0.331,0.62733 -0.40367,1.031zM277.018,180l1.39633,-8.37833h1.97467l-1.39633,8.37833zM279.69067,170.42167c-0.31633,0 -0.578,-0.10533 -0.78533,-0.31633c-0.20733,-0.21067 -0.29833,-0.46367 -0.27267,-0.758c0.02533,-0.29467 0.158,-0.54733 0.398,-0.75833c0.24367,-0.21067 0.522,-0.31633 0.83467,-0.31633c0.31633,0 0.57633,0.10567 0.78,0.31633c0.20733,0.211 0.298,0.46367 0.27267,0.75833c-0.02167,0.29433 -0.15467,0.54733 -0.398,0.758c-0.24,0.211 -0.51667,0.31633 -0.82933,0.31633zM283.81567,175.091l-0.80733,4.909h-1.98l1.39667,-8.37833h1.89267l-0.24,1.42367h0.10367c0.26167,-0.469 0.629,-0.84167 1.10167,-1.118c0.47267,-0.27633 1.02367,-0.41467 1.65267,-0.41467c0.571,0 1.051,0.12367 1.44,0.371c0.38933,0.24367 0.66567,0.60167 0.82933,1.07467c0.16333,0.469 0.189,1.038 0.07633,1.707l-0.89467,5.33467h-1.97467l0.83467,-5.029c0.09467,-0.55633 0.02367,-0.99267 -0.21267,-1.30933c-0.23267,-0.32 -0.60733,-0.48 -1.12367,-0.48c-0.34533,0 -0.66367,0.07667 -0.95467,0.22933c-0.29067,0.149 -0.53633,0.36533 -0.73633,0.649c-0.19633,0.28367 -0.331,0.62733 -0.40367,1.031zM293.503,183.31633c-0.71267,0 -1.30733,-0.09633 -1.78367,-0.289c-0.47633,-0.189 -0.84367,-0.44367 -1.10167,-0.76367c-0.25833,-0.32 -0.41833,-0.67467 -0.48,-1.06367l1.85433,-0.431c0.05467,0.16367 0.142,0.32567 0.262,0.48567c0.12367,0.16367 0.30533,0.298 0.54533,0.40367c0.24,0.109 0.56,0.16333 0.96,0.16333c0.56,0 1.049,-0.13633 1.46733,-0.409c0.41833,-0.27267 0.67633,-0.71633 0.77467,-1.331l0.25067,-1.587h-0.098c-0.131,0.20367 -0.311,0.41267 -0.54,0.627c-0.22567,0.21467 -0.511,0.39467 -0.85633,0.54c-0.342,0.14567 -0.75267,0.21833 -1.23267,0.21833c-0.64367,0 -1.202,-0.151 -1.67467,-0.45267c-0.47267,-0.30567 -0.81267,-0.76 -1.02,-1.36367c-0.20367,-0.60733 -0.229,-1.36733 -0.07633,-2.28c0.149,-0.92 0.429,-1.69633 0.84,-2.329c0.41433,-0.63633 0.911,-1.11833 1.489,-1.44567c0.57833,-0.33067 1.189,-0.49633 1.83267,-0.49633c0.491,0 0.882,0.08367 1.17267,0.251c0.291,0.16367 0.511,0.36167 0.66,0.59467c0.14933,0.229 0.25833,0.44533 0.32733,0.649h0.10367l0.229,-1.38567h1.94733l-1.40733,8.51467c-0.11633,0.71633 -0.38333,1.309 -0.80167,1.77833c-0.41833,0.47267 -0.94367,0.82367 -1.57633,1.05267c-0.629,0.23267 -1.31833,0.349 -2.06733,0.349zM294.31033,178.331c0.418,0 0.79267,-0.102 1.12367,-0.30567c0.331,-0.20367 0.60733,-0.49633 0.829,-0.878c0.222,-0.382 0.37633,-0.84 0.46367,-1.37467c0.08733,-0.52733 0.08367,-0.989 -0.011,-1.38533c-0.09067,-0.39633 -0.26733,-0.70367 -0.529,-0.922c-0.26167,-0.22167 -0.60367,-0.33267 -1.02533,-0.33267c-0.44,0 -0.82567,0.11467 -1.15633,0.34367c-0.32733,0.229 -0.59667,0.54367 -0.80733,0.94367c-0.20733,0.39633 -0.35267,0.84733 -0.43633,1.35267c-0.08,0.51267 -0.08,0.962 0,1.34733c0.08367,0.38167 0.25267,0.68 0.507,0.89467c0.25833,0.21067 0.60567,0.31633 1.042,0.31633z" fill="#d9d9d9"/><path d="M214.17333,200.265h-2.007c0,-0.33467 -0.05467,-0.631 -0.16367,-0.88933c-0.10933,-0.26167 -0.262,-0.48367 -0.45833,-0.66533c-0.19633,-0.182 -0.429,-0.31833 -0.698,-0.409c-0.26933,-0.09467 -0.56733,-0.142 -0.89467,-0.142c-0.62533,0 -1.20733,0.15833 -1.74533,0.47467c-0.53833,0.31633 -0.99467,0.77633 -1.36933,1.38c-0.37433,0.6 -0.63433,1.329 -0.78,2.18733c-0.13433,0.83633 -0.12167,1.53633 0.03833,2.1c0.16367,0.56367 0.44733,0.989 0.851,1.27633c0.40367,0.28367 0.89433,0.42533 1.47267,0.42533c0.35267,0 0.691,-0.04367 1.01433,-0.131c0.32367,-0.09067 0.622,-0.22367 0.89467,-0.398c0.27633,-0.17833 0.51833,-0.39467 0.72533,-0.649c0.211,-0.25467 0.37467,-0.54367 0.491,-0.86733h2.03467c-0.16733,0.53067 -0.41267,1.03067 -0.73633,1.5c-0.32367,0.46533 -0.71267,0.87633 -1.16733,1.23267c-0.45467,0.35267 -0.96367,0.629 -1.52733,0.829c-0.56367,0.2 -1.171,0.3 -1.82167,0.3c-1,0 -1.85633,-0.23267 -2.56933,-0.698c-0.709,-0.46933 -1.218,-1.14 -1.527,-2.013c-0.30933,-0.87633 -0.36367,-1.92533 -0.16367,-3.147c0.2,-1.18933 0.58533,-2.202 1.15633,-3.03833c0.57433,-0.83633 1.27433,-1.47467 2.1,-1.91467c0.829,-0.44333 1.72167,-0.66533 2.678,-0.66533c0.63267,0 1.20733,0.08733 1.72367,0.262c0.52,0.17433 0.96567,0.43067 1.33633,0.769c0.371,0.33433 0.65267,0.74533 0.84567,1.23267c0.19633,0.48367 0.28533,1.03633 0.267,1.65833zM218.39933,207.83033c-0.82533,0 -1.51267,-0.182 -2.06167,-0.54533c-0.54567,-0.36367 -0.92933,-0.87467 -1.151,-1.533c-0.22167,-0.658 -0.26167,-1.42167 -0.12,-2.29067c0.14167,-0.85833 0.42533,-1.60933 0.851,-2.253c0.429,-0.64333 0.969,-1.14167 1.62,-1.49433c0.65433,-0.35633 1.38733,-0.53467 2.198,-0.53467c0.82567,0 1.511,0.18367 2.05633,0.551c0.54567,0.36367 0.92933,0.87467 1.151,1.53267c0.22533,0.65833 0.26733,1.42533 0.12533,2.302c-0.138,0.85433 -0.42333,1.60167 -0.85633,2.24167c-0.429,0.64 -0.969,1.13833 -1.62,1.49467c-0.65067,0.35267 -1.38167,0.529 -2.19267,0.529zM218.563,206.24833c0.45833,0 0.86,-0.12333 1.20533,-0.37067c0.34933,-0.251 0.63467,-0.58733 0.85667,-1.00933c0.22533,-0.42533 0.38167,-0.898 0.469,-1.418c0.08,-0.502 0.08167,-0.95633 0.00533,-1.36367c-0.07633,-0.411 -0.24,-0.73633 -0.491,-0.97633c-0.247,-0.24367 -0.59067,-0.36533 -1.03067,-0.36533c-0.45833,0 -0.86367,0.127 -1.21633,0.38167c-0.34933,0.251 -0.63467,0.589 -0.85633,1.01467c-0.222,0.42167 -0.37467,0.89267 -0.45833,1.41267c-0.08367,0.50167 -0.08733,0.95633 -0.011,1.36367c0.07633,0.40733 0.24,0.73067 0.491,0.97067c0.251,0.24 0.59633,0.36 1.03633,0.36zM224.07333,207.66667l1.39667,-8.37833h1.89267l-0.24,1.42367h0.10367c0.25433,-0.48 0.60533,-0.85433 1.05267,-1.12367c0.44733,-0.27267 0.951,-0.409 1.511,-0.409c0.56333,0 1.018,0.13833 1.36333,0.41467c0.34933,0.27267 0.56367,0.64533 0.64367,1.118h0.08733c0.262,-0.469 0.63633,-0.84167 1.12367,-1.118c0.491,-0.27633 1.042,-0.41467 1.65267,-0.41467c0.76367,0 1.34933,0.24367 1.75633,0.731c0.40733,0.48733 0.533,1.198 0.37633,2.13267l-0.938,5.62367h-1.97467l0.89467,-5.31833c0.08,-0.52 0,-0.9 -0.24,-1.14c-0.23633,-0.24333 -0.55467,-0.36533 -0.95467,-0.36533c-0.47633,0 -0.87267,0.14733 -1.189,0.442c-0.31267,0.29433 -0.50533,0.68 -0.57833,1.15633l-0.878,5.22533h-1.93633l0.90533,-5.4c0.06567,-0.43267 -0.011,-0.77833 -0.229,-1.03633c-0.21467,-0.25833 -0.531,-0.38733 -0.949,-0.38733c-0.28367,0 -0.55467,0.07267 -0.813,0.21833c-0.258,0.14533 -0.478,0.349 -0.66,0.61067c-0.178,0.25833 -0.29433,0.55833 -0.349,0.9l-0.851,5.09467zM237.85833,207.66667l1.39667,-8.37833h1.89267l-0.24,1.42367h0.10367c0.25433,-0.48 0.60533,-0.85433 1.05267,-1.12367c0.44733,-0.27267 0.951,-0.409 1.511,-0.409c0.56333,0 1.018,0.13833 1.36333,0.41467c0.34933,0.27267 0.56367,0.64533 0.64367,1.118h0.08733c0.262,-0.469 0.63633,-0.84167 1.12367,-1.118c0.491,-0.27633 1.042,-0.41467 1.65267,-0.41467c0.76367,0 1.34933,0.24367 1.75633,0.731c0.40733,0.48733 0.533,1.198 0.37633,2.13267l-0.938,5.62367h-1.97467l0.89467,-5.31833c0.08,-0.52 0,-0.9 -0.24,-1.14c-0.23633,-0.24333 -0.55467,-0.36533 -0.95467,-0.36533c-0.47633,0 -0.87267,0.14733 -1.189,0.442c-0.31267,0.29433 -0.50533,0.68 -0.57833,1.15633l-0.878,5.22533h-1.93633l0.90533,-5.4c0.06567,-0.43267 -0.011,-0.77833 -0.229,-1.03633c-0.21467,-0.25833 -0.531,-0.38733 -0.949,-0.38733c-0.28367,0 -0.55467,0.07267 -0.813,0.21833c-0.258,0.14533 -0.478,0.349 -0.66,0.61067c-0.178,0.25833 -0.29433,0.55833 -0.349,0.9l-0.851,5.09467zM255.32533,207.83033c-0.84,0 -1.53467,-0.17467 -2.08367,-0.52367c-0.549,-0.35267 -0.93467,-0.851 -1.15633,-1.49467c-0.21833,-0.647 -0.25467,-1.409 -0.109,-2.28533c0.14167,-0.86167 0.43067,-1.61833 0.867,-2.269c0.43667,-0.65467 0.982,-1.16367 1.63667,-1.52733c0.658,-0.36733 1.38533,-0.551 2.18167,-0.551c0.51633,0 0.991,0.08367 1.42367,0.251c0.43267,0.16367 0.798,0.418 1.09633,0.76367c0.29833,0.34533 0.50367,0.78533 0.61633,1.32c0.11267,0.531 0.10733,1.16367 -0.01633,1.898l-0.09267,0.60567h-6.87267l0.21267,-1.331h4.97433c0.06567,-0.37833 0.04367,-0.71467 -0.06533,-1.009c-0.109,-0.29833 -0.291,-0.53267 -0.54533,-0.70367c-0.25467,-0.171 -0.57267,-0.25633 -0.95467,-0.25633c-0.389,0 -0.75267,0.1 -1.091,0.3c-0.33433,0.19633 -0.61633,0.45067 -0.84533,0.76367c-0.229,0.31267 -0.37467,0.64167 -0.43633,0.987l-0.22367,1.27667c-0.08,0.52333 -0.06167,0.95067 0.05467,1.28167c0.11633,0.331 0.32,0.57467 0.61067,0.731c0.291,0.15633 0.65833,0.23433 1.102,0.23433c0.291,0 0.56,-0.04 0.80733,-0.12c0.247,-0.08 0.467,-0.2 0.66,-0.36c0.19633,-0.16367 0.36,-0.36367 0.49067,-0.6l1.80567,0.20733c-0.2,0.48733 -0.49267,0.91267 -0.87833,1.27633c-0.38533,0.36 -0.84733,0.64 -1.38533,0.84c-0.53467,0.19633 -1.129,0.29467 -1.78367,0.29467zM263.55067,202.75767l-0.80733,4.909h-1.98l1.39633,-8.37833h1.893l-0.24,1.42367h0.10367c0.26167,-0.469 0.629,-0.84167 1.10167,-1.118c0.47267,-0.27633 1.02367,-0.41467 1.65267,-0.41467c0.571,0 1.051,0.12367 1.44,0.371c0.389,0.24367 0.66567,0.60167 0.829,1.07467c0.16367,0.469 0.18933,1.038 0.07667,1.707l-0.89467,5.33467h-1.97467l0.83467,-5.029c0.09467,-0.55633 0.02367,-0.99267 -0.21267,-1.30933c-0.23267,-0.32 -0.60733,-0.48 -1.12367,-0.48c-0.34567,0 -0.66367,0.07667 -0.95467,0.22933c-0.291,0.149 -0.53633,0.36533 -0.73633,0.649c-0.19633,0.28367 -0.331,0.62733 -0.40367,1.031zM275.698,199.28833l-0.25633,1.52733h-4.811l0.251,-1.52733zM272.398,197.28133h1.97467l-1.30933,7.86533c-0.04,0.26533 -0.03267,0.469 0.022,0.611c0.058,0.138 0.151,0.23267 0.278,0.28367c0.131,0.05067 0.27833,0.07633 0.442,0.07633c0.12,0 0.23267,-0.00933 0.338,-0.02733c0.10567,-0.022 0.18933,-0.03833 0.251,-0.049l0.08733,1.54367c-0.12,0.03633 -0.28167,0.07633 -0.48533,0.12c-0.2,0.04333 -0.44,0.069 -0.72,0.07633c-0.502,0.01067 -0.93833,-0.06567 -1.30933,-0.22933c-0.367,-0.167 -0.63633,-0.42367 -0.807,-0.769c-0.16733,-0.349 -0.20567,-0.78533 -0.11467,-1.309zM278.342,207.83567c-0.53067,0 -0.99267,-0.09433 -1.38533,-0.28367c-0.39267,-0.19267 -0.68167,-0.47633 -0.86733,-0.85067c-0.18167,-0.37467 -0.22733,-0.83633 -0.13633,-1.38567c0.08,-0.47267 0.23267,-0.86367 0.45833,-1.17267c0.229,-0.309 0.509,-0.55633 0.84,-0.74167c0.33433,-0.18933 0.698,-0.331 1.09067,-0.42567c0.39633,-0.09433 0.8,-0.16367 1.211,-0.20733c0.502,-0.05067 0.90733,-0.098 1.21633,-0.14167c0.31267,-0.04367 0.54733,-0.109 0.70367,-0.19633c0.15633,-0.091 0.251,-0.229 0.28367,-0.41467v-0.03267c0.06533,-0.411 0,-0.729 -0.19633,-0.95467c-0.19633,-0.22533 -0.52367,-0.338 -0.982,-0.338c-0.48,0 -0.88333,0.10533 -1.21067,0.31633c-0.32733,0.211 -0.56567,0.46 -0.71467,0.74733l-1.789,-0.262c0.22533,-0.509 0.53433,-0.93433 0.92733,-1.27633c0.39267,-0.34533 0.84533,-0.60367 1.358,-0.77433c0.51633,-0.17467 1.06733,-0.262 1.65267,-0.262c0.4,0 0.791,0.04733 1.173,0.142c0.38533,0.09433 0.72533,0.25067 1.02,0.469c0.298,0.21467 0.51633,0.50733 0.65433,0.878c0.142,0.371 0.16567,0.83467 0.071,1.391l-0.93267,5.60733h-1.89833l0.19633,-1.151h-0.06533c-0.15633,0.23267 -0.36,0.451 -0.611,0.65467c-0.251,0.2 -0.549,0.36167 -0.89433,0.48533c-0.34567,0.12 -0.73667,0.18 -1.173,0.18zM279.08933,206.385c0.39633,0 0.75267,-0.07833 1.069,-0.23467c0.31667,-0.16 0.57667,-0.371 0.78,-0.63267c0.20367,-0.262 0.331,-0.54733 0.382,-0.85633l0.16367,-0.98733c-0.07267,0.051 -0.18567,0.098 -0.33833,0.14167c-0.15267,0.04367 -0.32367,0.082 -0.51267,0.11467c-0.18533,0.03267 -0.369,0.06167 -0.551,0.08733c-0.18167,0.02533 -0.338,0.04733 -0.469,0.06533c-0.30167,0.04 -0.578,0.10533 -0.829,0.19633c-0.24733,0.091 -0.45267,0.21833 -0.61633,0.382c-0.16,0.16 -0.26,0.367 -0.3,0.62167c-0.05833,0.36 0.02733,0.63467 0.25633,0.82367c0.229,0.18533 0.551,0.27833 0.96533,0.27833zM284.773,207.66667l1.39633,-8.37833h1.91467l-0.23467,1.39667h0.08733c0.229,-0.48367 0.55267,-0.85667 0.971,-1.11833c0.42167,-0.26533 0.87267,-0.39833 1.35267,-0.39833c0.11267,0 0.23467,0.00567 0.36533,0.01667c0.131,0.007 0.24367,0.02 0.33833,0.038l-0.30567,1.81633c-0.08333,-0.029 -0.21433,-0.05433 -0.39267,-0.07633c-0.17433,-0.02533 -0.34733,-0.038 -0.518,-0.038c-0.36,0 -0.69467,0.078 -1.00367,0.23433c-0.30567,0.15267 -0.56367,0.36567 -0.77467,0.63833c-0.211,0.27267 -0.34733,0.58733 -0.409,0.94367l-0.81267,4.92533zM291.84767,210.80833c-0.26933,0 -0.51467,-0.02167 -0.73633,-0.06533c-0.21833,-0.04 -0.391,-0.08733 -0.51833,-0.14167l0.72,-1.53833c0.27267,0.08367 0.51833,0.12 0.73633,0.109c0.222,-0.007 0.42533,-0.08167 0.611,-0.22367c0.189,-0.138 0.37433,-0.36533 0.55633,-0.68167l0.251,-0.45267l-1.60367,-8.52567h2.018l0.87267,6.33833h0.08733l2.99467,-6.33833h2.17633l-4.90367,9.382c-0.23633,0.45467 -0.511,0.84 -0.82367,1.15633c-0.31267,0.32 -0.671,0.56367 -1.07433,0.731c-0.4,0.16733 -0.85467,0.25067 -1.36367,0.25067z" fill="#d9d9d9"/><path d="M209.81533,235.33333l1.85467,-11.171h4.189c0.858,0 1.55267,0.16 2.08367,0.48c0.53067,0.31633 0.9,0.75467 1.10733,1.31467c0.207,0.55633 0.25067,1.191 0.13067,1.90367c-0.11633,0.71633 -0.37267,1.35267 -0.769,1.909c-0.39267,0.55633 -0.911,0.99467 -1.55467,1.31467c-0.64367,0.31633 -1.39633,0.47433 -2.258,0.47433h-2.77633l0.278,-1.66367h2.50367c0.502,0 0.92733,-0.087 1.27633,-0.26167c0.35267,-0.17467 0.631,-0.41467 0.83467,-0.72c0.20367,-0.30533 0.338,-0.65633 0.40367,-1.05267c0.06167,-0.39633 0.04167,-0.74567 -0.06,-1.04733c-0.102,-0.30167 -0.3,-0.53633 -0.59467,-0.70367c-0.291,-0.171 -0.689,-0.25633 -1.19433,-0.25633h-1.85467l-1.57633,9.48zM219.598,235.33333l1.39633,-8.37833h1.91467l-0.23467,1.39667h0.08733c0.229,-0.48367 0.55267,-0.85667 0.971,-1.11833c0.42167,-0.26533 0.87267,-0.39833 1.35267,-0.39833c0.11267,0 0.23467,0.00567 0.36533,0.01667c0.131,0.007 0.24367,0.02 0.33833,0.038l-0.30567,1.81633c-0.08333,-0.029 -0.21433,-0.05433 -0.39267,-0.07633c-0.17433,-0.02533 -0.34733,-0.038 -0.518,-0.038c-0.36,0 -0.69467,0.078 -1.00367,0.23433c-0.30567,0.15267 -0.56367,0.36567 -0.77467,0.63833c-0.211,0.27267 -0.34733,0.58733 -0.409,0.94367l-0.81267,4.92533zM229.03433,235.497c-0.82533,0 -1.51267,-0.182 -2.06167,-0.54533c-0.54567,-0.36367 -0.92933,-0.87467 -1.151,-1.533c-0.22167,-0.658 -0.26167,-1.42167 -0.12,-2.29067c0.14167,-0.85833 0.42533,-1.60933 0.851,-2.253c0.429,-0.64333 0.969,-1.14167 1.62,-1.49433c0.65433,-0.35633 1.38733,-0.53467 2.198,-0.53467c0.82567,0 1.511,0.18367 2.05633,0.551c0.54567,0.36367 0.92933,0.87467 1.151,1.53267c0.22533,0.65833 0.26733,1.42533 0.12533,2.302c-0.138,0.85433 -0.42333,1.60167 -0.85633,2.24167c-0.429,0.64 -0.969,1.13833 -1.62,1.49467c-0.65067,0.35267 -1.38167,0.529 -2.19267,0.529zM229.198,233.915c0.45833,0 0.86,-0.12333 1.20533,-0.37067c0.34933,-0.251 0.63467,-0.58733 0.85667,-1.00933c0.22533,-0.42533 0.38167,-0.898 0.469,-1.418c0.08,-0.502 0.08167,-0.95633 0.00533,-1.36367c-0.07633,-0.411 -0.24,-0.73633 -0.491,-0.97633c-0.247,-0.24367 -0.59067,-0.36533 -1.03067,-0.36533c-0.45833,0 -0.86367,0.127 -1.21633,0.38167c-0.34933,0.251 -0.63467,0.589 -0.85633,1.01467c-0.222,0.42167 -0.37467,0.89267 -0.45833,1.41267c-0.08367,0.50167 -0.08733,0.95633 -0.011,1.36367c0.07633,0.40733 0.24,0.73067 0.491,0.97067c0.251,0.24 0.59633,0.36 1.03633,0.36zM237.80133,235.48067c-0.65833,0 -1.22,-0.169 -1.68567,-0.50733c-0.46533,-0.33833 -0.79633,-0.829 -0.99267,-1.47267c-0.19267,-0.64367 -0.21467,-1.42567 -0.06533,-2.34567c0.15633,-0.93067 0.44167,-1.71633 0.85633,-2.35633c0.41433,-0.64367 0.909,-1.129 1.48367,-1.45633c0.578,-0.33067 1.189,-0.49633 1.83267,-0.49633c0.49467,0 0.88533,0.08367 1.17267,0.251c0.291,0.16367 0.509,0.36167 0.65467,0.59467c0.14533,0.229 0.25267,0.44533 0.32167,0.649h0.082l0.69267,-4.17833h1.98l-1.85467,11.171h-1.94167l0.22367,-1.32h-0.12c-0.13833,0.20367 -0.322,0.42 -0.551,0.649c-0.229,0.22567 -0.51467,0.41833 -0.85633,0.57833c-0.342,0.16 -0.75267,0.24 -1.23267,0.24zM238.58667,233.86067c0.42167,0 0.8,-0.11267 1.13467,-0.33833c0.338,-0.229 0.62,-0.54733 0.84533,-0.95433c0.22533,-0.40733 0.38367,-0.882 0.47467,-1.42367c0.09067,-0.542 0.09067,-1.01267 0,-1.41267c-0.091,-0.4 -0.26733,-0.711 -0.52933,-0.933c-0.26167,-0.22167 -0.60533,-0.33267 -1.03067,-0.33267c-0.43633,0 -0.82,0.11467 -1.151,0.34367c-0.32733,0.229 -0.59633,0.54533 -0.80733,0.949c-0.211,0.40367 -0.36,0.86567 -0.44733,1.38567c-0.08733,0.52367 -0.09267,0.99067 -0.01633,1.40167c0.08,0.40733 0.24567,0.729 0.49633,0.96567c0.25467,0.23267 0.59833,0.349 1.031,0.349zM250.31667,231.80967l0.81267,-4.85467h1.97467l-1.39633,8.37833h-1.91467l0.251,-1.489h-0.08733c-0.26167,0.469 -0.63633,0.85267 -1.12367,1.15067c-0.48367,0.29833 -1.04,0.44733 -1.669,0.44733c-0.549,0 -1.01267,-0.12167 -1.391,-0.36533c-0.378,-0.24733 -0.64733,-0.60533 -0.80733,-1.07467c-0.15633,-0.47267 -0.18,-1.04367 -0.07067,-1.71267l0.89433,-5.33467h1.97467l-0.84,5.02933c-0.08367,0.53067 -0.00733,0.95267 0.229,1.26533c0.24,0.31267 0.59633,0.469 1.069,0.469c0.291,0 0.58367,-0.07067 0.87833,-0.21267c0.298,-0.14167 0.558,-0.35267 0.78,-0.63267c0.22167,-0.28367 0.36733,-0.63833 0.43633,-1.06367zM257.37067,235.497c-0.83633,0 -1.52367,-0.18367 -2.06167,-0.551c-0.53833,-0.36733 -0.91467,-0.87433 -1.129,-1.52167c-0.211,-0.651 -0.24567,-1.4 -0.10367,-2.24733c0.138,-0.851 0.42367,-1.602 0.85633,-2.25267c0.43633,-0.65467 0.98533,-1.16367 1.64733,-1.52733c0.66167,-0.36733 1.40167,-0.551 2.22,-0.551c0.68,0 1.26,0.12567 1.74,0.37633c0.48333,0.24733 0.84333,0.59833 1.08,1.05267c0.24,0.451 0.33267,0.97833 0.278,1.582h-1.89267c-0.00733,-0.40367 -0.13267,-0.74 -0.37633,-1.009c-0.24367,-0.273 -0.6,-0.40933 -1.069,-0.40933c-0.40733,0 -0.782,0.10933 -1.12367,0.32733c-0.342,0.21467 -0.631,0.52367 -0.86733,0.92733c-0.23633,0.40367 -0.4,0.88733 -0.491,1.451c-0.09467,0.57067 -0.09267,1.06167 0.00533,1.47267c0.102,0.40733 0.28567,0.72167 0.551,0.94367c0.269,0.218 0.609,0.32733 1.02,0.32733c0.291,0 0.562,-0.05467 0.81267,-0.16367c0.251,-0.11267 0.471,-0.27467 0.66,-0.48567c0.193,-0.21067 0.34367,-0.467 0.453,-0.769h1.887c-0.149,0.59267 -0.41433,1.11833 -0.79633,1.57633c-0.378,0.45467 -0.84733,0.811 -1.40733,1.069c-0.56,0.25467 -1.19067,0.382 -1.89267,0.382zM268.183,226.955l-0.25633,1.52733h-4.811l0.251,-1.52733zM264.883,224.948h1.97467l-1.30933,7.86533c-0.04,0.26533 -0.03267,0.469 0.022,0.611c0.058,0.138 0.151,0.23267 0.278,0.28367c0.131,0.05067 0.27833,0.07633 0.442,0.07633c0.12,0 0.23267,-0.00933 0.338,-0.02733c0.10567,-0.022 0.18933,-0.03833 0.251,-0.049l0.08733,1.54367c-0.12,0.03633 -0.28167,0.07633 -0.48533,0.12c-0.2,0.04333 -0.44,0.069 -0.72,0.07633c-0.502,0.01067 -0.93833,-0.06567 -1.30933,-0.22933c-0.367,-0.167 -0.63633,-0.42367 -0.807,-0.769c-0.16733,-0.349 -0.20567,-0.78533 -0.11467,-1.309zM268.438,235.33333l1.39633,-8.37833h1.97467l-1.39633,8.37833zM271.11067,225.755c-0.31633,0 -0.578,-0.10533 -0.78533,-0.31633c-0.20733,-0.21067 -0.29833,-0.46367 -0.27267,-0.758c0.02533,-0.29467 0.158,-0.54733 0.398,-0.75833c0.24367,-0.21067 0.522,-0.31633 0.83467,-0.31633c0.31633,0 0.57633,0.10567 0.78,0.31633c0.20733,0.211 0.298,0.46367 0.27267,0.75833c-0.02167,0.29433 -0.15467,0.54733 -0.398,0.758c-0.24,0.211 -0.51667,0.31633 -0.82933,0.31633zM281.323,226.955l-4.38,8.37833h-2.18167l-1.58733,-8.37833h2.029l0.89467,6.22367h0.08733l2.96167,-6.22367zM281.293,235.33333l1.39633,-8.37833h1.97467l-1.39633,8.37833zM283.96567,225.755c-0.31633,0 -0.578,-0.10533 -0.78533,-0.31633c-0.20733,-0.21067 -0.29833,-0.46367 -0.27267,-0.758c0.02533,-0.29467 0.158,-0.54733 0.398,-0.75833c0.24367,-0.21067 0.522,-0.31633 0.83467,-0.31633c0.31633,0 0.57633,0.10567 0.78,0.31633c0.20733,0.211 0.298,0.46367 0.27267,0.75833c-0.02167,0.29433 -0.15467,0.54733 -0.398,0.758c-0.24,0.211 -0.51667,0.31633 -0.82933,0.31633zM290.878,226.955l-0.25633,1.52733h-4.811l0.251,-1.52733zM287.578,224.948h1.97467l-1.30933,7.86533c-0.04,0.26533 -0.03267,0.469 0.022,0.611c0.058,0.138 0.151,0.23267 0.278,0.28367c0.131,0.05067 0.27833,0.07633 0.442,0.07633c0.12,0 0.23267,-0.00933 0.338,-0.02733c0.10567,-0.022 0.18933,-0.03833 0.251,-0.049l0.08733,1.54367c-0.12,0.03633 -0.28167,0.07633 -0.48533,0.12c-0.2,0.04333 -0.44,0.069 -0.72,0.07633c-0.502,0.01067 -0.93833,-0.06567 -1.30933,-0.22933c-0.367,-0.167 -0.63633,-0.42367 -0.807,-0.769c-0.16733,-0.349 -0.20567,-0.78533 -0.11467,-1.309zM291.84767,238.475c-0.26933,0 -0.51467,-0.02167 -0.73633,-0.06533c-0.21833,-0.04 -0.391,-0.08733 -0.51833,-0.14167l0.72,-1.53833c0.27267,0.08367 0.51833,0.12 0.73633,0.109c0.222,-0.007 0.42567,-0.08167 0.611,-0.22367c0.189,-0.138 0.37467,-0.36533 0.55633,-0.68167l0.251,-0.45267l-1.60367,-8.52567h2.018l0.873,6.33833h0.087l2.99467,-6.33833h2.17633l-4.90367,9.382c-0.23633,0.45467 -0.511,0.84 -0.82367,1.15633c-0.31267,0.32 -0.67067,0.56367 -1.07433,0.731c-0.4,0.16733 -0.85467,0.25067 -1.36367,0.25067z" fill="#d9d9d9"/><path d="M248.57133,263l-1.29833,-11.171h2.17633l0.65467,8.20933h0.10367l3.50733,-8.20933h1.98l0.79633,8.21467h0.098l3.371,-8.21467h2.17633l-5.00733,11.171h-1.99633l-0.92733,-7.83833h-0.08733l-3.55067,7.83833zM261.073,263l1.39633,-8.37833h1.91467l-0.23467,1.39667h0.08733c0.229,-0.48367 0.55267,-0.85667 0.971,-1.11833c0.42167,-0.26533 0.87267,-0.39833 1.35267,-0.39833c0.11267,0 0.23467,0.00567 0.36533,0.01667c0.131,0.007 0.24367,0.02 0.33833,0.038l-0.30567,1.81633c-0.08333,-0.029 -0.21433,-0.05433 -0.39267,-0.07633c-0.17433,-0.02533 -0.34733,-0.038 -0.518,-0.038c-0.36,0 -0.69467,0.078 -1.00367,0.23433c-0.30567,0.15267 -0.56367,0.36567 -0.77467,0.63833c-0.211,0.27267 -0.34733,0.58733 -0.409,0.94367l-0.81267,4.92533zM267.178,263l1.39633,-8.37833h1.97467l-1.39633,8.37833zM269.85067,253.42167c-0.31633,0 -0.578,-0.10533 -0.78533,-0.31633c-0.20733,-0.21067 -0.29833,-0.46367 -0.27267,-0.758c0.02533,-0.29467 0.158,-0.54733 0.398,-0.75833c0.24367,-0.21067 0.522,-0.31633 0.83467,-0.31633c0.31633,0 0.57633,0.10567 0.78,0.31633c0.20733,0.211 0.298,0.46367 0.27267,0.75833c-0.02167,0.29433 -0.15467,0.54733 -0.398,0.758c-0.24,0.211 -0.51667,0.31633 -0.82933,0.31633zM276.763,254.62167l-0.25633,1.52733h-4.811l0.251,-1.52733zM273.463,252.61467h1.97467l-1.30933,7.86533c-0.04,0.26533 -0.03267,0.469 0.022,0.611c0.058,0.138 0.151,0.23267 0.278,0.28367c0.131,0.05067 0.27833,0.07633 0.442,0.07633c0.12,0 0.23267,-0.00933 0.338,-0.02733c0.10567,-0.022 0.18933,-0.03833 0.251,-0.049l0.08733,1.54367c-0.12,0.03633 -0.28167,0.07633 -0.48533,0.12c-0.2,0.04333 -0.44,0.069 -0.72,0.07633c-0.502,0.01067 -0.93833,-0.06567 -1.30933,-0.22933c-0.367,-0.167 -0.63633,-0.42367 -0.807,-0.769c-0.16733,-0.349 -0.20567,-0.78533 -0.11467,-1.309zM277.018,263l1.39633,-8.37833h1.97467l-1.39633,8.37833zM279.69067,253.42167c-0.31633,0 -0.578,-0.10533 -0.78533,-0.31633c-0.20733,-0.21067 -0.29833,-0.46367 -0.27267,-0.758c0.02533,-0.29467 0.158,-0.54733 0.398,-0.75833c0.24367,-0.21067 0.522,-0.31633 0.83467,-0.31633c0.31633,0 0.57633,0.10567 0.78,0.31633c0.20733,0.211 0.298,0.46367 0.27267,0.75833c-0.02167,0.29433 -0.15467,0.54733 -0.398,0.758c-0.24,0.211 -0.51667,0.31633 -0.82933,0.31633zM283.81567,258.091l-0.80733,4.909h-1.98l1.39667,-8.37833h1.89267l-0.24,1.42367h0.10367c0.26167,-0.469 0.629,-0.84167 1.10167,-1.118c0.47267,-0.27633 1.02367,-0.41467 1.65267,-0.41467c0.571,0 1.051,0.12367 1.44,0.371c0.38933,0.24367 0.66567,0.60167 0.82933,1.07467c0.16333,0.469 0.189,1.038 0.07633,1.707l-0.89467,5.33467h-1.97467l0.83467,-5.029c0.09467,-0.55633 0.02367,-0.99267 -0.21267,-1.30933c-0.23267,-0.32 -0.60733,-0.48 -1.12367,-0.48c-0.34533,0 -0.66367,0.07667 -0.95467,0.22933c-0.29067,0.149 -0.53633,0.36533 -0.73633,0.649c-0.19633,0.28367 -0.331,0.62733 -0.40367,1.031zM293.503,266.31633c-0.71267,0 -1.30733,-0.09633 -1.78367,-0.289c-0.47633,-0.189 -0.84367,-0.44367 -1.10167,-0.76367c-0.25833,-0.32 -0.41833,-0.67467 -0.48,-1.06367l1.85433,-0.431c0.05467,0.16367 0.142,0.32567 0.262,0.48567c0.12367,0.16367 0.30533,0.298 0.54533,0.40367c0.24,0.109 0.56,0.16333 0.96,0.16333c0.56,0 1.049,-0.13633 1.46733,-0.409c0.41833,-0.27267 0.67633,-0.71633 0.77467,-1.331l0.25067,-1.587h-0.098c-0.131,0.20367 -0.311,0.41267 -0.54,0.627c-0.22567,0.21467 -0.511,0.39467 -0.85633,0.54c-0.342,0.14567 -0.75267,0.21833 -1.23267,0.21833c-0.64367,0 -1.202,-0.151 -1.67467,-0.45267c-0.47267,-0.30567 -0.81267,-0.76 -1.02,-1.36367c-0.20367,-0.60733 -0.229,-1.36733 -0.07633,-2.28c0.149,-0.92 0.429,-1.69633 0.84,-2.329c0.41433,-0.63633 0.911,-1.11833 1.489,-1.44567c0.57833,-0.33067 1.189,-0.49633 1.83267,-0.49633c0.491,0 0.882,0.08367 1.17267,0.251c0.291,0.16367 0.511,0.36167 0.66,0.59467c0.14933,0.229 0.25833,0.44533 0.32733,0.649h0.10367l0.229,-1.38567h1.94733l-1.40733,8.51467c-0.11633,0.71633 -0.38333,1.309 -0.80167,1.77833c-0.41833,0.47267 -0.94367,0.82367 -1.57633,1.05267c-0.629,0.23267 -1.31833,0.349 -2.06733,0.349zM294.31033,261.331c0.418,0 0.79267,-0.102 1.12367,-0.30567c0.331,-0.20367 0.60733,-0.49633 0.829,-0.878c0.222,-0.382 0.37633,-0.84 0.46367,-1.37467c0.08733,-0.52733 0.08367,-0.989 -0.011,-1.38533c-0.09067,-0.39633 -0.26733,-0.70367 -0.529,-0.922c-0.26167,-0.22167 -0.60367,-0.33267 -1.02533,-0.33267c-0.44,0 -0.82567,0.11467 -1.15633,0.34367c-0.32733,0.229 -0.59667,0.54367 -0.80733,0.94367c-0.20733,0.39633 -0.35267,0.84733 -0.43633,1.35267c-0.08,0.51267 -0.08,0.962 0,1.34733c0.08367,0.38167 0.25267,0.68 0.507,0.89467c0.25833,0.21067 0.60567,0.31633 1.042,0.31633z" fill="#d9d9d9"/><path d="M171.62267,285.212c-0.19633,1.18567 -0.58367,2.19633 -1.162,3.033c-0.57433,0.83267 -1.27633,1.47067 -2.10533,1.91433c-0.82533,0.44 -1.71467,0.66 -2.66733,0.66c-1,0 -1.858,-0.23267 -2.57467,-0.698c-0.71633,-0.46933 -1.23267,-1.14 -1.549,-2.013c-0.31267,-0.87267 -0.36733,-1.92 -0.16367,-3.14167c0.19633,-1.18167 0.582,-2.19267 1.15633,-3.03267c0.57467,-0.84 1.27833,-1.482 2.111,-1.92567c0.83267,-0.44333 1.731,-0.66533 2.69467,-0.66533c0.99267,0 1.84367,0.23467 2.55267,0.70367c0.71267,0.46533 1.22533,1.13633 1.538,2.01267c0.31667,0.87633 0.373,1.92733 0.16933,3.15267zM169.63167,284.96667c0.13467,-0.82533 0.12167,-1.52167 -0.03833,-2.089c-0.15633,-0.56733 -0.43433,-0.99467 -0.83433,-1.282c-0.4,-0.29067 -0.89267,-0.43633 -1.47833,-0.43633c-0.63267,0 -1.218,0.15833 -1.75633,0.47467c-0.53433,0.31267 -0.989,0.771 -1.36367,1.37433c-0.37067,0.60367 -0.62533,1.33833 -0.76367,2.20367c-0.14533,0.82933 -0.13633,1.52567 0.02733,2.08933c0.16367,0.56367 0.44733,0.989 0.851,1.27633c0.40367,0.28367 0.89633,0.42533 1.478,0.42533c0.62933,0 1.211,-0.15633 1.74567,-0.469c0.53433,-0.31267 0.98733,-0.769 1.358,-1.369c0.37467,-0.6 0.633,-1.333 0.77467,-2.19833zM172.543,290.66667l1.39633,-8.37833h1.91467l-0.23467,1.39667h0.08733c0.229,-0.48367 0.55267,-0.85667 0.971,-1.11833c0.42167,-0.26533 0.87267,-0.39833 1.35267,-0.39833c0.11267,0 0.23467,0.00567 0.36533,0.01667c0.131,0.007 0.24367,0.02 0.33833,0.038l-0.30567,1.81633c-0.08333,-0.029 -0.21433,-0.05433 -0.39267,-0.07633c-0.17433,-0.02533 -0.34733,-0.038 -0.518,-0.038c-0.36,0 -0.69467,0.078 -1.00367,0.23433c-0.30567,0.15267 -0.56367,0.36567 -0.77467,0.63833c-0.211,0.27267 -0.34733,0.58733 -0.409,0.94367l-0.81267,4.92533zM181.423,293.983c-0.71267,0 -1.30733,-0.09633 -1.78367,-0.289c-0.47633,-0.189 -0.84367,-0.44367 -1.10167,-0.76367c-0.25833,-0.32 -0.41833,-0.67467 -0.48,-1.06367l1.85433,-0.431c0.05467,0.16367 0.142,0.32567 0.262,0.48567c0.12367,0.16367 0.30533,0.298 0.54533,0.40367c0.24,0.109 0.56,0.16333 0.96,0.16333c0.56,0 1.049,-0.13633 1.46733,-0.409c0.41833,-0.27267 0.67633,-0.71633 0.77467,-1.331l0.25067,-1.587h-0.098c-0.131,0.20367 -0.311,0.41267 -0.54,0.627c-0.22567,0.21467 -0.511,0.39467 -0.85633,0.54c-0.342,0.14567 -0.75267,0.21833 -1.23267,0.21833c-0.64367,0 -1.202,-0.151 -1.67467,-0.45267c-0.47267,-0.30567 -0.81267,-0.76 -1.02,-1.36367c-0.20367,-0.60733 -0.229,-1.36733 -0.07633,-2.28c0.149,-0.92 0.429,-1.69633 0.84,-2.329c0.41433,-0.63633 0.911,-1.11833 1.489,-1.44567c0.57833,-0.33067 1.189,-0.49633 1.83267,-0.49633c0.491,0 0.882,0.08367 1.17267,0.251c0.291,0.16367 0.511,0.36167 0.66,0.59467c0.14933,0.229 0.25833,0.44533 0.32733,0.649h0.10367l0.229,-1.38567h1.94733l-1.40733,8.51467c-0.11633,0.71633 -0.38333,1.309 -0.80167,1.77833c-0.41833,0.47267 -0.94367,0.82367 -1.57633,1.05267c-0.629,0.23267 -1.31833,0.349 -2.06733,0.349zM182.23033,288.99767c0.418,0 0.79267,-0.102 1.12367,-0.30567c0.331,-0.20367 0.60733,-0.49633 0.829,-0.878c0.222,-0.382 0.37633,-0.84 0.46367,-1.37467c0.08733,-0.52733 0.08367,-0.989 -0.011,-1.38533c-0.09067,-0.39633 -0.26733,-0.70367 -0.529,-0.922c-0.26167,-0.22167 -0.60367,-0.33267 -1.02533,-0.33267c-0.44,0 -0.82567,0.11467 -1.15633,0.34367c-0.32733,0.229 -0.59667,0.54367 -0.80733,0.94367c-0.20733,0.39633 -0.35267,0.84733 -0.43633,1.35267c-0.08,0.51267 -0.08,0.962 0,1.34733c0.08367,0.38167 0.25267,0.68 0.507,0.89467c0.25833,0.21067 0.60567,0.31633 1.042,0.31633zM190.292,290.83567c-0.53067,0 -0.99267,-0.09433 -1.38533,-0.28367c-0.39267,-0.19267 -0.68167,-0.47633 -0.86733,-0.85067c-0.18167,-0.37467 -0.22733,-0.83633 -0.13633,-1.38567c0.08,-0.47267 0.23267,-0.86367 0.45833,-1.17267c0.229,-0.309 0.509,-0.55633 0.84,-0.74167c0.33433,-0.18933 0.698,-0.331 1.09067,-0.42567c0.39633,-0.09433 0.8,-0.16367 1.211,-0.20733c0.502,-0.05067 0.90733,-0.098 1.21633,-0.14167c0.31267,-0.04367 0.54733,-0.109 0.70367,-0.19633c0.15633,-0.091 0.251,-0.229 0.28367,-0.41467v-0.03267c0.06533,-0.411 0,-0.729 -0.19633,-0.95467c-0.19633,-0.22533 -0.52367,-0.338 -0.982,-0.338c-0.48,0 -0.88333,0.10533 -1.21067,0.31633c-0.32733,0.211 -0.56567,0.46 -0.71467,0.74733l-1.789,-0.262c0.22533,-0.509 0.53433,-0.93433 0.92733,-1.27633c0.39267,-0.34533 0.84533,-0.60367 1.358,-0.77433c0.51633,-0.17467 1.06733,-0.262 1.65267,-0.262c0.4,0 0.791,0.04733 1.173,0.142c0.38533,0.09433 0.72533,0.25067 1.02,0.469c0.298,0.21467 0.51633,0.50733 0.65433,0.878c0.142,0.371 0.16567,0.83467 0.071,1.391l-0.93267,5.60733h-1.89833l0.19633,-1.151h-0.06533c-0.15633,0.23267 -0.36,0.451 -0.611,0.65467c-0.251,0.2 -0.549,0.36167 -0.89433,0.48533c-0.34567,0.12 -0.73667,0.18 -1.173,0.18zM191.03933,289.385c0.39633,0 0.75267,-0.07833 1.069,-0.23467c0.31667,-0.16 0.57667,-0.371 0.78,-0.63267c0.20367,-0.262 0.331,-0.54733 0.382,-0.85633l0.16367,-0.98733c-0.07267,0.051 -0.18567,0.098 -0.33833,0.14167c-0.15267,0.04367 -0.32367,0.082 -0.51267,0.11467c-0.18533,0.03267 -0.369,0.06167 -0.551,0.08733c-0.18167,0.02533 -0.338,0.04733 -0.469,0.06533c-0.30167,0.04 -0.578,0.10533 -0.829,0.19633c-0.24733,0.091 -0.45267,0.21833 -0.61633,0.382c-0.16,0.16 -0.26,0.367 -0.3,0.62167c-0.05833,0.36 0.02733,0.63467 0.25633,0.82367c0.229,0.18533 0.551,0.27833 0.96533,0.27833zM199.51567,285.75767l-0.80733,4.909h-1.98l1.39667,-8.37833h1.89267l-0.24,1.42367h0.10367c0.26167,-0.469 0.629,-0.84167 1.10167,-1.118c0.47267,-0.27633 1.02367,-0.41467 1.65267,-0.41467c0.571,0 1.051,0.12367 1.44,0.371c0.38933,0.24367 0.66567,0.60167 0.82933,1.07467c0.16333,0.469 0.189,1.038 0.07633,1.707l-0.89467,5.33467h-1.97467l0.83467,-5.029c0.09467,-0.55633 0.02367,-0.99267 -0.21267,-1.30933c-0.23267,-0.32 -0.60733,-0.48 -1.12367,-0.48c-0.34533,0 -0.66367,0.07667 -0.95467,0.22933c-0.29067,0.149 -0.53633,0.36533 -0.73633,0.649c-0.19633,0.28367 -0.331,0.62733 -0.40367,1.031zM206.083,290.66667l1.39633,-8.37833h1.97467l-1.39633,8.37833zM208.75567,281.08833c-0.31633,0 -0.578,-0.10533 -0.78533,-0.31633c-0.20733,-0.21067 -0.29833,-0.46367 -0.27267,-0.758c0.02533,-0.29467 0.158,-0.54733 0.398,-0.75833c0.24367,-0.21067 0.522,-0.31633 0.83467,-0.31633c0.31633,0 0.57633,0.10567 0.78,0.31633c0.20733,0.211 0.298,0.46367 0.27267,0.75833c-0.02167,0.29433 -0.15467,0.54733 -0.398,0.758c-0.24,0.211 -0.51667,0.31633 -0.82933,0.31633zM213.72067,290.83033c-0.83633,0 -1.52367,-0.18367 -2.06167,-0.551c-0.53833,-0.36733 -0.91467,-0.87433 -1.129,-1.52167c-0.211,-0.651 -0.24567,-1.4 -0.10367,-2.24733c0.138,-0.851 0.42367,-1.602 0.85633,-2.25267c0.43633,-0.65467 0.98533,-1.16367 1.64733,-1.52733c0.66167,-0.36733 1.40167,-0.551 2.22,-0.551c0.68,0 1.26,0.12567 1.74,0.37633c0.48333,0.24733 0.84333,0.59833 1.08,1.05267c0.24,0.451 0.33267,0.97833 0.278,1.582h-1.89267c-0.00733,-0.40367 -0.13267,-0.74 -0.37633,-1.009c-0.24367,-0.273 -0.6,-0.40933 -1.069,-0.40933c-0.40733,0 -0.782,0.10933 -1.12367,0.32733c-0.342,0.21467 -0.631,0.52367 -0.86733,0.92733c-0.23633,0.40367 -0.4,0.88733 -0.491,1.451c-0.09467,0.57067 -0.09267,1.06167 0.00533,1.47267c0.102,0.40733 0.28567,0.72167 0.551,0.94367c0.269,0.218 0.609,0.32733 1.02,0.32733c0.291,0 0.562,-0.05467 0.81267,-0.16367c0.251,-0.11267 0.471,-0.27467 0.66,-0.48567c0.193,-0.21067 0.34367,-0.467 0.453,-0.769h1.887c-0.149,0.59267 -0.41433,1.11833 -0.79633,1.57633c-0.378,0.45467 -0.84733,0.811 -1.40733,1.069c-0.56,0.25467 -1.19067,0.382 -1.89267,0.382zM233.62833,283.265h-2.007c0,-0.33467 -0.05467,-0.631 -0.16367,-0.88933c-0.10933,-0.26167 -0.262,-0.48367 -0.45833,-0.66533c-0.19633,-0.182 -0.429,-0.31833 -0.698,-0.409c-0.26933,-0.09467 -0.56733,-0.142 -0.89467,-0.142c-0.62533,0 -1.20733,0.15833 -1.74533,0.47467c-0.53833,0.31633 -0.99467,0.77633 -1.36933,1.38c-0.37433,0.6 -0.63433,1.329 -0.78,2.18733c-0.13433,0.83633 -0.12167,1.53633 0.03833,2.1c0.16367,0.56367 0.44733,0.989 0.851,1.27633c0.40367,0.28367 0.89433,0.42533 1.47267,0.42533c0.35267,0 0.691,-0.04367 1.01433,-0.131c0.32367,-0.09067 0.622,-0.22367 0.89467,-0.398c0.27633,-0.17833 0.51833,-0.39467 0.72533,-0.649c0.211,-0.25467 0.37467,-0.54367 0.491,-0.86733h2.03467c-0.16733,0.53067 -0.41267,1.03067 -0.73633,1.5c-0.32367,0.46533 -0.71267,0.87633 -1.16733,1.23267c-0.45467,0.35267 -0.96367,0.629 -1.52733,0.829c-0.56367,0.2 -1.171,0.3 -1.82167,0.3c-1,0 -1.85633,-0.23267 -2.56933,-0.698c-0.709,-0.46933 -1.218,-1.14 -1.527,-2.013c-0.30933,-0.87633 -0.36367,-1.92533 -0.16367,-3.147c0.2,-1.18933 0.58533,-2.202 1.15633,-3.03833c0.57433,-0.83633 1.27433,-1.47467 2.1,-1.91467c0.829,-0.44333 1.72167,-0.66533 2.678,-0.66533c0.63267,0 1.20733,0.08733 1.72367,0.262c0.52,0.17433 0.96567,0.43067 1.33633,0.769c0.371,0.33433 0.65267,0.74533 0.84567,1.23267c0.19633,0.48367 0.28533,1.03633 0.267,1.65833zM236.97067,285.75767l-0.80733,4.909h-1.98l1.85467,-11.171h1.93633l-0.698,4.21633h0.10367c0.26533,-0.47633 0.627,-0.85067 1.08533,-1.12367c0.46167,-0.27267 1.01633,-0.409 1.66367,-0.409c0.57433,0 1.058,0.122 1.451,0.36567c0.39267,0.24333 0.669,0.6 0.829,1.069c0.16367,0.469 0.191,1.04167 0.08167,1.718l-0.89433,5.33467h-1.98l0.84,-5.029c0.09067,-0.56367 0.01633,-1.002 -0.22367,-1.31467c-0.23633,-0.31633 -0.611,-0.47467 -1.12367,-0.47467c-0.35267,0 -0.67833,0.07667 -0.97633,0.22933c-0.29833,0.149 -0.54933,0.36533 -0.75267,0.649c-0.2,0.28367 -0.33667,0.62733 -0.40933,1.031zM247.28533,290.83033c-0.84,0 -1.53467,-0.17467 -2.08367,-0.52367c-0.549,-0.35267 -0.93467,-0.851 -1.15633,-1.49467c-0.21833,-0.647 -0.25467,-1.409 -0.109,-2.28533c0.14167,-0.86167 0.43067,-1.61833 0.867,-2.269c0.43667,-0.65467 0.982,-1.16367 1.63667,-1.52733c0.658,-0.36733 1.38533,-0.551 2.18167,-0.551c0.51633,0 0.991,0.08367 1.42367,0.251c0.43267,0.16367 0.798,0.418 1.09633,0.76367c0.29833,0.34533 0.50367,0.78533 0.61633,1.32c0.11267,0.531 0.10733,1.16367 -0.01633,1.898l-0.09267,0.60567h-6.87267l0.21267,-1.331h4.97433c0.06567,-0.37833 0.04367,-0.71467 -0.06533,-1.009c-0.109,-0.29833 -0.291,-0.53267 -0.54533,-0.70367c-0.25467,-0.171 -0.57267,-0.25633 -0.95467,-0.25633c-0.389,0 -0.75267,0.1 -1.091,0.3c-0.33433,0.19633 -0.61633,0.45067 -0.84533,0.76367c-0.229,0.31267 -0.37467,0.64167 -0.43633,0.987l-0.22367,1.27667c-0.08,0.52333 -0.06167,0.95067 0.05467,1.28167c0.11633,0.331 0.32,0.57467 0.61067,0.731c0.291,0.15633 0.65833,0.23433 1.102,0.23433c0.291,0 0.56,-0.04 0.80733,-0.12c0.247,-0.08 0.467,-0.2 0.66,-0.36c0.19633,-0.16367 0.36,-0.36367 0.49067,-0.6l1.80567,0.20733c-0.2,0.48733 -0.49267,0.91267 -0.87833,1.27633c-0.38533,0.36 -0.84733,0.64 -1.38533,0.84c-0.53467,0.19633 -1.129,0.29467 -1.78367,0.29467zM252.72333,290.66667l1.39667,-8.37833h1.89267l-0.24,1.42367h0.10367c0.25433,-0.48 0.60533,-0.85433 1.05267,-1.12367c0.44733,-0.27267 0.951,-0.409 1.511,-0.409c0.56333,0 1.018,0.13833 1.36333,0.41467c0.34933,0.27267 0.56367,0.64533 0.64367,1.118h0.08733c0.262,-0.469 0.63633,-0.84167 1.12367,-1.118c0.491,-0.27633 1.042,-0.41467 1.65267,-0.41467c0.76367,0 1.34933,0.24367 1.75633,0.731c0.40733,0.48733 0.533,1.198 0.37633,2.13267l-0.938,5.62367h-1.97467l0.89467,-5.31833c0.08,-0.52 0,-0.9 -0.24,-1.14c-0.23633,-0.24333 -0.55467,-0.36533 -0.95467,-0.36533c-0.47633,0 -0.87267,0.14733 -1.189,0.442c-0.31267,0.29433 -0.50533,0.68 -0.57833,1.15633l-0.878,5.22533h-1.93633l0.90533,-5.4c0.06567,-0.43267 -0.011,-0.77833 -0.229,-1.03633c-0.21467,-0.25833 -0.531,-0.38733 -0.949,-0.38733c-0.28367,0 -0.55467,0.07267 -0.813,0.21833c-0.258,0.14533 -0.478,0.349 -0.66,0.61067c-0.178,0.25833 -0.29433,0.55833 -0.349,0.9l-0.851,5.09467zM266.503,290.66667l1.39633,-8.37833h1.97467l-1.39633,8.37833zM269.17567,281.08833c-0.31633,0 -0.578,-0.10533 -0.78533,-0.31633c-0.20733,-0.21067 -0.29833,-0.46367 -0.27267,-0.758c0.02533,-0.29467 0.158,-0.54733 0.398,-0.75833c0.24367,-0.21067 0.522,-0.31633 0.83467,-0.31633c0.31633,0 0.57633,0.10567 0.78,0.31633c0.20733,0.211 0.298,0.46367 0.27267,0.75833c-0.02167,0.29433 -0.15467,0.54733 -0.398,0.758c-0.24,0.211 -0.51667,0.31633 -0.82933,0.31633zM278.15,284.503l-1.81667,0.19633c-0.018,-0.18533 -0.07433,-0.358 -0.169,-0.518c-0.09433,-0.16 -0.23633,-0.28733 -0.42533,-0.382c-0.18567,-0.098 -0.42567,-0.14733 -0.72,-0.14733c-0.429,0 -0.80567,0.09633 -1.129,0.28933c-0.32367,0.19267 -0.50733,0.44 -0.551,0.74167c-0.04,0.22533 0.01433,0.409 0.16367,0.551c0.149,0.14167 0.42533,0.26167 0.829,0.36l1.38533,0.30533c0.76367,0.171 1.313,0.44733 1.64733,0.829c0.33833,0.382 0.45633,0.882 0.35467,1.5c-0.08733,0.51667 -0.31267,0.971 -0.67633,1.36367c-0.36367,0.38933 -0.82933,0.693 -1.39633,0.911c-0.56367,0.21833 -1.18933,0.32733 -1.87633,0.32733c-1.04367,0 -1.84733,-0.21633 -2.411,-0.649c-0.56,-0.43633 -0.83833,-1.03633 -0.83467,-1.8l1.942,-0.18567c0.02167,0.37833 0.15433,0.66367 0.398,0.85633c0.24367,0.18933 0.582,0.28567 1.01467,0.28933c0.48733,0.00367 0.898,-0.09833 1.23267,-0.30567c0.33833,-0.21067 0.529,-0.46733 0.57267,-0.769c0.03633,-0.22533 -0.02,-0.409 -0.169,-0.551c-0.14533,-0.14167 -0.40533,-0.25433 -0.78,-0.338l-1.37467,-0.3c-0.778,-0.171 -1.33267,-0.46 -1.66367,-0.86733c-0.327,-0.411 -0.438,-0.929 -0.33267,-1.55467c0.08733,-0.509 0.3,-0.94733 0.63833,-1.31433c0.34167,-0.371 0.78,-0.65633 1.31433,-0.85633c0.53467,-0.20367 1.133,-0.30567 1.79467,-0.30567c0.99633,0 1.74733,0.209 2.25267,0.62733c0.50567,0.41833 0.76733,0.98367 0.78567,1.69633zM284.518,282.28833l-0.25633,1.52733h-4.811l0.251,-1.52733zM281.218,280.28133h1.97467l-1.30933,7.86533c-0.04,0.26533 -0.03267,0.469 0.022,0.611c0.058,0.138 0.151,0.23267 0.278,0.28367c0.131,0.05067 0.27833,0.07633 0.442,0.07633c0.12,0 0.23267,-0.00933 0.338,-0.02733c0.10567,-0.022 0.18933,-0.03833 0.251,-0.049l0.08733,1.54367c-0.12,0.03633 -0.28167,0.07633 -0.48533,0.12c-0.2,0.04333 -0.44,0.069 -0.72,0.07633c-0.502,0.01067 -0.93833,-0.06567 -1.30933,-0.22933c-0.367,-0.167 -0.63633,-0.42367 -0.807,-0.769c-0.16733,-0.349 -0.20567,-0.78533 -0.11467,-1.309zM284.773,290.66667l1.39633,-8.37833h1.91467l-0.23467,1.39667h0.08733c0.229,-0.48367 0.55267,-0.85667 0.971,-1.11833c0.42167,-0.26533 0.87267,-0.39833 1.35267,-0.39833c0.11267,0 0.23467,0.00567 0.36533,0.01667c0.131,0.007 0.24367,0.02 0.33833,0.038l-0.30567,1.81633c-0.08333,-0.029 -0.21433,-0.05433 -0.39267,-0.07633c-0.17433,-0.02533 -0.34733,-0.038 -0.518,-0.038c-0.36,0 -0.69467,0.078 -1.00367,0.23433c-0.30567,0.15267 -0.56367,0.36567 -0.77467,0.63833c-0.211,0.27267 -0.34733,0.58733 -0.409,0.94367l-0.81267,4.92533zM291.84767,293.80833c-0.26933,0 -0.51467,-0.02167 -0.73633,-0.06533c-0.21833,-0.04 -0.391,-0.08733 -0.51833,-0.14167l0.72,-1.53833c0.27267,0.08367 0.51833,0.12 0.73633,0.109c0.222,-0.007 0.42567,-0.08167 0.611,-0.22367c0.189,-0.138 0.37467,-0.36533 0.55633,-0.68167l0.251,-0.45267l-1.60367,-8.52567h2.018l0.873,6.33833h0.087l2.99467,-6.33833h2.17633l-4.90367,9.382c-0.23633,0.45467 -0.511,0.84 -0.82367,1.15633c-0.31267,0.32 -0.67067,0.56367 -1.07433,0.731c-0.4,0.16733 -0.85467,0.25067 -1.36367,0.25067z" fill="#d9d9d9"/><path d="M363.84669,141.55471l-4.83667,11.14533h-1.44l4.83667,-11.14533zM368.59336,141.99105l-1.54667,9.309h-1.68667l1.27333,-7.66833h-0.05666l-2.40667,1.391l0.25333,-1.54533l2.56333,-1.48633zM372.82669,151.47735c-0.75,0 -1.36333,-0.18933 -1.83333,-0.56833c-0.47333,-0.38167 -0.79333,-0.93167 -0.96,-1.65c-0.16333,-0.721 -0.16,-1.58933 0.01,-2.60433c0.16667,-1.01533 0.45,-1.879 0.85666,-2.591c0.40667,-0.71533 0.91,-1.26067 1.50667,-1.63633c0.59667,-0.376 1.26667,-0.56366 2.00667,-0.56366c0.74667,0 1.35667,0.18767 1.83,0.56366c0.47333,0.37567 0.79667,0.921 0.96667,1.63633c0.17,0.712 0.17,1.57567 0,2.591c-0.17,1.015 -0.45667,1.88334 -0.86333,2.60433c-0.40333,0.71833 -0.90333,1.26834 -1.50333,1.65c-0.6,0.379 -1.27,0.56833 -2.01667,0.56833zM373.06335,150.05471c0.58333,0 1.09,-0.288 1.52,-0.86366c0.43,-0.576 0.74,-1.42134 0.92667,-2.53634c0.12334,-0.73967 0.15,-1.36066 0.07667,-1.86367c-0.07,-0.503 -0.22333,-0.882 -0.46334,-1.13633c-0.24,-0.25767 -0.55,-0.38667 -0.93667,-0.38667c-0.57667,0 -1.08333,0.288 -1.51667,0.86366c-0.43334,0.573 -0.74333,1.41367 -0.92667,2.523c-0.12667,0.74533 -0.15333,1.37101 -0.08333,1.877c0.07,0.503 0.22333,0.88333 0.46333,1.141c0.24,0.25467 0.55333,0.382 0.94,0.382z" fill="#d9d9d9"/><path d="M363.84669,169.2214l-4.83667,11.14533h-1.44l4.83667,-11.14533zM368.59336,169.65773l-1.54667,9.309h-1.68667l1.27333,-7.66833h-0.05666l-2.40667,1.391l0.25333,-1.54533l2.56333,-1.48633zM372.82669,179.14406c-0.75,0 -1.36333,-0.18933 -1.83333,-0.56833c-0.47333,-0.38167 -0.79333,-0.93167 -0.96,-1.65c-0.16333,-0.721 -0.16,-1.58933 0.01,-2.60433c0.16667,-1.01533 0.45,-1.879 0.85666,-2.591c0.40667,-0.71533 0.91,-1.26067 1.50667,-1.63633c0.59667,-0.376 1.26667,-0.56367 2.00667,-0.56367c0.74667,0 1.35667,0.18767 1.83,0.56367c0.47333,0.37567 0.79667,0.921 0.96667,1.63633c0.17,0.712 0.17,1.57567 0,2.591c-0.17,1.015 -0.45667,1.88334 -0.86333,2.60433c-0.40333,0.71833 -0.90333,1.26834 -1.50333,1.65c-0.6,0.379 -1.27,0.56833 -2.01667,0.56833zM373.06335,177.7214c0.58333,0 1.09,-0.288 1.52,-0.86366c0.43,-0.576 0.74,-1.42134 0.92667,-2.53634c0.12334,-0.73967 0.15,-1.36066 0.07667,-1.86367c-0.07,-0.503 -0.22333,-0.882 -0.46334,-1.13633c-0.24,-0.25767 -0.55,-0.38667 -0.93667,-0.38667c-0.57667,0 -1.08333,0.288 -1.51667,0.86366c-0.43334,0.573 -0.74333,1.41367 -0.92667,2.523c-0.12667,0.74533 -0.15333,1.37101 -0.08333,1.877c0.07,0.503 0.22333,0.88333 0.46333,1.141c0.24,0.25467 0.55333,0.382 0.94,0.382z" fill="#d9d9d9"/><path d="M363.84669,196.88807l-4.83667,11.14533h-1.44l4.83667,-11.14533zM368.59336,197.3244l-1.54667,9.309h-1.68667l1.27333,-7.66833h-0.05666l-2.40667,1.391l0.25333,-1.54533l2.56333,-1.48633zM372.82669,206.81071c-0.75,0 -1.36333,-0.18933 -1.83333,-0.56833c-0.47333,-0.38167 -0.79333,-0.93167 -0.96,-1.65c-0.16333,-0.721 -0.16,-1.58933 0.01,-2.60433c0.16667,-1.01533 0.45,-1.879 0.85666,-2.591c0.40667,-0.71533 0.91,-1.26067 1.50667,-1.63633c0.59667,-0.376 1.26667,-0.56367 2.00667,-0.56367c0.74667,0 1.35667,0.18767 1.83,0.56367c0.47333,0.37567 0.79667,0.921 0.96667,1.63633c0.17,0.712 0.17,1.57567 0,2.591c-0.17,1.015 -0.45667,1.88334 -0.86333,2.60433c-0.40333,0.71833 -0.90333,1.26834 -1.50333,1.65c-0.6,0.379 -1.27,0.56833 -2.01667,0.56833zM373.06335,205.38807c0.58333,0 1.09,-0.28801 1.52,-0.86367c0.43,-0.576 0.74,-1.42133 0.92667,-2.53633c0.12334,-0.73967 0.15,-1.36066 0.07667,-1.86367c-0.07,-0.503 -0.22333,-0.882 -0.46334,-1.13633c-0.24,-0.25767 -0.55,-0.38667 -0.93667,-0.38667c-0.57667,0 -1.08333,0.28801 -1.51667,0.86367c-0.43334,0.573 -0.74333,1.41367 -0.92667,2.523c-0.12667,0.74533 -0.15333,1.37101 -0.08333,1.877c0.07,0.503 0.22333,0.88333 0.46333,1.141c0.24,0.25467 0.55333,0.382 0.94,0.382z" fill="#d9d9d9"/><path d="M363.84669,224.55472l-4.83667,11.14533h-1.44l4.83667,-11.14533zM368.59336,224.99105l-1.54667,9.309h-1.68667l1.27333,-7.66833h-0.05666l-2.40667,1.391l0.25333,-1.54533l2.56333,-1.48633zM372.82669,234.4774c-0.75,0 -1.36333,-0.18933 -1.83333,-0.56833c-0.47333,-0.38167 -0.79333,-0.93166 -0.96,-1.65c-0.16333,-0.721 -0.16,-1.58933 0.01,-2.60433c0.16667,-1.01533 0.45,-1.879 0.85666,-2.591c0.40667,-0.71533 0.91,-1.26067 1.50667,-1.63633c0.59667,-0.376 1.26667,-0.56366 2.00667,-0.56366c0.74667,0 1.35667,0.18767 1.83,0.56366c0.47333,0.37567 0.79667,0.921 0.96667,1.63633c0.17,0.712 0.17,1.57567 0,2.591c-0.17,1.015 -0.45667,1.88334 -0.86333,2.60433c-0.40333,0.71833 -0.90333,1.26833 -1.50333,1.65c-0.6,0.379 -1.27,0.56833 -2.01667,0.56833zM373.06335,233.05472c0.58333,0 1.09,-0.28801 1.52,-0.86367c0.43,-0.576 0.74,-1.42133 0.92667,-2.53633c0.12334,-0.73967 0.15,-1.36066 0.07667,-1.86367c-0.07,-0.503 -0.22333,-0.882 -0.46334,-1.13633c-0.24,-0.25767 -0.55,-0.38667 -0.93667,-0.38667c-0.57667,0 -1.08333,0.28801 -1.51667,0.86367c-0.43334,0.573 -0.74333,1.41367 -0.92667,2.523c-0.12667,0.74533 -0.15333,1.371 -0.08333,1.877c0.07,0.503 0.22333,0.88333 0.46333,1.141c0.24,0.25467 0.55333,0.382 0.94,0.382z" fill="#d9d9d9"/><path d="M363.84669,252.2214l-4.83667,11.14534h-1.44l4.83667,-11.14534zM368.59336,252.65774l-1.54667,9.309h-1.68667l1.27333,-7.66833h-0.05666l-2.40667,1.391l0.25333,-1.54533l2.56333,-1.48633zM372.82669,262.14403c-0.75,0 -1.36333,-0.18933 -1.83333,-0.56833c-0.47333,-0.38167 -0.79333,-0.93166 -0.96,-1.65c-0.16333,-0.721 -0.16,-1.58933 0.01,-2.60433c0.16667,-1.01533 0.45,-1.879 0.85666,-2.591c0.40667,-0.71533 0.91,-1.26067 1.50667,-1.63633c0.59667,-0.376 1.26667,-0.56366 2.00667,-0.56366c0.74667,0 1.35667,0.18767 1.83,0.56366c0.47333,0.37567 0.79667,0.921 0.96667,1.63633c0.17,0.712 0.17,1.57567 0,2.591c-0.17,1.015 -0.45667,1.88334 -0.86333,2.60433c-0.40333,0.71833 -0.90333,1.26833 -1.50333,1.65c-0.6,0.379 -1.27,0.56833 -2.01667,0.56833zM373.06335,260.72138c0.58333,0 1.09,-0.28801 1.52,-0.86367c0.43,-0.576 0.74,-1.42133 0.92667,-2.53633c0.12334,-0.73967 0.15,-1.36067 0.07667,-1.86367c-0.07,-0.503 -0.22333,-0.882 -0.46334,-1.13633c-0.24,-0.25767 -0.55,-0.38667 -0.93667,-0.38667c-0.57667,0 -1.08333,0.28801 -1.51667,0.86367c-0.43334,0.573 -0.74333,1.41367 -0.92667,2.523c-0.12667,0.74533 -0.15333,1.371 -0.08333,1.877c0.07,0.503 0.22333,0.88333 0.46333,1.141c0.24,0.25467 0.55333,0.382 0.94,0.382z" fill="#d9d9d9"/><path d="M362.84669,279.88804l-4.83667,11.14534h-1.44l4.83667,-11.14534zM367.59335,280.32437l-1.54667,9.309h-1.68667l1.27333,-7.66833h-0.05666l-2.40667,1.391l0.25333,-1.54533l2.56333,-1.48633zM371.82669,289.81068c-0.75,0 -1.36333,-0.18933 -1.83333,-0.56833c-0.47333,-0.38167 -0.79333,-0.93167 -0.96,-1.65c-0.16333,-0.721 -0.16,-1.58933 0.01,-2.60433c0.16667,-1.01533 0.45,-1.879 0.85666,-2.591c0.40667,-0.71533 0.91,-1.26067 1.50667,-1.63633c0.59667,-0.376 1.26667,-0.56366 2.00667,-0.56366c0.74667,0 1.35667,0.18767 1.83,0.56366c0.47333,0.37567 0.79666,0.921 0.96666,1.63633c0.17,0.712 0.17,1.57567 0,2.591c-0.17,1.015 -0.45667,1.88333 -0.86333,2.60433c-0.40333,0.71833 -0.90333,1.26834 -1.50333,1.65c-0.6,0.379 -1.27,0.56833 -2.01667,0.56833zM372.06335,288.38804c0.58333,0 1.09,-0.288 1.52,-0.86366c0.43,-0.576 0.74,-1.42133 0.92667,-2.53633c0.12334,-0.73967 0.15,-1.36067 0.07667,-1.86367c-0.07,-0.503 -0.22333,-0.882 -0.46333,-1.13633c-0.24,-0.25767 -0.55,-0.38667 -0.93667,-0.38667c-0.57667,0 -1.08334,0.288 -1.51667,0.86366c-0.43334,0.573 -0.74333,1.41367 -0.92666,2.523c-0.12667,0.74533 -0.15334,1.371 -0.08333,1.877c0.07,0.503 0.22333,0.88333 0.46333,1.141c0.24,0.25467 0.55333,0.382 0.94,0.382z" fill="#d9d9d9"/><path d="M387.87669,123.03507l-0.82333,4.965h-0.8l-1.77666,-3.38167h-0.04l-0.56333,3.38167h-0.9l0.82333,-4.965h0.80666l1.77334,3.38433h0.04666l0.56,-3.38433zM389.63335,128.07271c-0.37333,0 -0.68333,-0.07767 -0.92667,-0.23267c-0.24333,-0.15667 -0.41667,-0.37833 -0.51333,-0.66433c-0.09667,-0.28766 -0.11334,-0.62633 -0.05,-1.01567c0.06333,-0.383 0.19334,-0.71933 0.38667,-1.00833c0.19333,-0.291 0.43667,-0.51733 0.72667,-0.679c0.29334,-0.16333 0.61667,-0.24467 0.97,-0.24467c0.23,0 0.44,0.03701 0.63333,0.11134c0.19,0.07267 0.35333,0.186 0.48667,0.33933c0.13334,0.15367 0.22333,0.34933 0.27334,0.58667c0.05,0.236 0.04666,0.51734 -0.00667,0.84367l-0.04,0.26933h-3.05667l0.09667,-0.59167h2.21c0.03,-0.168 0.02,-0.31767 -0.03,-0.44833c-0.04666,-0.13266 -0.13,-0.237 -0.24333,-0.313c-0.11334,-0.076 -0.25333,-0.11367 -0.42333,-0.11367c-0.17333,0 -0.33333,0.04433 -0.48333,0.13333c-0.15,0.087 -0.27333,0.20033 -0.37666,0.33933c-0.10334,0.139 -0.16666,0.285 -0.19333,0.43867l-0.1,0.56733c-0.03666,0.23267 -0.02666,0.42267 0.02334,0.56967c0.05333,0.147 0.14333,0.25533 0.27333,0.325c0.12667,0.06934 0.29,0.104 0.49,0.104c0.12667,0 0.24667,-0.01767 0.35667,-0.05333c0.11,-0.03533 0.21,-0.08866 0.29333,-0.16c0.08667,-0.07267 0.16,-0.16167 0.22,-0.26667l0.8,0.09233c-0.08667,0.21633 -0.21667,0.40567 -0.39,0.567c-0.17,0.16 -0.37666,0.28467 -0.61333,0.37333c-0.24,0.08733 -0.50334,0.131 -0.79334,0.131zM395.88669,124.2764l-1.94667,3.72367h-0.97l-0.70333,-3.72367h0.9l0.39667,2.766h0.04l1.31666,-2.766zM397.38669,128.07271c-0.37333,0 -0.68333,-0.07767 -0.92667,-0.23267c-0.24333,-0.15667 -0.41667,-0.37833 -0.51333,-0.66433c-0.09667,-0.28766 -0.11333,-0.62633 -0.05,-1.01567c0.06333,-0.383 0.19333,-0.71933 0.38667,-1.00833c0.19333,-0.291 0.43667,-0.51733 0.72667,-0.679c0.29334,-0.16333 0.61667,-0.24467 0.97,-0.24467c0.23,0 0.44,0.03701 0.63333,0.11134c0.19,0.07267 0.35333,0.186 0.48667,0.33933c0.13334,0.15367 0.22333,0.34933 0.27334,0.58667c0.05,0.236 0.04666,0.51734 -0.00667,0.84367l-0.04,0.26933h-3.05666l0.09667,-0.59167h2.21c0.03,-0.168 0.02,-0.31767 -0.03,-0.44833c-0.04666,-0.13266 -0.13,-0.237 -0.24333,-0.313c-0.11334,-0.076 -0.25333,-0.11367 -0.42333,-0.11367c-0.17333,0 -0.33334,0.04433 -0.48334,0.13333c-0.15,0.087 -0.27333,0.20033 -0.37666,0.33933c-0.10334,0.139 -0.16666,0.285 -0.19333,0.43867l-0.1,0.56733c-0.03666,0.23267 -0.02666,0.42267 0.02334,0.56967c0.05333,0.147 0.14333,0.25533 0.27333,0.325c0.12667,0.06934 0.29,0.104 0.49,0.104c0.12667,0 0.24667,-0.01767 0.35667,-0.05333c0.11,-0.03533 0.21,-0.08866 0.29333,-0.16c0.08667,-0.07267 0.16,-0.16167 0.22,-0.26667l0.8,0.09233c-0.08667,0.21633 -0.21667,0.40567 -0.39,0.567c-0.17,0.16 -0.37666,0.28467 -0.61333,0.37333c-0.24,0.08733 -0.50334,0.131 -0.79334,0.131zM399.80002,128l0.62,-3.72367h0.85333l-0.10667,0.62067h0.04c0.10334,-0.215 0.24667,-0.38067 0.43,-0.497c0.19,-0.118 0.39,-0.177 0.60334,-0.177c0.05,0 0.10333,0.00233 0.16333,0.00734c0.05666,0.00333 0.10667,0.009 0.15,0.017l-0.13667,0.80733c-0.03666,-0.013 -0.09667,-0.02434 -0.17333,-0.034c-0.08,-0.01133 -0.15667,-0.017 -0.23333,-0.017c-0.16,0 -0.30667,0.03467 -0.44334,0.10434c-0.13667,0.06767 -0.25333,0.16233 -0.34666,0.28367c-0.09333,0.121 -0.15333,0.261 -0.18,0.41933l-0.36333,2.189zM404.97669,128l-0.43333,-3.72367h0.89667l0.21666,2.61833h0.03333l1.10667,-2.61833h0.88333l0.23333,2.60367h0.03666l1.08,-2.60367h0.9l-1.67667,3.72367h-0.91334l-0.28334,-2.51634h-0.05l-1.11334,2.51634zM410.98336,128.07504c-0.23667,0 -0.44334,-0.04199 -0.61667,-0.126c-0.17333,-0.08567 -0.30333,-0.21167 -0.38667,-0.378c-0.08,-0.16667 -0.1,-0.37167 -0.06,-0.616c0.03666,-0.21 0.10334,-0.38366 0.20333,-0.521c0.10334,-0.13733 0.22667,-0.24733 0.37333,-0.32966c0.15,-0.084 0.31,-0.147 0.48667,-0.18933c0.17667,-0.042 0.35333,-0.07267 0.53666,-0.092c0.22333,-0.02267 0.40333,-0.04366 0.54,-0.063c0.14,-0.01933 0.24333,-0.04833 0.31333,-0.08733c0.07,-0.04033 0.11334,-0.10167 0.12667,-0.18433v-0.01433c0.03,-0.18267 0,-0.324 -0.08667,-0.42433c-0.08667,-0.10033 -0.23333,-0.15034 -0.43667,-0.15034c-0.21333,0 -0.39333,0.047 -0.54,0.14067c-0.14333,0.09367 -0.25,0.20434 -0.31667,0.332l-0.79333,-0.11633c0.1,-0.22633 0.23667,-0.41533 0.41,-0.56733c0.17667,-0.15333 0.37667,-0.268 0.60334,-0.344c0.23,-0.07767 0.47667,-0.11634 0.73667,-0.11634c0.17667,0 0.35,0.021 0.52,0.063c0.17,0.042 0.32333,0.11134 0.45333,0.20834c0.13334,0.09533 0.23,0.22567 0.29,0.39033c0.06333,0.165 0.07333,0.371 0.03333,0.61833l-0.41667,2.492h-0.84333l0.09,-0.51167h-0.03c-0.07,0.10367 -0.15999,0.20067 -0.27333,0.291c-0.11,0.089 -0.24334,0.161 -0.39667,0.21567c-0.15333,0.05333 -0.32666,0.08 -0.52,0.08zM411.31336,127.4304c0.17667,0 0.33666,-0.03467 0.47666,-0.10433c0.14,-0.071 0.25667,-0.16467 0.34667,-0.281c0.09,-0.11667 0.14667,-0.24333 0.17,-0.38067l0.07333,-0.439c-0.03333,0.02267 -0.08333,0.04367 -0.15,0.063c-0.07,0.01966 -0.14667,0.03666 -0.23,0.051c-0.08333,0.01466 -0.16333,0.02767 -0.24333,0.039c-0.08333,0.011 -0.15,0.021 -0.21,0.029c-0.13334,0.01767 -0.25667,0.04667 -0.36666,0.08734c-0.11,0.04033 -0.20333,0.097 -0.27667,0.16966c-0.07,0.071 -0.11333,0.163 -0.13333,0.27634c-0.02333,0.16 0.01333,0.282 0.11667,0.366c0.1,0.08233 0.24333,0.12367 0.42667,0.12367zM416.32002,124.2764l-0.11333,0.67867h-2.13667l0.11,-0.67867zM414.85336,123.3844h0.87667l-0.58,3.49567c-0.01667,0.118 -0.01333,0.20833 0.01,0.27167c0.02667,0.06133 0.06667,0.10334 0.12334,0.126c0.05666,0.02267 0.12333,0.034 0.19666,0.034c0.05333,0 0.10334,-0.00433 0.15,-0.01234c0.04666,-0.00966 0.08333,-0.017 0.11,-0.02166l0.04,0.686c-0.05333,0.016 -0.12667,0.034 -0.21666,0.05333c-0.08667,0.01933 -0.19333,0.03067 -0.32,0.034c-0.22333,0.00466 -0.41667,-0.02933 -0.58,-0.102c-0.16333,-0.07433 -0.28334,-0.18834 -0.36,-0.34167c-0.07333,-0.15534 -0.09,-0.349 -0.05,-0.582zM418.01002,128.07271c-0.37333,0 -0.68,-0.08167 -0.91667,-0.24467c-0.24,-0.16333 -0.40667,-0.38867 -0.50334,-0.67633c-0.09333,-0.28933 -0.11,-0.62233 -0.04666,-0.999c0.06333,-0.378 0.19,-0.712 0.38,-1.001c0.19666,-0.291 0.43999,-0.51733 0.73333,-0.679c0.29334,-0.16333 0.62334,-0.24467 0.98667,-0.24467c0.30333,0 0.56,0.05567 0.77334,0.167c0.21666,0.11 0.37666,0.266 0.48,0.468c0.10667,0.20033 0.14666,0.43467 0.12333,0.703h-0.84c-0.00333,-0.17933 -0.06,-0.32867 -0.16666,-0.44834c-0.11,-0.12133 -0.26667,-0.182 -0.47667,-0.182c-0.18,0 -0.34667,0.04866 -0.5,0.14567c-0.15,0.09533 -0.28,0.23267 -0.38333,0.412c-0.10667,0.17933 -0.18,0.39433 -0.22,0.645c-0.04,0.25367 -0.04,0.47167 0.00333,0.65433c0.04333,0.181 0.12667,0.321 0.24333,0.41933c0.12,0.097 0.27333,0.14567 0.45333,0.14567c0.13,0 0.25,-0.02433 0.36333,-0.07267c0.11,-0.05033 0.20667,-0.12233 0.29334,-0.216c0.08333,-0.09367 0.15334,-0.20766 0.2,-0.34166h0.84c-0.06667,0.26333 -0.18666,0.49699 -0.35333,0.70066c-0.17,0.202 -0.37667,0.36033 -0.62667,0.475c-0.25,0.113 -0.53,0.16967 -0.84,0.16967zM421.57669,125.8184l-0.36,2.18167h-0.88l0.82333,-4.965h0.86l-0.31,1.874h0.04666c0.11667,-0.21166 0.28,-0.378 0.48333,-0.49933c0.20333,-0.12133 0.45,-0.18167 0.74,-0.18167c0.25333,0 0.47,0.054 0.64333,0.16233c0.17333,0.10834 0.29667,0.26667 0.37,0.475c0.07,0.20867 0.08333,0.463 0.03666,0.76367l-0.4,2.371h-0.88l0.37333,-2.235c0.04,-0.25067 0.00667,-0.44533 -0.1,-0.58434c-0.10334,-0.14067 -0.27,-0.211 -0.49667,-0.211c-0.15667,0 -0.30333,0.034 -0.43667,0.102c-0.13,0.066 -0.24333,0.16233 -0.33333,0.28833c-0.09,0.126 -0.15,0.27867 -0.18,0.45834zM426.16002,128.07271c-0.37333,0 -0.68333,-0.07767 -0.92667,-0.23267c-0.24333,-0.15667 -0.41667,-0.37833 -0.51333,-0.66433c-0.09667,-0.28766 -0.11334,-0.62633 -0.05,-1.01567c0.06333,-0.383 0.19334,-0.71933 0.38667,-1.00833c0.19333,-0.291 0.43667,-0.51733 0.72667,-0.679c0.29334,-0.16333 0.61667,-0.24467 0.97,-0.24467c0.23,0 0.44,0.03701 0.63333,0.11134c0.19,0.07267 0.35333,0.186 0.48667,0.33933c0.13334,0.15367 0.22333,0.34933 0.27333,0.58667c0.05,0.236 0.04667,0.51734 -0.00666,0.84367l-0.04,0.26933h-3.05667l0.09667,-0.59167h2.21c0.03,-0.168 0.02,-0.31767 -0.03,-0.44833c-0.04666,-0.13266 -0.13,-0.237 -0.24333,-0.313c-0.11334,-0.076 -0.25333,-0.11367 -0.42333,-0.11367c-0.17333,0 -0.33333,0.04433 -0.48333,0.13333c-0.15,0.087 -0.27333,0.20033 -0.37666,0.33933c-0.10334,0.139 -0.16667,0.285 -0.19334,0.43867l-0.1,0.56733c-0.03666,0.23267 -0.02667,0.42267 0.02333,0.56967c0.05333,0.147 0.14334,0.25533 0.27334,0.325c0.12667,0.06934 0.29,0.104 0.49,0.104c0.12667,0 0.24667,-0.01767 0.35666,-0.05333c0.11,-0.03533 0.21,-0.08866 0.29334,-0.16c0.08667,-0.07267 0.15999,-0.16167 0.22,-0.26667l0.80001,0.09233c-0.08667,0.21633 -0.21667,0.40567 -0.39,0.567c-0.17,0.16 -0.37667,0.28467 -0.61334,0.37333c-0.24,0.08733 -0.50333,0.131 -0.79333,0.131zM429.95002,128.06537c-0.29334,0 -0.54,-0.075 -0.74667,-0.22533c-0.21,-0.15034 -0.35666,-0.36834 -0.44333,-0.65467c-0.08667,-0.286 -0.09333,-0.63333 -0.03,-1.04233c0.07,-0.41367 0.19666,-0.76266 0.38333,-1.04733c0.18333,-0.286 0.40333,-0.50167 0.65667,-0.64733c0.26,-0.147 0.53,-0.22033 0.81666,-0.22033c0.22,0 0.39333,0.03701 0.52,0.11134c0.13,0.07267 0.22667,0.161 0.29,0.26433c0.06667,0.10167 0.11334,0.198 0.14334,0.28833h0.03666l0.31,-1.857h0.88l-0.82667,4.965h-0.86333l0.1,-0.58667h-0.05333c-0.06,0.09067 -0.14334,0.18666 -0.24333,0.28833c-0.10334,0.10033 -0.23,0.186 -0.38,0.257c-0.15333,0.07134 -0.33667,0.10667 -0.55,0.10667zM430.30002,127.3454c0.18667,0 0.35667,-0.05 0.50334,-0.15033c0.15,-0.10167 0.27667,-0.243 0.37666,-0.424c0.1,-0.181 0.17,-0.392 0.21,-0.63266c0.04,-0.241 0.04,-0.45033 0,-0.628c-0.04,-0.17767 -0.11667,-0.316 -0.23333,-0.41467c-0.11667,-0.09833 -0.27,-0.14766 -0.46,-0.14766c-0.19333,0 -0.36333,0.05066 -0.51,0.15266c-0.14667,0.10167 -0.26667,0.24233 -0.36,0.42167c-0.09333,0.17933 -0.16001,0.38467 -0.19667,0.616c-0.04,0.23267 -0.04333,0.44033 -0.00999,0.623c0.03666,0.181 0.10999,0.324 0.22333,0.429c0.11,0.10334 0.26333,0.155 0.45667,0.155z" fill="#d9d9d9"/></g></g></svg>