<svg version="1.1" xmlns="http://www.w3.org/2000/svg" xmlns:xlink="http://www.w3.org/1999/xlink" width="656" height="317" viewBox="0,0,656,317"><g transform="translate(0,0)"><g stroke-miterlimit="10"><path d="M0,317v-317h656v317z" fill="#181818" stroke="none" stroke-width="1"/><path d="M50.81834,9.014c0.137,-0.38363 0.711,-0.22976 0.638,0.1709l-0.04867,0.26606c-0.053,0.28956 0.26967,0.4992 0.51267,0.33304l0.22333,-0.15267c0.33633,-0.2299 0.71034,0.23213 0.41567,0.5132l-0.196,0.18663c-0.213,0.20313 -0.075,0.56247 0.21933,0.57087l0.27034,0.00773c0.407,0.01164 0.43833,0.60534 0.03466,0.65947l-0.26833,0.03593c-0.29167,0.0391 -0.39133,0.4109 -0.158,0.59064l0.214,0.16517c0.32267,0.24873 -0.00133,0.74733 -0.35967,0.55383l-0.482,-0.26027c-0.21267,-0.11477 -0.47267,0.02927 -0.488,0.27033l-0.198,3.09614c-0.021,0.32953 0.40033,0.48366 0.59667,0.2183l0.04666,-0.06286c0.23967,-0.32347 0.74,-0.02024 0.56433,0.34186l-1.217,2.5058c-0.113,0.2331 -0.438,0.25183 -0.57733,0.03334l-1.61033,-2.52684c-0.21966,-0.3448 0.258,-0.7038 0.52833,-0.3969l0.186,0.2115c0.21534,0.2447 0.61733,0.0639 0.57733,-0.25956l-0.378,-3.05417c-0.03066,-0.24624 -0.311,-0.37279 -0.516,-0.23273l-0.43,0.2941c-0.33633,0.22993 -0.71034,-0.2321 -0.41567,-0.5132l0.196,-0.18663c0.213,-0.20313 0.075,-0.56247 -0.21933,-0.57087l-0.27033,-0.00774c-0.407,-0.01164 -0.43833,-0.60533 -0.03467,-0.65943l0.26833,-0.03593c0.29167,-0.03913 0.39133,-0.41093 0.158,-0.59067l-0.214,-0.16516c-0.32267,-0.24873 0.00134,-0.74734 0.35967,-0.5538l0.238,0.12847c0.259,0.13987 0.558,-0.10237 0.475,-0.38483l-0.076,-0.2595c-0.11467,-0.3908 0.44033,-0.60387 0.61633,-0.23663l0.117,0.24383c0.12767,0.2654 0.51201,0.24523 0.61067,-0.032z" fill="#4b47d1" stroke="none" stroke-width="1"/><path d="M14.01827,17.6256h-2.23083v-6.58316h2.27583c0.6536,0 1.21504,0.1318 1.68437,0.39537c0.47144,0.26144 0.8336,0.63753 1.08646,1.12827c0.25286,0.49074 0.3793,1.0779 0.3793,1.76154c0,0.68573 -0.1275,1.27504 -0.3825,1.76794c-0.25286,0.49286 -0.61827,0.8711 -1.09614,1.1347c-0.47574,0.26356 -1.0479,0.39536 -1.7165,0.39536zM12.98,16.59377h0.9804c0.4586,0 0.8411,-0.08357 1.14753,-0.25073c0.30646,-0.1693 0.53683,-0.4211 0.69113,-0.7554c0.15427,-0.33643 0.23143,-0.75647 0.23143,-1.26004c0,-0.5036 -0.07717,-0.9215 -0.23143,-1.25364c-0.1543,-0.3343 -0.38254,-0.58397 -0.6847,-0.74897c-0.3,-0.16717 -0.67286,-0.25073 -1.1186,-0.25073h-1.01576z" fill-opacity="0.75" fill="#ffffff" stroke="none" stroke-width="1"/><path d="M19.59764,17.72524c-0.31286,0 -0.59467,-0.0557 -0.8454,-0.16714c-0.24856,-0.11357 -0.44573,-0.28073 -0.59144,-0.50146c-0.1436,-0.2207 -0.21536,-0.49287 -0.21536,-0.81647c0,-0.27857 0.05143,-0.50894 0.15426,-0.6911c0.10287,-0.18214 0.24324,-0.32787 0.4211,-0.43717c0.17787,-0.10927 0.37824,-0.1918 0.6011,-0.2475c0.225,-0.05786 0.45754,-0.09963 0.69753,-0.12537c0.2893,-0.03 0.52397,-0.05681 0.70397,-0.08037c0.18,-0.0257 0.31073,-0.06426 0.39217,-0.1157c0.08357,-0.0536 0.12537,-0.1361 0.12537,-0.24753v-0.01927c0,-0.24216 -0.07181,-0.42966 -0.21537,-0.56253c-0.1436,-0.13287 -0.3504,-0.1993 -0.6204,-0.1993c-0.285,0 -0.5111,0.06213 -0.67823,0.18643c-0.16503,0.1243 -0.27647,0.27111 -0.3343,0.44037l-1.0865,-0.15427c0.08573,-0.30003 0.22717,-0.55077 0.4243,-0.7522c0.19716,-0.20356 0.43823,-0.35573 0.72326,-0.45643c0.285,-0.10286 0.60004,-0.1543 0.94504,-0.1543c0.23786,0 0.47467,0.02787 0.7104,0.08357c0.23573,0.05574 0.4511,0.14786 0.6461,0.27646c0.195,0.12644 0.35144,0.29894 0.4693,0.5175c0.12,0.2186 0.18,0.49184 0.18,0.8197v3.30443h-1.1186v-0.67823h-0.03857c-0.07073,0.13714 -0.17037,0.2657 -0.29896,0.38574c-0.12644,0.11783 -0.28607,0.2132 -0.47893,0.28606c-0.19074,0.07073 -0.41466,0.10607 -0.67183,0.10607zM19.8998,16.8702c0.23356,0 0.4361,-0.04607 0.60754,-0.1382c0.17143,-0.0943 0.30323,-0.2186 0.39536,-0.3729c0.0943,-0.15426 0.14144,-0.3225 0.14144,-0.50467v-0.5818c-0.03644,0.03 -0.09857,0.05786 -0.18643,0.08357c-0.08573,0.02573 -0.18217,0.04824 -0.2893,0.0675c-0.10713,0.0193 -0.21324,0.03643 -0.31824,0.05143c-0.105,0.015 -0.19606,0.02787 -0.27323,0.03857c-0.17356,0.0236 -0.32894,0.06217 -0.46607,0.11574c-0.13716,0.05357 -0.2454,0.12857 -0.32466,0.225c-0.0793,0.0943 -0.11894,0.21647 -0.11894,0.36646c0,0.2143 0.0782,0.37606 0.23464,0.48536c0.15643,0.1093 0.35573,0.16394 0.5979,0.16394z" fill-opacity="0.75" fill="#ffffff" stroke="none" stroke-width="1"/><path d="M26.14987,12.68824l-0.50193,0.85823l-2.8094,0.0418v-0.90003zM23.5682,17.6256v-5.40346c0,-0.33216 0.06857,-0.6086 0.20574,-0.82934c0.1393,-0.22073 0.32573,-0.38574 0.5593,-0.49503c0.2336,-0.10927 0.4929,-0.16393 0.7779,-0.16393c0.20144,0 0.38037,0.01609 0.5368,0.04823c0.15643,0.03214 0.27217,0.06107 0.34717,0.0868l-0.23144,0.90004c-0.0493,-0.015 -0.11143,-0.03 -0.18643,-0.045c-0.075,-0.01717 -0.1586,-0.02574 -0.25074,-0.02574c-0.21644,0 -0.36967,0.0525 -0.45967,0.15754c-0.08787,0.10284 -0.1318,0.2507 -0.1318,0.44356v5.32633z" fill-opacity="0.75" fill="#ffffff" stroke="none" stroke-width="1"/><path d="M28.75147,12.62394l0.00643,0.92253h-3.10996l0.50193,-0.85823zM26.56247,17.6763v-5.40347c0,-0.33216 0.06856,-0.6086 0.2057,-0.82934c0.1393,-0.22073 0.32574,-0.38574 0.55934,-0.49503c0.23356,-0.10927 0.49286,-0.16393 0.77786,-0.16393c0.20146,0 0.3804,0.01609 0.53683,0.04823c0.15643,0.03214 0.27213,0.06107 0.34717,0.0868l-0.23147,0.90003c-0.04926,-0.015 -0.11144,-0.03 -0.18643,-0.045c-0.075,-0.01717 -0.15856,-0.02573 -0.25073,-0.02573c-0.21644,0 -0.36963,0.0525 -0.45963,0.15753c-0.08787,0.10284 -0.1318,0.2507 -0.1318,0.44356v5.32634z" fill-opacity="0.75" fill="#ffffff" stroke="none" stroke-width="1"/><path d="M31.1173,17.72204c-0.48216,0 -0.90003,-0.10607 -1.25363,-0.31824c-0.35356,-0.21213 -0.62786,-0.50894 -0.8229,-0.8904c-0.19287,-0.38143 -0.2893,-0.82717 -0.2893,-1.3372c0,-0.51004 0.09643,-0.95683 0.2893,-1.34043c0.19504,-0.38357 0.46934,-0.68144 0.8229,-0.8936c0.3536,-0.21217 0.77147,-0.31823 1.25363,-0.31823c0.48216,0 0.90004,0.10606 1.25364,0.31823c0.3536,0.21217 0.62683,0.51004 0.8197,0.8936c0.19503,0.3836 0.29236,0.8304 0.29236,1.34043c0,0.51004 -0.09733,0.95577 -0.29236,1.3372c-0.19286,0.38146 -0.4661,0.67826 -0.8197,0.8904c-0.3536,0.21216 -0.77147,0.31824 -1.25364,0.31824zM31.12374,16.78984c0.26143,0 0.48003,-0.07177 0.65573,-0.21537c0.17573,-0.1457 0.30647,-0.34074 0.39217,-0.585c0.08787,-0.2443 0.1318,-0.51646 0.1318,-0.81646c0,-0.30217 -0.04393,-0.5754 -0.1318,-0.8197c-0.0857,-0.24643 -0.21644,-0.44254 -0.39217,-0.58824c-0.1757,-0.14574 -0.39429,-0.2186 -0.65573,-0.2186c-0.26787,0 -0.49074,0.07287 -0.6686,0.2186c-0.17573,0.1457 -0.3075,0.3418 -0.39537,0.58824c-0.08573,0.2443 -0.1286,0.51753 -0.1286,0.8197c0,0.3 0.04286,0.57216 0.1286,0.81646c0.08787,0.24426 0.21964,0.4393 0.39537,0.585c0.17787,0.1436 0.40074,0.21537 0.6686,0.21537z" fill-opacity="0.75" fill="#ffffff" stroke="none" stroke-width="1"/><path d="M36.17067,17.7124c-0.388,0 -0.735,-0.09966 -1.04167,-0.29896c-0.30633,-0.19927 -0.54867,-0.48856 -0.72633,-0.8679c-0.178,-0.3793 -0.267,-0.84004 -0.267,-1.3822c0,-0.5486 0.09,-1.01147 0.27,-1.38864c0.18234,-0.3793 0.42767,-0.6654 0.73634,-0.85826c0.30866,-0.195 0.65233,-0.2925 1.03166,-0.2925c0.28934,0 0.52734,0.0493 0.71367,0.14787c0.18633,0.09643 0.33433,0.21323 0.44367,0.35037c0.10934,0.135 0.194,0.26253 0.254,0.38253h0.048v-2.46227h1.167v6.58316h-1.14433v-0.7779h-0.07066c-0.06,0.12 -0.147,0.24753 -0.26033,0.38254c-0.11366,0.13286 -0.26367,0.24643 -0.45,0.34073c-0.18666,0.09427 -0.42133,0.14143 -0.704,0.14143zM36.49533,16.7577c0.24634,0 0.45634,-0.06644 0.63,-0.1993c0.17334,-0.135 0.30533,-0.3225 0.39533,-0.56253c0.09,-0.24 0.135,-0.51966 0.135,-0.83896c0,-0.3193 -0.045,-0.5968 -0.135,-0.83253c-0.088,-0.23574 -0.21867,-0.41893 -0.39233,-0.54967c-0.17133,-0.13073 -0.38234,-0.19606 -0.633,-0.19606c-0.25934,0 -0.476,0.0675 -0.64934,0.2025c-0.17366,0.135 -0.30433,0.32143 -0.39233,0.5593c-0.08767,0.23786 -0.13166,0.51003 -0.13166,0.81647c0,0.3086 0.044,0.58397 0.13166,0.82613c0.09,0.24 0.222,0.42966 0.39533,0.56893c0.176,0.13716 0.39133,0.20574 0.64634,0.20574z" fill-opacity="0.75" fill="#ffffff" stroke="none" stroke-width="1"/><path d="M39.92166,17.6256v-4.93736h1.16367v4.93736zM40.50667,11.98747c-0.18433,0 -0.34266,-0.06107 -0.47566,-0.1832c-0.133,-0.1243 -0.19933,-0.27323 -0.19933,-0.44683c0,-0.1757 0.06633,-0.32464 0.19933,-0.4468c0.133,-0.1243 0.29133,-0.18643 0.47566,-0.18643c0.18666,0 0.34501,0.06213 0.47567,0.18643c0.133,0.12217 0.19933,0.2711 0.19933,0.4468c0,0.1736 -0.06633,0.32253 -0.19933,0.44683c-0.13067,0.12214 -0.28901,0.1832 -0.47567,0.1832z" fill-opacity="0.75" fill="#ffffff" stroke="none" stroke-width="1"/><path d="M43.209,11.04244v6.58316h-1.16334v-6.58316z" fill-opacity="0.75" fill="#ffffff" stroke="none" stroke-width="1"/><path d="M0,21.75764l656,0.00003" fill="none" stroke="#383838" stroke-width="1.5375"/><path d="M27.6485,55.66667l2.31817,-13.96366h8.1l-0.191,1.14533h-6.8249l-0.87273,5.257h6.3953l-0.19067,1.14533h-6.39553l-0.87273,5.27067h6.96127l-0.19067,1.14533zM41.278,45.194l1.96366,4.466l3.45,-4.466h1.41833l-4.25467,5.25666l2.49533,5.216h-1.39766l-1.97734,-4.316l-3.41566,4.316h-1.432l4.21366,-5.24333l-2.45466,-5.22933zM48.248,59.594l2.41367,-14.4h1.17934l-0.32733,1.99766h0.14333c0.191,-0.31367 0.43867,-0.63633 0.74334,-0.96833c0.309,-0.33167 0.693,-0.609 1.152,-0.83167c0.46366,-0.22733 1.01833,-0.341 1.66367,-0.341c0.86366,0 1.57966,0.225 2.14766,0.675c0.573,0.45 0.973,1.08201 1.2,1.89567c0.232,0.81367 0.257,1.75899 0.075,2.83633c-0.177,1.08167 -0.51567,2.02934 -1.01567,2.843c-0.5,0.81367 -1.11133,1.44767 -1.83433,1.90234c-0.718,0.45466 -1.50434,0.682 -2.359,0.682c-0.63166,0 -1.143,-0.11367 -1.534,-0.341c-0.38634,-0.22733 -0.682,-0.507 -0.88633,-0.83866c-0.20466,-0.33633 -0.35233,-0.66367 -0.44333,-0.982h-0.109l-0.98166,5.87067zM50.98867,50.437c-0.13634,0.84566 -0.13634,1.59566 0,2.25c0.13667,0.65 0.41166,1.16134 0.825,1.53434c0.41367,0.368 0.95934,0.552 1.63667,0.552c0.69534,0 1.31566,-0.19067 1.86133,-0.57267c0.54534,-0.38634 1.00001,-0.90666 1.36367,-1.56133c0.36333,-0.65434 0.61333,-1.38867 0.75,-2.20234c0.127,-0.80434 0.12267,-1.52933 -0.01367,-2.175c-0.13634,-0.64534 -0.40933,-1.15666 -0.81833,-1.534c-0.409,-0.38166 -0.966,-0.57267 -1.67034,-0.57267c-0.682,0 -1.29566,0.18399 -1.841,0.55233c-0.541,0.36366 -0.991,0.86801 -1.35,1.51367c-0.359,0.64066 -0.60667,1.37933 -0.74334,2.21566zM63.96567,41.703l-2.31833,13.96367h-1.21367l2.31834,-13.96366zM68.977,55.885c-0.91833,0 -1.691,-0.232 -2.31834,-0.69566c-0.62734,-0.468 -1.07033,-1.116 -1.32933,-1.943c-0.25933,-0.82733 -0.30233,-1.782 -0.12967,-2.86367c0.17266,-1.05466 0.51601,-1.982 1.02967,-2.782c0.518,-0.80434 1.15433,-1.42934 1.909,-1.875c0.75433,-0.45 1.575,-0.675 2.46133,-0.675c0.92266,0 1.69534,0.23433 2.318,0.70233c0.62734,0.46834 1.07067,1.116 1.32967,1.94333c0.26367,0.827 0.30899,1.784 0.13633,2.87033c-0.17266,1.05 -0.51799,1.975 -1.03633,2.775c-0.518,0.79534 -1.15467,1.41833 -1.909,1.86834c-0.75,0.45 -1.57067,0.675 -2.46133,0.675zM68.99067,54.77334c0.74533,0 1.409,-0.19767 1.99067,-0.593c0.58634,-0.4 1.07067,-0.932 1.45233,-1.59533c0.382,-0.66833 0.63867,-1.40234 0.77067,-2.20233c0.12266,-0.76367 0.109,-1.466 -0.041,-2.107c-0.15,-0.64066 -0.43867,-1.15433 -0.866,-1.54066c-0.42733,-0.38667 -0.99534,-0.57966 -1.70467,-0.57966c-0.74067,0 -1.40433,0.20233 -1.99066,0.60666c-0.58634,0.4 -1.07067,0.93633 -1.45234,1.60934c-0.382,0.668 -0.63633,1.39999 -0.76367,2.19533c-0.12734,0.76834 -0.11833,1.47033 0.02734,2.10667c0.15,0.63667 0.43867,1.14567 0.866,1.52733c0.43166,0.382 1.002,0.57267 1.71133,0.57267zM76.20234,55.66667l1.74566,-10.47266h1.17934l-0.27267,1.609h0.08867c0.291,-0.52734 0.72499,-0.95233 1.30233,-1.275c0.58167,-0.32733 1.20233,-0.491 1.86133,-0.491c0.1,0 0.21134,0.00233 0.334,0.007c0.12266,0 0.225,0.00433 0.307,0.01367l-0.21134,1.234c-0.05466,-0.009 -0.14999,-0.02267 -0.28633,-0.041c-0.132,-0.018 -0.27967,-0.02733 -0.44334,-0.02733c-0.54533,0 -1.05,0.116 -1.51367,0.348c-0.459,0.227 -0.84534,0.543 -1.159,0.94767c-0.309,0.40434 -0.509,0.866 -0.6,1.384l-1.11834,6.76367zM86.953,55.885c-0.97733,0 -1.784,-0.22733 -2.42034,-0.682c-0.63634,-0.459 -1.08199,-1.093 -1.33633,-1.90234c-0.25467,-0.81367 -0.29333,-1.75 -0.116,-2.809c0.17733,-1.05466 0.52733,-1.991 1.05,-2.809c0.52267,-0.82267 1.168,-1.466 1.93633,-1.92966c0.76833,-0.468 1.60233,-0.70233 2.50234,-0.70233c0.568,0 1.1,0.10467 1.59533,0.31367c0.49567,0.20466 0.91599,0.52067 1.26133,0.94767c0.35,0.423 0.59333,0.957 0.72967,1.60234c0.13634,0.641 0.13167,1.39999 -0.01367,2.27733l-0.09533,0.6h-8.182l0.17066,-1.07033h6.94767c0.11366,-0.673 0.08167,-1.27734 -0.09566,-1.81367c-0.177,-0.53634 -0.47933,-0.96133 -0.90667,-1.275c-0.42266,-0.31833 -0.94767,-0.47733 -1.575,-0.47733c-0.641,0 -1.24767,0.17966 -1.82033,0.53867c-0.56834,0.359 -1.05,0.82733 -1.44566,1.40433c-0.391,0.573 -0.64301,1.18433 -0.75667,1.83433l-0.13633,0.80434c-0.14566,0.88634 -0.12734,1.62966 0.05433,2.22966c0.182,0.59533 0.51134,1.04534 0.98867,1.35c0.47733,0.30466 1.08867,0.45667 1.834,0.45667c0.5,0 0.95234,-0.077 1.357,-0.23167c0.40466,-0.15467 0.75667,-0.36133 1.05667,-0.62033c0.3,-0.26367 0.541,-0.55233 0.723,-0.866l1.084,0.375c-0.232,0.441 -0.559,0.84766 -0.982,1.22033c-0.418,0.37266 -0.91566,0.67267 -1.493,0.9c-0.57267,0.22266 -1.21133,0.33433 -1.916,0.33433zM101.60034,49.12134l-1.08433,6.54533h-1.21367l1.74567,-10.47266h1.17933l-0.27267,1.643h0.109c0.32734,-0.53634 0.77966,-0.96567 1.357,-1.28867c0.58167,-0.327 1.25667,-0.49067 2.025,-0.49067c0.7,0 1.291,0.14766 1.77267,0.443c0.48633,0.291 0.832,0.72067 1.03633,1.28867c0.209,0.56833 0.24566,1.266 0.109,2.09333l-1.13833,6.784h-1.21367l1.118,-6.709c0.141,-0.85466 0.016,-1.532 -0.375,-2.032c-0.38634,-0.50433 -0.984,-0.75667 -1.793,-0.75667c-0.55,0 -1.06133,0.118 -1.53433,0.35434c-0.468,0.23667 -0.86367,0.57733 -1.18633,1.023c-0.32267,0.44067 -0.53633,0.96567 -0.64066,1.575zM114.628,55.885c-0.97733,0 -1.784,-0.22733 -2.42033,-0.682c-0.63634,-0.459 -1.082,-1.093 -1.33633,-1.90234c-0.25467,-0.81367 -0.29333,-1.75 -0.116,-2.809c0.17733,-1.05466 0.52733,-1.991 1.05,-2.809c0.52267,-0.82267 1.168,-1.466 1.93633,-1.92966c0.76833,-0.468 1.60233,-0.70233 2.50234,-0.70233c0.568,0 1.1,0.10467 1.59534,0.31367c0.49567,0.20466 0.91599,0.52067 1.26133,0.94767c0.35,0.423 0.59333,0.957 0.72967,1.60234c0.13634,0.641 0.13166,1.39999 -0.01367,2.27733l-0.09533,0.6h-8.182l0.17066,-1.07033h6.94767c0.11366,-0.673 0.08167,-1.27734 -0.09566,-1.81367c-0.177,-0.53634 -0.47933,-0.96133 -0.90667,-1.275c-0.42266,-0.31833 -0.94766,-0.47733 -1.575,-0.47733c-0.641,0 -1.24767,0.17966 -1.82033,0.53867c-0.56834,0.359 -1.05,0.82733 -1.44567,1.40433c-0.391,0.573 -0.64301,1.18433 -0.75667,1.83433l-0.13633,0.80434c-0.14566,0.88634 -0.12733,1.62966 0.05433,2.22966c0.182,0.59533 0.51134,1.04534 0.98867,1.35c0.47733,0.30466 1.08866,0.45667 1.834,0.45667c0.5,0 0.95234,-0.077 1.357,-0.23167c0.40466,-0.15467 0.75667,-0.36133 1.05667,-0.62033c0.3,-0.26367 0.541,-0.55233 0.723,-0.866l1.084,0.375c-0.232,0.441 -0.559,0.84766 -0.982,1.22033c-0.418,0.37266 -0.91567,0.67267 -1.493,0.9c-0.57267,0.22266 -1.21133,0.33433 -1.916,0.33433zM123.90234,55.66667l-1.418,-10.47266h1.275l1.043,8.63866h0.08867l3.91366,-8.63866h1.28867l1.016,8.618h0.09533l3.91367,-8.618h1.29533l-4.909,10.47266h-1.25433l-1.06367,-8.57033h-0.12967l-3.9,8.57033zM142.441,55.66667l1.74567,-10.47266h1.22034l-1.74534,10.47266zM145.23666,43.37334c-0.25466,0 -0.47066,-0.08633 -0.648,-0.259c-0.17266,-0.17267 -0.25666,-0.38167 -0.252,-0.62733c0.009,-0.23166 0.102,-0.43167 0.27934,-0.6c0.182,-0.17267 0.39566,-0.259 0.641,-0.259c0.25466,0 0.47033,0.08866 0.64766,0.266c0.17733,0.17267 0.26134,0.38167 0.25234,0.62734c-0.00466,0.23166 -0.09767,0.43167 -0.27967,0.6c-0.18167,0.168 -0.39533,0.252 -0.64067,0.252zM149.169,49.12134l-1.084,6.54533h-1.21367l1.74533,-10.47266h1.17967l-0.273,1.643h0.10933c0.32734,-0.53634 0.77934,-0.96567 1.35667,-1.28867c0.582,-0.327 1.257,-0.49067 2.025,-0.49067c0.7,0 1.291,0.14766 1.77267,0.443c0.48633,0.291 0.832,0.72067 1.03633,1.28867c0.20934,0.56833 0.24567,1.266 0.10933,2.09333l-1.13866,6.784h-1.21367l1.118,-6.709c0.141,-0.85466 0.016,-1.532 -0.375,-2.032c-0.38634,-0.50433 -0.984,-0.75667 -1.793,-0.75667c-0.55,0 -1.06134,0.118 -1.534,0.35434c-0.46833,0.23667 -0.86367,0.57733 -1.18633,1.023c-0.323,0.44067 -0.53666,0.96567 -0.641,1.575zM163.86034,45.194l-0.17033,1.05666h-5.00466l0.17733,-1.05666zM160.833,42.685h1.22066l-1.70467,10.24766c-0.07267,0.43633 -0.05434,0.77934 0.05466,1.02934c0.109,0.24567 0.27733,0.42066 0.50433,0.525c0.22734,0.1 0.47734,0.15 0.75,0.15c0.15933,0 0.29567,-0.009 0.40934,-0.027c0.118,-0.023 0.22266,-0.04567 0.31366,-0.06833l0.08866,1.09767c-0.132,0.04566 -0.28867,0.08633 -0.47066,0.12266c-0.18167,0.041 -0.4,0.06133 -0.65434,0.06133c-0.44566,0 -0.857,-0.09766 -1.23433,-0.293c-0.37733,-0.19534 -0.66366,-0.48633 -0.859,-0.87267c-0.19534,-0.38634 -0.24767,-0.866 -0.15667,-1.43867zM168.96567,55.885c-0.97734,0 -1.78433,-0.22733 -2.42067,-0.682c-0.63634,-0.459 -1.08167,-1.093 -1.33633,-1.90234c-0.25433,-0.81367 -0.293,-1.75 -0.116,-2.809c0.17733,-1.05466 0.52733,-1.991 1.05,-2.809c0.523,-0.82267 1.16833,-1.466 1.93667,-1.92966c0.768,-0.468 1.602,-0.70233 2.502,-0.70233c0.56833,0 1.1,0.10467 1.59566,0.31367c0.49534,0.20466 0.91567,0.52067 1.26134,0.94767c0.35,0.423 0.593,0.957 0.72933,1.60234c0.13666,0.641 0.132,1.39999 -0.01333,2.27733l-0.09567,0.6h-8.18166l0.17033,-1.07033h6.94767c0.11366,-0.673 0.082,-1.27734 -0.09534,-1.81367c-0.17733,-0.53634 -0.47967,-0.96133 -0.907,-1.275c-0.42266,-0.31833 -0.94767,-0.47733 -1.575,-0.47733c-0.64067,0 -1.24767,0.17966 -1.82033,0.53867c-0.568,0.359 -1.05,0.82733 -1.44533,1.40433c-0.391,0.573 -0.64333,1.18433 -0.757,1.83433l-0.13634,0.80434c-0.14533,0.88634 -0.12733,1.62966 0.05467,2.22966c0.18167,0.59533 0.51133,1.04534 0.98866,1.35c0.47734,0.30466 1.08866,0.45667 1.834,0.45667c0.5,0 0.95233,-0.077 1.35666,-0.23167c0.40466,-0.15467 0.757,-0.36133 1.057,-0.62033c0.3,-0.26367 0.541,-0.55233 0.72267,-0.866l1.084,0.375c-0.23166,0.441 -0.55901,0.84766 -0.98167,1.22033c-0.41834,0.37266 -0.91599,0.67267 -1.49333,0.9c-0.57267,0.22266 -1.21134,0.33433 -1.91567,0.33433zM175.915,55.66667l1.74534,-10.47266h1.17967l-0.27266,1.609h0.08866c0.29066,-0.52734 0.725,-0.95233 1.302,-1.275c0.582,-0.32733 1.20233,-0.491 1.86166,-0.491c0.1,0 0.21133,0.00233 0.334,0.007c0.12267,0 0.22501,0.00433 0.30667,0.01367l-0.21133,1.234c-0.05434,-0.009 -0.15,-0.02267 -0.28634,-0.041c-0.13166,-0.018 -0.27966,-0.02733 -0.443,-0.02733c-0.54567,0 -1.05,0.116 -1.51367,0.348c-0.45934,0.227 -0.84567,0.543 -1.15933,0.94767c-0.309,0.40434 -0.509,0.866 -0.6,1.384l-1.118,6.76367zM186.66567,55.885c-0.97734,0 -1.78433,-0.22733 -2.42066,-0.682c-0.63634,-0.459 -1.08167,-1.093 -1.33633,-1.90234c-0.25433,-0.81367 -0.293,-1.75 -0.116,-2.809c0.17733,-1.05466 0.52734,-1.991 1.05,-2.809c0.523,-0.82267 1.16833,-1.466 1.93667,-1.92966c0.768,-0.468 1.602,-0.70233 2.502,-0.70233c0.56833,0 1.1,0.10467 1.59566,0.31367c0.49534,0.20466 0.91567,0.52067 1.26134,0.94767c0.35,0.423 0.59299,0.957 0.72933,1.60234c0.13666,0.641 0.132,1.39999 -0.01333,2.27733l-0.09567,0.6h-8.18167l0.17033,-1.07033h6.94767c0.11366,-0.673 0.082,-1.27734 -0.09534,-1.81367c-0.17733,-0.53634 -0.47966,-0.96133 -0.907,-1.275c-0.42266,-0.31833 -0.94767,-0.47733 -1.575,-0.47733c-0.64067,0 -1.24766,0.17966 -1.82033,0.53867c-0.568,0.359 -1.05,0.82733 -1.44533,1.40433c-0.391,0.573 -0.64334,1.18433 -0.757,1.83433l-0.13634,0.80434c-0.14533,0.88634 -0.12733,1.62966 0.05467,2.22966c0.18167,0.59533 0.51133,1.04534 0.98866,1.35c0.47734,0.30466 1.08866,0.45667 1.834,0.45667c0.5,0 0.95233,-0.077 1.35666,-0.23167c0.40466,-0.15467 0.757,-0.36133 1.057,-0.62033c0.3,-0.26367 0.541,-0.55233 0.72267,-0.866l1.084,0.375c-0.23166,0.441 -0.559,0.84766 -0.98167,1.22033c-0.41834,0.37266 -0.916,0.67267 -1.49333,0.9c-0.57267,0.22266 -1.21134,0.33433 -1.91567,0.33433zM202.015,47.49167l-1.166,0.3c-0.059,-0.31367 -0.168,-0.59533 -0.32733,-0.84533c-0.15434,-0.25467 -0.37933,-0.45466 -0.675,-0.6c-0.29066,-0.15 -0.67266,-0.225 -1.14533,-0.225c-0.709,0 -1.32033,0.17267 -1.834,0.518c-0.51367,0.341 -0.81367,0.77734 -0.9,1.309c-0.07267,0.44566 0.02033,0.807 0.27933,1.08433c0.26367,0.27734 0.70466,0.49533 1.323,0.65433l1.527,0.38867c0.84566,0.21834 1.448,0.55933 1.807,1.02267c0.36366,0.46366 0.48866,1.04999 0.375,1.75933c-0.1,0.59067 -0.35233,1.11367 -0.757,1.568c-0.4,0.45466 -0.91367,0.81133 -1.54067,1.07067c-0.623,0.259 -1.31833,0.38866 -2.08633,0.38866c-1.032,0 -1.84333,-0.232 -2.43433,-0.69566c-0.58633,-0.46366 -0.9,-1.13167 -0.94067,-2.00433l1.22034,-0.273c0.03634,0.61834 0.24766,1.08633 0.634,1.40467c0.391,0.31833 0.941,0.47733 1.65,0.47733c0.809,0 1.48866,-0.184 2.03867,-0.55233c0.55,-0.36834 0.86601,-0.82267 0.94767,-1.36366c0.07734,-0.42733 -0.00233,-0.78167 -0.23867,-1.06367c-0.23166,-0.28166 -0.627,-0.491 -1.18633,-0.62734l-1.62933,-0.409c-0.87733,-0.22266 -1.498,-0.57033 -1.86133,-1.043c-0.35933,-0.47733 -0.47966,-1.066 -0.36166,-1.766c0.09566,-0.57733 0.33666,-1.084 0.723,-1.52067c0.38634,-0.43633 0.875,-0.777 1.46567,-1.02267c0.591,-0.25 1.23634,-0.375 1.93634,-0.375c0.96366,0 1.698,0.21833 2.20234,0.65467c0.50466,0.43167 0.82266,1.02733 0.95466,1.78633zM209.32934,45.194l-0.17067,1.05666h-5.00433l0.177,-1.05666zM206.302,42.685h1.22034l-1.70467,10.24766c-0.07267,0.43633 -0.05433,0.77934 0.05467,1.02934c0.109,0.24567 0.27733,0.42066 0.50467,0.525c0.22734,0.1 0.47734,0.15 0.75,0.15c0.159,0 0.29533,-0.009 0.409,-0.027c0.11834,-0.023 0.22266,-0.04567 0.31366,-0.06833l0.08867,1.09767c-0.132,0.04566 -0.28867,0.08633 -0.47067,0.12266c-0.18167,0.041 -0.4,0.06133 -0.65433,0.06133c-0.44566,0 -0.857,-0.09766 -1.234,-0.293c-0.37733,-0.19534 -0.66367,-0.48633 -0.85933,-0.87267c-0.19534,-0.38634 -0.24767,-0.866 -0.15667,-1.43867zM218.55234,47.49167l-1.16567,0.3c-0.05934,-0.31367 -0.16833,-0.59533 -0.32733,-0.84533c-0.15466,-0.25467 -0.37967,-0.45466 -0.675,-0.6c-0.291,-0.15 -0.67267,-0.225 -1.14567,-0.225c-0.709,0 -1.32033,0.17267 -1.834,0.518c-0.51367,0.341 -0.81367,0.77734 -0.9,1.309c-0.07267,0.44566 0.02067,0.807 0.27967,1.08433c0.26367,0.27734 0.70433,0.49533 1.32267,0.65433l1.52733,0.38867c0.84534,0.21834 1.44767,0.55933 1.80667,1.02267c0.36366,0.46366 0.48866,1.04999 0.375,1.75933c-0.1,0.59067 -0.35233,1.11367 -0.75666,1.568c-0.4,0.45466 -0.91367,0.81133 -1.541,1.07067c-0.62267,0.259 -1.318,0.38866 -2.08634,0.38866c-1.03167,0 -1.84333,-0.232 -2.434,-0.69566c-0.58633,-0.46366 -0.9,-1.13167 -0.941,-2.00433l1.22034,-0.273c0.03634,0.61834 0.248,1.08633 0.63433,1.40467c0.39067,0.31833 0.94066,0.47733 1.65,0.47733c0.809,0 1.48867,-0.184 2.03867,-0.55233c0.55,-0.36834 0.86567,-0.82267 0.94767,-1.36366c0.07734,-0.42733 -0.00233,-0.78167 -0.23866,-1.06367c-0.232,-0.28166 -0.62734,-0.491 -1.18634,-0.62734l-1.62966,-0.409c-0.87733,-0.22266 -1.49767,-0.57033 -1.86133,-1.043c-0.359,-0.47733 -0.47967,-1.066 -0.36133,-1.766c0.09534,-0.57733 0.33633,-1.084 0.72267,-1.52067c0.38634,-0.43633 0.875,-0.777 1.466,-1.02267c0.591,-0.25 1.23633,-0.375 1.93633,-0.375c0.96366,0 1.69767,0.21833 2.20234,0.65467c0.50433,0.43167 0.82267,1.02733 0.95433,1.78633zM224.019,41.703l-1.74567,9.96133h-1.2l1.56833,-9.96133zM221.14834,55.769c-0.277,0 -0.50667,-0.09567 -0.68833,-0.28634c-0.182,-0.191 -0.273,-0.42266 -0.273,-0.69566c0,-0.27267 0.1,-0.502 0.3,-0.68867c0.2,-0.18633 0.432,-0.27933 0.69566,-0.27933c0.27266,0 0.50433,0.09533 0.69534,0.28633c0.191,0.191 0.282,0.418 0.27267,0.68167c-0.009,0.182 -0.059,0.348 -0.15,0.498c-0.09067,0.14534 -0.21133,0.26334 -0.36133,0.35434c-0.15,0.08633 -0.31366,0.12966 -0.491,0.12966z" fill="#d9d9d9" stroke="none" stroke-width="1"/><path d="M634.52646,11.324c-0.27622,-0.27623 -0.27622,-0.7241 0,-1.00033l4.50151,-4.50148c0.2762,-0.27623 0.72406,-0.27623 1.0003,0c0.27623,0.27623 0.27623,0.7241 0,1.00033l-4.00133,4.00131l4.00133,4.00134c0.27623,0.27622 0.27623,0.7241 0,1.00032c-0.27624,0.27622 -0.7241,0.27622 -1.0003,0zM646.34405,10.82383v0.70734h-11.31743v-0.70734v-0.70734h11.31743z" fill="#ffffff" stroke="none" stroke-width="1"/></g></g></svg>