<svg version="1.1" xmlns="http://www.w3.org/2000/svg" xmlns:xlink="http://www.w3.org/1999/xlink" width="67.5641" height="12.72213" viewBox="0,0,67.5641,12.72213"><g transform="translate(-321.68112,-48.96025)"><g fill="#e3e3e3" stroke="none" stroke-miterlimit="10"><path d="M329.72015,52.12668h-0.89129c-0.06641,-0.3317 -0.18619,-0.63836 -0.36005,-0.91966c-0.17085,-0.28431 -0.38576,-0.53224 -0.6447,-0.74413c-0.25928,-0.21156 -0.55293,-0.37608 -0.88162,-0.49287c-0.32869,-0.1168 -0.68407,-0.17553 -1.06649,-0.17553c-0.613,0 -1.17227,0.15984 -1.67815,0.47885c-0.50221,0.31902 -0.90531,0.78853 -1.20864,1.40786c-0.29999,0.616 -0.45015,1.37148 -0.45015,2.26578c0,0.90031 0.15016,1.65879 0.45015,2.27513c0.30333,0.616 0.70643,1.08384 1.20864,1.40286c0.50588,0.31601 1.06515,0.47418 1.67815,0.47418c0.38241,0 0.7378,-0.05839 1.06649,-0.17553c0.32869,-0.1168 0.62234,-0.27964 0.88162,-0.48819c0.25894,-0.21156 0.47385,-0.45983 0.6447,-0.74413c0.17386,-0.28431 0.29365,-0.59264 0.36005,-0.92433h0.89129c-0.07909,0.44548 -0.22758,0.86126 -0.44581,1.24668c-0.21456,0.38241 -0.48953,0.71744 -0.82456,1.00476c-0.3317,0.28764 -0.7141,0.51189 -1.14724,0.67306c-0.43279,0.16118 -0.90831,0.24192 -1.42655,0.24192c-0.81522,0 -1.539,-0.20389 -2.17102,-0.61166c-0.63202,-0.41078 -1.12821,-0.98908 -1.48828,-1.73488c-0.35705,-0.74547 -0.53558,-1.62576 -0.53558,-2.63985c0,-1.01443 0.17853,-1.89472 0.53558,-2.64019c0.36005,-0.7458 0.85626,-1.32243 1.48828,-1.7302c0.63202,-0.41078 1.3558,-0.61633 2.17102,-0.61633c0.51822,0 0.99374,0.08075 1.42655,0.24193c0.43313,0.15784 0.81554,0.38241 1.14724,0.67306c0.33503,0.28764 0.61,0.62234 0.82456,1.00476c0.21823,0.38241 0.36672,0.79786 0.44581,1.24668zM332.47046,54.25032v4.55026h-0.84358v-9.7075h0.84358v3.5692h0.07675c0.17019,-0.37608 0.4338,-0.67606 0.79086,-0.90064c0.36039,-0.22424 0.81421,-0.33636 1.36481,-0.33636c0.49387,0 0.92434,0.10112 1.29808,0.30333c0.37374,0.20222 0.66405,0.50088 0.87427,0.89564c0.20689,0.39509 0.31033,0.88195 0.31033,1.45991v4.71644h-0.84758v-4.66405c0,-0.60066 -0.16685,-1.07282 -0.50054,-1.41719c-0.33369,-0.34771 -0.78084,-0.52157 -1.34812,-0.52157c-0.38709,0 -0.73413,0.0821 -1.03778,0.2466c-0.30366,0.16418 -0.54392,0.4011 -0.72078,0.71077c-0.17352,0.30666 -0.26028,0.67173 -0.26028,1.09519zM341.44351,58.96642c-0.44047,0 -0.84091,-0.08543 -1.20464,-0.25595c-0.36372,-0.17386 -0.65404,-0.42346 -0.8676,-0.74881c-0.2169,-0.3287 -0.32368,-0.72679 -0.32368,-1.19463c0,-0.36005 0.07007,-0.66338 0.20355,-0.90998c0.13682,-0.2466 0.33035,-0.44882 0.58062,-0.60665c0.24694,-0.15817 0.54392,-0.28297 0.88429,-0.3744c0.3437,-0.09176 0.71744,-0.16285 1.12789,-0.21357c0.40711,-0.05038 0.75415,-0.09477 1.03446,-0.13248c0.28364,-0.03804 0.50054,-0.0981 0.65071,-0.18019c0.14682,-0.0821 0.22024,-0.2149 0.22024,-0.3981v-0.17085c0,-0.49587 -0.14682,-0.88629 -0.44382,-1.1706c-0.29366,-0.28764 -0.71744,-0.43146 -1.27138,-0.43146c-0.5239,0 -0.95103,0.11547 -1.28473,0.34604c-0.32702,0.23058 -0.55727,0.50254 -0.69074,0.81521l-0.80086,-0.28898c0.16351,-0.39809 0.39043,-0.71578 0.68074,-0.9527c0.29031,-0.24027 0.61733,-0.41245 0.97772,-0.51689c0.36039,-0.10712 0.72411,-0.16085 1.09452,-0.16085c0.27697,0 0.56728,0.03604 0.8676,0.10879c0.30366,0.07274 0.58396,0.19921 0.84425,0.3794c0.25694,0.17686 0.46717,0.42479 0.63068,0.74414c0.16017,0.31601 0.24027,0.71711 0.24027,1.20396v4.94368h-0.84425v-1.15191h-0.05006c-0.10345,0.2149 -0.25361,0.42345 -0.45049,0.62567c-0.20022,0.20222 -0.45049,0.3684 -0.7508,0.49788c-0.30032,0.12947 -0.65071,0.19421 -1.05448,0.19421zM341.55696,58.19392c0.44715,0 0.83758,-0.09944 1.16458,-0.29865c0.33035,-0.19922 0.58063,-0.46283 0.75749,-0.79153c0.18019,-0.33203 0.27029,-0.69675 0.27029,-1.09484v-1.05246c-0.0634,0.06007 -0.16684,0.11379 -0.317,0.16117c-0.14349,0.04738 -0.31368,0.0901 -0.50722,0.12815c-0.1902,0.0347 -0.37707,0.06473 -0.56727,0.08976c-0.1902,0.02536 -0.36039,0.04772 -0.51389,0.06641c-0.41045,0.05072 -0.76083,0.1298 -1.05113,0.23726c-0.29031,0.10744 -0.51389,0.25595 -0.66739,0.44548c-0.15684,0.18653 -0.23359,0.42646 -0.23359,0.72044c0,0.44248 0.15684,0.78518 0.47384,1.02845c0.317,0.24027 0.71411,0.36039 1.1913,0.36039zM347.68359,49.09307v9.7075h-0.84425v-9.7075zM350.75691,49.09307v9.7075h-0.84091v-9.7075zM355.93586,58.9524c-0.68074,0 -1.26804,-0.15817 -1.76524,-0.47418c-0.49387,-0.31902 -0.88095,-0.75982 -1.15124,-1.32243c-0.26696,-0.56562 -0.40377,-1.21665 -0.40377,-1.95279c0,-0.73313 0.13682,-1.38416 0.40377,-1.95311c0.27029,-0.57195 0.64737,-1.0191 1.12455,-1.34112c0.48052,-0.32569 1.03445,-0.48819 1.66179,-0.48819c0.3971,0 0.77752,0.07241 1.14457,0.21791c0.36372,0.14216 0.69409,0.36172 0.9844,0.65871c0.29366,0.29398 0.52723,0.66539 0.69742,1.11388c0.17019,0.44582 0.25694,0.97339 0.25694,1.58338v0.41712h-5.68948v-0.74413h4.82522c0,-0.46784 -0.09343,-0.88797 -0.28364,-1.26103c-0.18687,-0.37608 -0.44715,-0.67306 -0.78419,-0.89097c-0.33035,-0.21823 -0.7141,-0.32702 -1.15124,-0.32702c-0.46049,0 -0.8676,0.12313 -1.21799,0.36973c-0.35037,0.24627 -0.62401,0.57195 -0.82423,0.97639c-0.19688,0.40444 -0.29699,0.84692 -0.29699,1.32711v0.44548c0,0.57829 0.09677,1.08384 0.29699,1.51697c0.20355,0.42981 0.48719,0.76317 0.8576,1.00008c0.37039,0.23692 0.80754,0.35539 1.31475,0.35539c0.3437,0 0.64403,-0.05373 0.90431,-0.16118c0.26362,-0.10744 0.48052,-0.25127 0.65738,-0.43113c0.18019,-0.18353 0.317,-0.38408 0.41045,-0.60199l0.80087,0.26062c-0.11345,0.30633 -0.29366,0.58931 -0.54726,0.84858c-0.25027,0.25894 -0.5606,0.46751 -0.93768,0.62568c-0.37374,0.15484 -0.80421,0.23224 -1.28806,0.23224zM361.59197,54.25032v4.55026h-0.84425v-7.28055h0.81756v1.14224h0.07675c0.17019,-0.37273 0.43715,-0.67139 0.79754,-0.89597c0.36372,-0.22725 0.81088,-0.34103 1.34479,-0.34103c0.49054,0 0.921,0.10244 1.2914,0.30799c0.37039,0.20222 0.66071,0.50088 0.8676,0.89597c0.20689,0.39476 0.31034,0.87995 0.31034,1.45491v4.71644h-0.84426v-4.66404c0,-0.59731 -0.16684,-1.06983 -0.50053,-1.41719c-0.33369,-0.34771 -0.77751,-0.52156 -1.33812,-0.52156c-0.38041,0 -0.72078,0.08209 -1.01776,0.24659c-0.29699,0.16418 -0.53391,0.4011 -0.70743,0.71077c-0.17019,0.30666 -0.25362,0.67173 -0.25362,1.09519zM371.25576,61.68236c-0.49721,0 -0.93101,-0.06474 -1.30475,-0.19421c-0.37374,-0.12647 -0.68741,-0.30033 -0.94435,-0.52157c-0.25361,-0.22091 -0.45383,-0.46918 -0.59732,-0.74413l0.69409,-0.45482c0.10345,0.18319 0.2436,0.3634 0.41712,0.54026c0.17686,0.17686 0.40377,0.32401 0.68741,0.44081c0.28364,0.1168 0.63068,0.17553 1.04781,0.17553c0.64403,0 1.16125,-0.16118 1.55835,-0.48352c0.3971,-0.32234 0.59732,-0.82322 0.59732,-1.50263v-1.6401h-0.07675c-0.09677,0.22124 -0.23692,0.44247 -0.42046,0.66372c-0.18353,0.21791 -0.4238,0.39977 -0.72078,0.54493c-0.29366,0.14549 -0.66072,0.21823 -1.09452,0.21823c-0.58396,0 -1.09785,-0.14382 -1.55167,-0.43147c-0.44715,-0.28764 -0.80086,-0.69842 -1.06115,-1.23232c-0.25694,-0.53725 -0.38374,-1.17727 -0.38374,-1.91974c0,-0.73613 0.12347,-1.38417 0.37374,-1.94344c0.25361,-0.55927 0.60399,-0.99541 1.05781,-1.30808c0.45049,-0.31301 0.97773,-0.46918 1.57838,-0.46918c0.44382,0 0.81421,0.07875 1.10787,0.23692c0.29366,0.15484 0.53057,0.34737 0.70743,0.57829c0.18019,0.23058 0.32035,0.45483 0.42046,0.67307h0.08675v-1.38884h0.82423v7.47008c0,0.61633 -0.13014,1.12355 -0.39376,1.52165c-0.26029,0.39809 -0.61733,0.69208 -1.07115,0.88162c-0.45049,0.19287 -0.96438,0.28898 -1.53833,0.28898zM371.19569,57.95199c0.47051,0 0.8676,-0.11212 1.2013,-0.33636c0.33035,-0.22758 0.58397,-0.55293 0.76416,-0.97639c0.17686,-0.42346 0.26362,-0.92767 0.26362,-1.5123c0,-0.56862 -0.08676,-1.07249 -0.26029,-1.51197c-0.17352,-0.44248 -0.42712,-0.78985 -0.75748,-1.04279c-0.33035,-0.25595 -0.73413,-0.38374 -1.21132,-0.38374c-0.48386,0 -0.89429,0.13114 -1.23134,0.39342c-0.33369,0.26228 -0.58731,0.61601 -0.75748,1.06148c-0.17019,0.44248 -0.25695,0.93701 -0.25695,1.4836c0,0.55627 0.08676,1.04781 0.26029,1.47427c0.17352,0.42346 0.43047,0.75516 0.76416,0.99541c0.33369,0.23692 0.74413,0.35539 1.22132,0.35539zM379.43795,58.9524c-0.68074,0 -1.26803,-0.15817 -1.76524,-0.47418c-0.49721,-0.31902 -0.88095,-0.75982 -1.15124,-1.32243c-0.27029,-0.56562 -0.40377,-1.21665 -0.40377,-1.95279c0,-0.73313 0.13347,-1.38416 0.40377,-1.95311c0.27029,-0.57195 0.64737,-1.0191 1.12455,-1.34112c0.48052,-0.32569 1.03445,-0.48819 1.66179,-0.48819c0.3971,0 0.77751,0.07241 1.14457,0.21791c0.36372,0.14216 0.69409,0.36172 0.9844,0.65871c0.29366,0.29398 0.52723,0.66539 0.69741,1.11388c0.17019,0.44582 0.25694,0.97339 0.25694,1.58338v0.41712h-5.68949v-0.74413h4.82522c0,-0.46784 -0.09343,-0.88797 -0.28364,-1.26103c-0.18687,-0.37608 -0.44715,-0.67306 -0.78419,-0.89097c-0.33035,-0.21823 -0.7141,-0.32702 -1.15124,-0.32702c-0.46049,0 -0.8676,0.12313 -1.21798,0.36973c-0.35037,0.24627 -0.62401,0.57195 -0.82423,0.97639c-0.19688,0.40444 -0.29699,0.84692 -0.29699,1.32711v0.44548c0,0.57829 0.09677,1.08384 0.29699,1.51697c0.20355,0.42981 0.48719,0.76317 0.8576,1.00008c0.37039,0.23692 0.80755,0.35539 1.31475,0.35539c0.3437,0 0.64402,-0.05373 0.90431,-0.16118c0.26029,-0.10744 0.48052,-0.25127 0.65738,-0.43113c0.18019,-0.18353 0.317,-0.38408 0.40711,-0.60199l0.8042,0.26062c-0.11345,0.30633 -0.29365,0.58931 -0.54725,0.84858c-0.25027,0.25894 -0.56061,0.46751 -0.93768,0.62568c-0.37374,0.15484 -0.80421,0.23224 -1.28806,0.23224zM389.14178,53.11743l-0.77417,0.21791c-0.07675,-0.21791 -0.18353,-0.41545 -0.32368,-0.59231c-0.13682,-0.17719 -0.32035,-0.31767 -0.54392,-0.42213c-0.22024,-0.10412 -0.49721,-0.15617 -0.82423,-0.15617c-0.49387,0 -0.89764,0.1168 -1.21464,0.35072c-0.31367,0.23392 -0.47385,0.53558 -0.47385,0.9053c0,0.31267 0.10678,0.56728 0.32368,0.76316c0.2169,0.19255 0.55393,0.34604 1.00442,0.45983l1.10119,0.26996c0.60733,0.14849 1.06448,0.38409 1.36816,0.70643c0.307,0.32234 0.46049,0.72678 0.46049,1.21331c0,0.41078 -0.11345,0.77584 -0.34037,1.09485c-0.23025,0.31934 -0.54726,0.57062 -0.95436,0.75381c-0.40377,0.18019 -0.87427,0.27029 -1.40819,0.27029c-0.71076,0 -1.29808,-0.15984 -1.75857,-0.47884c-0.46049,-0.32234 -0.75748,-0.78686 -0.88429,-1.39351l0.80754,-0.19921c0.10678,0.43314 0.31033,0.76016 0.614,0.98139c0.307,0.22091 0.70743,0.33169 1.20797,0.33169c0.5606,0 1.00776,-0.1248 1.34145,-0.3744c0.33369,-0.25294 0.50054,-0.56894 0.50054,-0.94803c0,-0.29398 -0.09677,-0.54058 -0.29366,-0.73947c-0.19353,-0.20222 -0.49053,-0.35071 -0.89096,-0.44548l-1.18796,-0.28464c-0.63403,-0.15149 -1.10119,-0.39176 -1.40485,-0.72044c-0.30366,-0.3287 -0.45383,-0.73613 -0.45383,-1.22299c0,-0.4011 0.11013,-0.75348 0.32703,-1.05682c0.2169,-0.30666 0.51722,-0.54659 0.90097,-0.72044c0.38041,-0.17386 0.81756,-0.26062 1.30808,-0.26062c0.66739,0 1.19796,0.1515 1.5984,0.45483c0.40044,0.30033 0.69074,0.7141 0.8676,1.242z"/></g></g></svg>