<svg version="1.1" xmlns="http://www.w3.org/2000/svg" xmlns:xlink="http://www.w3.org/1999/xlink" width="35.65457" height="9.87335" viewBox="0,0,35.65457,9.87335"><g transform="translate(-329.87165,-141.1927)"><g fill="#e3e3e3" stroke="none" stroke-miterlimit="10"><path d="M329.87165,141.9889v-0.79619h7.04029v0.79619h-3.07667v8.91132h-0.88762v-8.91132zM337.97309,150.9002v-7.28055h0.82088v1.11854h0.06341c0.14349,-0.3664 0.3971,-0.66205 0.75748,-0.88629c0.36372,-0.22759 0.77417,-0.34137 1.23134,-0.34137c0.07008,0 0.14682,0.00167 0.23359,0.00467c0.08342,0.00334 0.15684,0.00634 0.21357,0.00968v0.85792c-0.04004,-0.00634 -0.10345,-0.01601 -0.20023,-0.02836c-0.09343,-0.01268 -0.19688,-0.01902 -0.307,-0.01902c-0.38041,0 -0.71744,0.08043 -1.01443,0.2416c-0.29366,0.15817 -0.52723,0.37775 -0.69742,0.65904c-0.17019,0.28098 -0.25694,0.60199 -0.25694,0.96204v4.70209zM344.7671,151.06605c-0.44047,0 -0.8409,-0.08542 -1.20464,-0.25595c-0.36372,-0.17386 -0.65404,-0.42346 -0.8676,-0.74881c-0.21357,-0.3287 -0.32368,-0.72679 -0.32368,-1.19463c0,-0.36005 0.07008,-0.66339 0.20355,-0.90999c0.13682,-0.2466 0.33035,-0.44882 0.58062,-0.60665c0.25027,-0.15817 0.54392,-0.28297 0.88429,-0.3744c0.3437,-0.09176 0.71744,-0.16285 1.12789,-0.21357c0.41045,-0.05039 0.75415,-0.09476 1.03445,-0.13248c0.28364,-0.03805 0.50054,-0.09811 0.6507,-0.18019c0.14682,-0.0821 0.22024,-0.2149 0.22024,-0.39809v-0.17085c0,-0.49588 -0.14682,-0.88629 -0.44381,-1.1706c-0.29366,-0.28764 -0.71744,-0.43147 -1.27138,-0.43147c-0.5239,0 -0.95103,0.11547 -1.28472,0.34604c-0.32702,0.23058 -0.55727,0.50254 -0.69074,0.81521l-0.80087,-0.28897c0.16351,-0.3981 0.39043,-0.71579 0.68074,-0.95271c0.29031,-0.24026 0.61734,-0.41244 0.97773,-0.51689c0.36039,-0.10712 0.72411,-0.16085 1.09452,-0.16085c0.27697,0 0.56727,0.03603 0.8676,0.10879c0.30366,0.07274 0.58397,0.19922 0.84425,0.37941c0.26029,0.17686 0.47051,0.42479 0.63068,0.74413c0.16017,0.31601 0.24026,0.71712 0.24026,1.20397v4.94368h-0.84425v-1.15192h-0.05006c-0.10345,0.2149 -0.25027,0.42345 -0.45049,0.62568c-0.20022,0.20222 -0.45049,0.3684 -0.75081,0.49787c-0.30032,0.12948 -0.65071,0.19421 -1.05448,0.19421zM344.88056,150.29355c0.44715,0 0.83758,-0.09944 1.16459,-0.29865c0.33035,-0.19922 0.58062,-0.46284 0.75748,-0.79153c0.18019,-0.33202 0.27029,-0.69675 0.27029,-1.09484v-1.05247c-0.0634,0.06007 -0.16684,0.11379 -0.317,0.16117c-0.14349,0.04738 -0.31368,0.0901 -0.50722,0.12814c-0.1902,0.0347 -0.37707,0.06473 -0.56727,0.08976c-0.1902,0.02536 -0.36039,0.04772 -0.51389,0.06641c-0.41045,0.05072 -0.76083,0.12981 -1.05113,0.23726c-0.29031,0.10745 -0.51389,0.25595 -0.66739,0.44548c-0.15684,0.18653 -0.23359,0.42646 -0.23359,0.72044c0,0.44248 0.16017,0.78518 0.47384,1.02845c0.317,0.24026 0.71411,0.36039 1.1913,0.36039zM355.53875,143.61967l-2.65954,7.28055h-0.90097l-2.65954,-7.28055h0.91432l2.16235,6.16667h0.06673l2.159,-6.16667zM359.87011,151.05203c-0.67739,0 -1.26471,-0.15817 -1.76192,-0.47418c-0.49721,-0.31902 -0.88095,-0.75982 -1.15124,-1.32243c-0.27029,-0.56562 -0.40377,-1.21664 -0.40377,-1.95279c0,-0.73313 0.13347,-1.38416 0.40377,-1.95311c0.27029,-0.57195 0.64403,-1.0191 1.12122,-1.34112c0.48052,-0.32569 1.03446,-0.48819 1.66514,-0.48819c0.39376,0 0.77417,0.07242 1.14123,0.21791c0.36707,0.14216 0.69741,0.36172 0.98774,0.65871c0.29366,0.29398 0.5239,0.66539 0.69742,1.11388c0.17019,0.44582 0.25361,0.97339 0.25361,1.58338v0.41712h-5.68615v-0.74413h4.82522c0,-0.46784 -0.09678,-0.88796 -0.28698,-1.26103c-0.18353,-0.37607 -0.44715,-0.67306 -0.78084,-0.89097c-0.33035,-0.21823 -0.7141,-0.32702 -1.15124,-0.32702c-0.46049,0 -0.86761,0.12313 -1.21799,0.36973c-0.35037,0.24627 -0.62735,0.57196 -0.82423,0.97639c-0.19688,0.40444 -0.29699,0.84691 -0.30032,1.3271v0.44548c0,0.57829 0.1001,1.08383 0.30032,1.51697c0.20022,0.4298 0.4872,0.76317 0.8576,1.00009c0.37039,0.23692 0.80754,0.35539 1.31142,0.35539c0.34704,0 0.64737,-0.05373 0.90765,-0.16118c0.26029,-0.10745 0.48052,-0.25127 0.65738,-0.43113c0.18019,-0.18353 0.317,-0.38408 0.4071,-0.60199l0.80087,0.26062c-0.11012,0.30633 -0.29031,0.5893 -0.54392,0.84858c-0.25027,0.25894 -0.56394,0.46751 -0.93768,0.62568c-0.37374,0.15484 -0.80421,0.23224 -1.2914,0.23224zM365.52622,141.1927v9.7075h-0.84425v-9.7075z"/></g></g></svg>