<svg version="1.1" xmlns="http://www.w3.org/2000/svg" xmlns:xlink="http://www.w3.org/1999/xlink" width="570.41442" height="113.38141" viewBox="0,0,570.41442,113.38141"><g transform="translate(-38.17652,-205.46017)"><g fill-opacity="0.75" fill="#ffffff" stroke="none" stroke-miterlimit="10"><path d="M73.68845,315.32214h-35.51193v-104.79615h36.22848c10.40445,0 19.34206,2.09796 26.81283,6.29391c7.50518,4.16181 13.27029,10.14872 17.29564,17.96067c4.02535,7.81202 6.03803,17.15885 6.03803,28.04098c0,10.91655 -2.02971,20.29745 -6.08913,28.14371c-4.02535,7.84592 -9.84189,13.86691 -17.44897,18.06296c-7.57334,4.19605 -16.68165,6.29391 -27.32494,6.29391zM57.1606,298.89671h15.60686c7.30008,0 13.38955,-1.33054 18.26774,-3.99127c4.87819,-2.69515 8.54543,-6.70346 11.0014,-12.02494c2.45629,-5.35589 3.68428,-12.04197 3.68428,-20.05894c0,-8.01663 -1.22798,-14.66864 -3.68428,-19.95604c-2.45596,-5.32181 -6.08913,-9.29596 -10.89918,-11.92269c-4.77597,-2.66084 -10.71143,-3.99127 -17.80708,-3.99127h-16.16974z"/><path d="M162.50569,316.90856c-4.98074,0 -9.46642,-0.88725 -13.45769,-2.66107c-3.95721,-1.8079 -7.09564,-4.46864 -9.41531,-7.98255c-2.2856,-3.51358 -3.42839,-7.84592 -3.42839,-12.99703c0,-4.4349 0.81876,-8.10181 2.45629,-11.00173c1.63719,-2.89958 3.87169,-5.21926 6.70313,-6.95901c2.83144,-1.73976 6.02099,-3.05326 9.56864,-3.94016c3.58206,-0.92098 7.28337,-1.58609 11.10395,-1.99564c4.60527,-0.47737 8.34066,-0.90395 11.20617,-1.27909c2.86552,-0.40955 4.94667,-1.02354 6.2428,-1.84231c1.33054,-0.85284 1.99564,-2.16601 1.99564,-3.93983v-0.307c0,-3.85498 -1.14279,-6.83976 -3.42839,-8.95498c-2.2856,-2.1149 -5.57737,-3.17251 -9.87564,-3.17251c-4.53712,0 -8.13621,0.98947 -10.79695,2.96807c-2.62666,1.9786 -4.4005,4.31531 -5.32181,7.01012l-17.2953,-2.45596c1.36461,-4.77597 3.61613,-8.76724 6.75424,-11.97382c3.13844,-3.24099 6.97638,-5.66288 11.5135,-7.26634c4.53712,-1.63719 9.55161,-2.45596 15.04378,-2.45596c3.78684,0 7.5563,0.44329 11.30873,1.3302c3.75243,0.88692 7.18082,2.35408 10.28518,4.40083c3.10436,2.01268 5.5944,4.7586 7.47078,8.23844c1.91045,3.4795 2.86552,7.82889 2.86552,13.04814v52.6028h-17.80708v-10.79695h-0.61433c-1.12543,2.18337 -2.71185,4.23013 -4.7586,6.14058c-2.01268,1.87605 -4.55416,3.39432 -7.62445,4.55416c-3.03588,1.12576 -6.6009,1.68864 -10.6944,1.68864zM167.31573,303.2972c3.71835,0 6.94197,-0.73358 9.67086,-2.20042c2.72922,-1.5009 4.82708,-3.4795 6.29391,-5.93547c1.50124,-2.45629 2.25152,-5.13408 2.25152,-8.034v-9.26164c-0.57992,0.4777 -1.56905,0.92098 -2.96774,1.33054c-1.36461,0.40922 -2.89958,0.76732 -4.60527,1.07432c-1.70568,0.30733 -3.39432,0.58025 -5.06592,0.81876c-1.67161,0.23885 -3.1214,0.44363 -4.34938,0.61399c-2.76329,0.37547 -5.23629,0.98947 -7.41967,1.84231c-2.18337,0.85284 -3.9061,2.04674 -5.16815,3.58172c-1.26206,1.50124 -1.89342,3.44543 -1.89342,5.83358c0,3.41136 1.24536,5.98692 3.73539,7.72666c2.49037,1.73976 5.66288,2.60963 9.51786,2.60963z"/><path d="M266.80934,236.72494l-7.99024,13.66247l-44.72246,0.6651v-14.32757zM225.71236,315.32214v-86.01677c0,-5.28754 1.09135,-9.68817 3.27473,-13.20184c2.21745,-3.51368 5.18518,-6.14042 8.90353,-7.88016c3.71835,-1.73979 7.84626,-2.6097 12.38304,-2.6097c3.20692,0 6.05539,0.25585 8.54543,0.76756c2.49037,0.5117 4.33234,0.97223 5.52659,1.38161l-3.68428,14.32757c-0.78469,-0.23878 -1.77416,-0.47757 -2.96807,-0.71637c-1.19391,-0.27289 -2.52445,-0.40935 -3.99127,-0.40935c-3.44543,0 -5.88436,0.83577 -7.31711,2.50735c-1.39868,1.63743 -2.09819,3.99124 -2.09819,7.06143v84.78869z"/><path d="M308.22367,235.70174l0.10255,14.68568h-49.50712l7.99024,-13.66247zM273.37717,316.12921v-86.01674c0,-5.28757 1.09135,-9.68819 3.27473,-13.20188c2.21745,-3.51368 5.18518,-6.14038 8.90353,-7.88016c3.71835,-1.73979 7.84626,-2.60966 12.38338,-2.60966c3.20658,0 6.05506,0.25585 8.54509,0.76756c2.49037,0.51167 4.33234,0.9722 5.52659,1.38158l-3.68428,14.3276c-0.78469,-0.23882 -1.77382,-0.4776 -2.96807,-0.71641c-1.19391,-0.27289 -2.52411,-0.40935 -3.99127,-0.40935c-3.44543,0 -5.88436,0.83577 -7.31711,2.50735c-1.39868,1.63743 -2.09786,3.99124 -2.09786,7.06146v84.78865z"/><path d="M345.8849,316.85712c-7.67555,0 -14.32757,-1.68864 -19.95637,-5.06559c-5.62848,-3.37729 -9.99523,-8.10215 -13.09925,-14.17424c-3.07029,-6.0721 -4.6056,-13.16774 -4.6056,-21.28658c0,-8.11918 1.53531,-15.23186 4.6056,-21.33803c3.10403,-6.10617 7.47078,-10.84806 13.09925,-14.22535c5.62881,-3.37695 12.28082,-5.06559 19.95637,-5.06559c7.67555,0 14.32757,1.68864 19.95637,5.06559c5.62848,3.37729 9.97685,8.11918 13.04681,14.22535c3.1067,6.10617 4.65671,13.21885 4.65671,21.33803c0,8.11885 -1.55001,15.21448 -4.65671,21.28658c-3.06995,6.0721 -7.41834,10.79695 -13.04681,14.17424c-5.62881,3.37695 -12.28082,5.06559 -19.95637,5.06559zM345.98713,302.01778c4.16197,0 7.64148,-1.14246 10.43885,-3.42806c2.79737,-2.32 4.87819,-5.42403 6.2428,-9.31308c1.39868,-3.88905 2.09786,-8.2214 2.09786,-12.99703c0,-4.81005 -0.69918,-9.15976 -2.09786,-13.04848c-1.36461,-3.92313 -3.44543,-7.04453 -6.2428,-9.3642c-2.79737,-2.31967 -6.27687,-3.4795 -10.43885,-3.4795c-4.26387,0 -7.81185,1.15984 -10.64329,3.4795c-2.79737,2.31967 -4.89523,5.44107 -6.29391,9.3642c-1.36461,3.88872 -2.04674,8.23844 -2.04674,13.04848c0,4.77564 0.68214,9.10798 2.04674,12.99703c1.39868,3.88905 3.49654,6.99308 6.29391,9.31308c2.83144,2.2856 6.37942,3.42806 10.64329,3.42806z"/><path d="M426.32708,316.70378c-6.17666,0 -11.7019,-1.58642 -16.57909,-4.75893c-4.87718,-3.17251 -8.73217,-7.77777 -11.56494,-13.8158c-2.83278,-6.03803 -4.24582,-13.37251 -4.24582,-22.00313c0,-8.73317 1.43309,-16.1014 4.29593,-22.10535c2.89958,-6.03803 6.80802,-10.59218 11.71861,-13.66247c4.91393,-3.10436 10.38907,-4.65637 16.42543,-4.65637c4.6066,0 8.39143,0.78435 11.36117,2.35374c2.9664,1.53498 5.32148,3.39432 7.0619,5.57737c1.73708,2.14931 3.08666,4.17902 4.04206,6.08947h0.76498v-39.19631h18.57674v104.79615h-18.21596v-12.38304h-1.12576c-0.95539,1.91012 -2.33838,3.93983 -4.14561,6.08913c-1.80723,2.1149 -4.19572,3.92313 -7.16546,5.42403c-2.9664,1.5009 -6.70112,2.25152 -11.20417,2.25152zM431.49489,301.50633c3.92179,0 7.26567,-1.05761 10.02829,-3.17251c2.76262,-2.14931 4.86049,-5.13408 6.29358,-8.95498c1.43309,-3.82058 2.15131,-8.27251 2.15131,-13.35514c0,-5.08297 -0.71822,-9.50083 -2.15131,-13.25326c-1.39634,-3.75243 -3.4775,-6.66905 -6.24013,-8.74987c-2.72922,-2.08115 -6.0898,-3.1214 -10.08174,-3.1214c-4.1289,0 -7.573,1.07465 -10.33563,3.22362c-2.76262,2.14931 -4.84378,5.11703 -6.24346,8.90353c-1.39969,3.7865 -2.09786,8.11918 -2.09786,12.99737c0,4.91226 0.69818,9.29572 2.09786,13.1507c1.43309,3.82058 3.53095,6.83976 6.29358,9.05687c2.79603,2.18337 6.22676,3.27507 10.28552,3.27507z"/><path d="M486.03921,315.32214v-78.5972h18.52663v78.5972zM495.35264,225.56998c-2.93299,0 -5.45844,-0.97223 -7.573,-2.91669c-2.11456,-1.97856 -3.17017,-4.34944 -3.17017,-7.11264c0,-2.79727 1.05561,-5.16815 3.17017,-7.11261c2.11456,-1.97856 4.64001,-2.96787 7.573,-2.96787c2.96974,0 5.49185,0.9893 7.573,2.96787c2.1179,1.94446 3.17351,4.31534 3.17351,7.11261c0,2.7632 -1.05561,5.13408 -3.17351,7.11264c-2.08115,1.94446 -4.60326,2.91669 -7.573,2.91669z"/><path d="M538.37209,210.52599v104.79615h-18.52329v-104.79615z"/><path d="M583.58295,210.62879c1.45313,-4.07119 7.54628,-2.43819 6.77127,1.81388l-0.51778,2.82353c-0.56121,3.07299 2.86285,5.2977 5.44174,3.53436l2.36845,-1.62016c3.57104,-2.4398 7.5396,2.46328 4.41285,5.44625l-2.07781,1.98077c-2.26155,2.15578 -0.79839,5.96947 2.32501,6.05864l2.86952,0.08184c4.31932,0.1234 4.65003,6.42402 0.36746,6.99859l-2.84614,0.38115c-3.09668,0.41523 -4.15229,4.36074 -1.68029,6.26852l2.27491,1.75245c3.42071,2.6397 -0.01336,7.93111 -3.81824,5.87768l-5.11437,-2.76195c-2.25821,-1.21796 -5.01749,0.31067 -5.18117,2.86918l-2.1012,32.85721c-0.22382,3.49721 4.24916,5.13307 6.33366,2.317l0.4944,-0.66744c2.54215,-3.43241 7.85361,-0.21446 5.98959,3.62816l-12.91452,26.59302c-1.20259,2.47367 -4.65003,2.67277 -6.12655,0.35376l-17.0902,-26.81617c-2.3317,-3.6589 2.7359,-7.46878 5.60543,-4.21175l1.97426,2.24417c2.28493,2.5966 6.55414,0.67846 6.12655,-2.75461l-4.01199,-32.41224c-0.32403,-2.61331 -3.30046,-3.9562 -5.47514,-2.46999l-4.56318,3.12106c-3.5677,2.43993 -7.5396,-2.46331 -4.40951,-5.44608l2.07781,-1.98094c2.25821,-2.15565 0.79505,-5.96921 -2.32835,-6.0584l-2.86618,-0.08184c-4.32265,-0.1236 -4.65337,-6.42415 -0.36746,-6.99853l2.8428,-0.38135c3.09668,-0.4151 4.15563,-4.36084 1.68029,-6.26845l-2.27156,-1.75255c-3.42405,-2.63963 0.01336,-7.93111 3.8149,-5.87755l2.52545,1.36371c2.74927,1.4841 5.92612,-1.08667 5.04421,-4.08411l-0.80841,-2.75411c-1.21596,-4.14744 4.67342,-6.40842 6.54411,-2.51141l1.23934,2.58779c1.35292,2.81644 5.43172,2.60272 6.48065,-0.3396z"/></g></g></svg>