<svg version="1.1" xmlns="http://www.w3.org/2000/svg" xmlns:xlink="http://www.w3.org/1999/xlink" width="46.18662" height="9.91141" viewBox="0,0,46.18662,9.91141"><g transform="translate(-558.70521,-152.16656)"><g fill="#e3e3e3" stroke="none" stroke-miterlimit="10"><path d="M558.70521,161.91212v-9.7075h5.61941v0.79619h-4.73178v3.65462h4.29131v0.79653h-4.29131v4.46016zM568.38568,162.07797c-0.44047,0 -0.8409,-0.08542 -1.20464,-0.25595c-0.36372,-0.17386 -0.65071,-0.42346 -0.86761,-0.74881c-0.21357,-0.3287 -0.32035,-0.72679 -0.32035,-1.19463c0,-0.36005 0.06674,-0.66339 0.20356,-0.90999c0.13347,-0.2466 0.32702,-0.44882 0.57729,-0.60665c0.25027,-0.15817 0.54393,-0.28297 0.88763,-0.3744c0.34037,-0.09176 0.71744,-0.16285 1.12789,-0.21357c0.40711,-0.05039 0.75081,-0.09476 1.03111,-0.13248c0.28698,-0.03805 0.50054,-0.09811 0.65071,-0.18019c0.14682,-0.0821 0.22357,-0.2149 0.22357,-0.39809v-0.17085c0,-0.49588 -0.15017,-0.88629 -0.44715,-1.1706c-0.29365,-0.28764 -0.71744,-0.43147 -1.27138,-0.43147c-0.5239,0 -0.95102,0.11547 -1.28138,0.34604c-0.33036,0.23058 -0.56061,0.50254 -0.69409,0.81521l-0.80087,-0.28897c0.16351,-0.3981 0.39376,-0.71578 0.68407,-0.9527c0.29031,-0.24026 0.614,-0.41245 0.97439,-0.51689c0.36039,-0.10712 0.72745,-0.16085 1.09452,-0.16085c0.2803,0 0.56727,0.03603 0.8676,0.10879c0.30366,0.07274 0.58731,0.19922 0.84425,0.37941c0.26028,0.17686 0.47051,0.42479 0.63068,0.74413c0.16017,0.31601 0.2436,0.71711 0.2436,1.20396v4.94368h-0.84425v-1.15191h-0.05339c-0.1001,0.2149 -0.25027,0.42346 -0.45049,0.62568c-0.20022,0.20222 -0.44715,0.36839 -0.74748,0.49787c-0.30033,0.12948 -0.65404,0.19421 -1.05781,0.19421zM568.49915,161.30546c0.44715,0 0.83758,-0.09944 1.16458,-0.29865c0.33036,-0.19922 0.58397,-0.46284 0.76083,-0.79153c0.18019,-0.33202 0.27029,-0.69675 0.27029,-1.09484v-1.05247c-0.0634,0.06007 -0.17018,0.1138 -0.317,0.16118c-0.14682,0.04738 -0.31701,0.0901 -0.50721,0.12814c-0.1902,0.0347 -0.38041,0.06473 -0.57061,0.08976c-0.1902,0.02536 -0.36039,0.04772 -0.51056,0.06641c-0.41045,0.05072 -0.76415,0.12981 -1.05448,0.23726c-0.29031,0.10745 -0.51388,0.25595 -0.66739,0.44548c-0.1535,0.18653 -0.23359,0.42646 -0.23359,0.72044c0,0.44248 0.16017,0.78518 0.47385,1.02845c0.317,0.24026 0.71411,0.36039 1.19129,0.36039zM578.67348,156.22897l-0.77417,0.21791c-0.07341,-0.21791 -0.18019,-0.41545 -0.32035,-0.59231c-0.14015,-0.1772 -0.32034,-0.31767 -0.54392,-0.42212c-0.22357,-0.10412 -0.49721,-0.15617 -0.82757,-0.15617c-0.49054,0 -0.89763,0.11679 -1.21131,0.35071c-0.317,0.23392 -0.47384,0.53557 -0.47384,0.9053c0,0.31267 0.10678,0.56727 0.32035,0.76316c0.22024,0.19254 0.55393,0.34604 1.00441,0.45983l1.10119,0.26997c0.61066,0.14849 1.06782,0.38408 1.36815,0.70643c0.307,0.32235 0.4605,0.72679 0.4605,1.21331c0,0.41078 -0.11346,0.77585 -0.34037,1.09485c-0.22691,0.31934 -0.54392,0.57061 -0.95436,0.75381c-0.40377,0.18019 -0.87095,0.27029 -1.40485,0.27029c-0.71077,0 -1.29808,-0.15984 -1.75857,-0.47884c-0.46384,-0.32235 -0.75747,-0.78686 -0.88762,-1.39351l0.81088,-0.19922c0.10345,0.43313 0.307,0.76016 0.61066,0.98139c0.307,0.22091 0.71076,0.3317 1.20797,0.3317c0.5606,0 1.00777,-0.1248 1.34145,-0.37441c0.33703,-0.25295 0.50388,-0.56894 0.50388,-0.94802c0,-0.29398 -0.09677,-0.54058 -0.29365,-0.73947c-0.19688,-0.20222 -0.49387,-0.35072 -0.89097,-0.44548l-1.19129,-0.28464c-0.63068,-0.1515 -1.09785,-0.39177 -1.40152,-0.72045c-0.30366,-0.3287 -0.45717,-0.73612 -0.45717,-1.22299c0,-0.4011 0.11012,-0.75349 0.32702,-1.05682c0.22024,-0.30666 0.52057,-0.54658 0.90098,-0.72044c0.38374,-0.17386 0.82088,-0.26062 1.30807,-0.26062c0.66739,0 1.2013,0.1515 1.5984,0.45483c0.40044,0.30032 0.69074,0.71411 0.8676,1.24201zM581.46985,157.36186v4.55026h-0.84425v-9.7075h0.84425v3.5692h0.07341c0.17351,-0.37607 0.43714,-0.67607 0.79419,-0.90065c0.36039,-0.22424 0.81421,-0.33636 1.36481,-0.33636c0.49387,0 0.92433,0.10111 1.29807,0.30333c0.37374,0.20222 0.66405,0.50088 0.87095,0.89565c0.21023,0.39509 0.31367,0.88195 0.31367,1.45991v4.71644h-0.84758v-4.66405c0,-0.60065 -0.16684,-1.07282 -0.50388,-1.41719c-0.33036,-0.34771 -0.78084,-0.52157 -1.34479,-0.52157c-0.39043,0 -0.73412,0.08209 -1.03778,0.24659c-0.30366,0.16418 -0.54392,0.40111 -0.72078,0.71077c-0.17351,0.30666 -0.26029,0.67173 -0.26029,1.09519zM588.41736,161.91212v-7.28054h0.84758v7.28054zM588.84782,153.38022c-0.17351,0 -0.32368,-0.0584 -0.44382,-0.17553c-0.12347,-0.12013 -0.18686,-0.26362 -0.18686,-0.43114c0,-0.16752 0.0634,-0.30966 0.18686,-0.4268c0.12013,-0.12013 0.27029,-0.18019 0.44382,-0.18019c0.17351,0 0.32368,0.06007 0.44715,0.18019c0.12013,0.11712 0.18353,0.25928 0.18353,0.4268c0,0.16752 -0.0634,0.311 -0.18353,0.43114c-0.12347,0.11712 -0.27364,0.17553 -0.44715,0.17553zM594.32708,162.06394c-0.63068,0 -1.18462,-0.15984 -1.66847,-0.47884c-0.48051,-0.31934 -0.8576,-0.76015 -1.12789,-1.32243c-0.27364,-0.56562 -0.41044,-1.21831 -0.41044,-1.95779c0,-0.7458 0.13681,-1.40118 0.41044,-1.96713c0.27029,-0.56862 0.64738,-1.01109 1.12789,-1.3271c0.48386,-0.31902 1.03779,-0.47852 1.66847,-0.47852c0.62735,0 1.18128,0.1595 1.66179,0.47852c0.48051,0.31934 0.85759,0.76149 1.12788,1.3271c0.27697,0.56594 0.41378,1.22132 0.41378,1.96713c0,0.73947 -0.13681,1.39217 -0.40711,1.95779c-0.27364,0.56227 -0.6507,1.00308 -1.13456,1.32243c-0.48051,0.31902 -1.03445,0.47884 -1.66179,0.47884zM594.32708,161.29112c0.50388,0 0.93434,-0.13581 1.28472,-0.40744c0.35037,-0.27196 0.614,-0.63368 0.79419,-1.08551c0.18353,-0.45183 0.27697,-0.94969 0.27697,-1.49328c0,-0.54325 -0.09343,-1.0428 -0.27697,-1.49762c-0.18019,-0.45515 -0.44381,-0.82022 -0.79419,-1.09519c-0.35037,-0.27462 -0.78084,-0.41211 -1.28472,-0.41211c-0.50388,0 -0.93101,0.13748 -1.28472,0.41211c-0.35037,0.27497 -0.61734,0.64003 -0.80087,1.09519c-0.18019,0.45482 -0.2703,0.95437 -0.2703,1.49762c0,0.54359 0.0901,1.04145 0.2703,1.49328c0.18353,0.45183 0.45049,0.81355 0.80087,1.08551c0.35037,0.27163 0.77751,0.40744 1.28472,0.40744zM600.22679,157.36186v4.55026h-0.84425v-7.28054h0.82089v1.14224h0.07341c0.17351,-0.37274 0.43714,-0.67139 0.79754,-0.89597c0.36372,-0.22725 0.81088,-0.34104 1.34812,-0.34104c0.48719,0 0.91766,0.10245 1.28805,0.308c0.37374,0.20222 0.66072,0.50088 0.86761,0.89597c0.2069,0.39477 0.31367,0.87995 0.31367,1.45491v4.71643h-0.84425v-4.66404c0,-0.59731 -0.16685,-1.06982 -0.50389,-1.41719c-0.33036,-0.34771 -0.77751,-0.52156 -1.33477,-0.52156c-0.38374,0 -0.72411,0.08209 -1.02111,0.2466c-0.29698,0.16418 -0.53057,0.4011 -0.70409,0.71077c-0.17351,0.30666 -0.25695,0.67173 -0.25695,1.09519z"/></g></g></svg>