<svg version="1.1" xmlns="http://www.w3.org/2000/svg" xmlns:xlink="http://www.w3.org/1999/xlink" width="71.00148" height="12.5893" viewBox="0,0,71.00148,12.5893"><g transform="translate(-143.33652,-180.90233)"><g fill="#e3e3e3" stroke="none" stroke-miterlimit="10"><path d="M143.33652,181.69853v-0.79619h7.03895v0.79619h-3.07632v8.91131h-0.88629v-8.91131zM154.08348,190.76166c-0.67941,0 -1.26737,-0.15817 -1.76357,-0.47418c-0.49588,-0.31902 -0.87995,-0.75982 -1.15158,-1.32243c-0.26862,-0.56562 -0.4031,-1.21664 -0.4031,-1.95278c0,-0.73313 0.13448,-1.38416 0.4031,-1.95311c0.27163,-0.57195 0.64603,-1.0191 1.12322,-1.34112c0.48051,-0.32569 1.03512,-0.48819 1.6638,-0.48819c0.39509,0 0.77584,0.07242 1.14224,0.21791c0.36673,0.14216 0.69542,0.36173 0.98607,0.65871c0.29398,0.29398 0.52624,0.66538 0.69675,1.11387c0.17051,0.44582 0.25595,0.97339 0.25595,1.58338v0.41712h-5.68781v-0.74413h4.82521c0,-0.46784 -0.09476,-0.88796 -0.28464,-1.26103c-0.18619,-0.37607 -0.44715,-0.67307 -0.78185,-0.89097c-0.33202,-0.21823 -0.71578,-0.32702 -1.15192,-0.32702c-0.4615,0 -0.86728,0.12313 -1.21832,0.36973c-0.35072,0.24627 -0.62568,0.57195 -0.82456,0.97639c-0.19588,0.40444 -0.29565,0.84691 -0.29865,1.3271v0.44548c0,0.57829 0.09944,1.08384 0.29865,1.51697c0.20222,0.4298 0.48819,0.76316 0.85792,1.00008c0.36973,0.23692 0.80721,0.35539 1.31309,0.35539c0.34437,0 0.64603,-0.05372 0.90531,-0.16117c0.26228,-0.10745 0.48184,-0.25128 0.6587,-0.43114c0.18019,-0.18353 0.31602,-0.38408 0.40778,-0.60199l0.80086,0.26061c-0.11045,0.30633 -0.29232,0.58931 -0.54493,0.84859c-0.24961,0.25894 -0.56261,0.4675 -0.93869,0.62568c-0.37274,0.15484 -0.80254,0.23225 -1.28906,0.23225zM161.73943,190.76166c-0.6507,0 -1.21799,-0.16285 -1.70151,-0.48853c-0.48019,-0.32535 -0.85326,-0.77083 -1.11854,-1.33644c-0.26561,-0.56562 -0.39809,-1.21031 -0.39809,-1.93409c0,-0.72979 0.13414,-1.37917 0.40277,-1.94811c0.27163,-0.56862 0.6477,-1.01443 1.12821,-1.33644c0.48019,-0.32569 1.03779,-0.48819 1.67314,-0.48819c0.48653,0 0.92734,0.09476 1.32243,0.2843c0.39509,0.18653 0.72044,0.45015 0.97639,0.79153c0.25928,0.33803 0.42178,0.73313 0.48819,1.18495h-0.85326c-0.08843,-0.41078 -0.30166,-0.76149 -0.63969,-1.05214c-0.33503,-0.29398 -0.76183,-0.44082 -1.28005,-0.44082c-0.46451,0 -0.87528,0.12614 -1.23233,0.37908c-0.35705,0.24961 -0.63669,0.59898 -0.83891,1.04746c-0.19922,0.44547 -0.29865,0.96238 -0.29865,1.55001c0,0.59098 0.09811,1.11388 0.29398,1.56903c0.19588,0.45183 0.47084,0.80587 0.82456,1.06182c0.35705,0.25595 0.77417,0.38374 1.25136,0.38374c0.32235,0 0.61632,-0.06007 0.88161,-0.18019c0.26862,-0.12313 0.4932,-0.29698 0.6734,-0.52122c0.1832,-0.22424 0.30634,-0.49153 0.36941,-0.80121h0.85326c-0.06306,0.43947 -0.21956,0.83123 -0.46918,1.17561c-0.2466,0.34137 -0.56727,0.60999 -0.96204,0.80587c-0.39209,0.19588 -0.84058,0.29398 -1.34646,0.29398zM167.16931,186.05958v4.55026h-0.84391v-9.7075h0.84391v3.5692h0.07575c0.17051,-0.37607 0.43446,-0.67606 0.79152,-0.90064c0.36039,-0.22424 0.81522,-0.33636 1.36515,-0.33636c0.49287,0 0.926,0.10111 1.29874,0.30333c0.37307,0.20222 0.66372,0.50087 0.87228,0.89564c0.20855,0.39509 0.31267,0.88196 0.31267,1.45991v4.71644h-0.84825v-4.66404c0,-0.60065 -0.16752,-1.07283 -0.50254,-1.4172c-0.33169,-0.34771 -0.7805,-0.52156 -1.34612,-0.52156c-0.38876,0 -0.7348,0.0821 -1.03813,0.2466c-0.30333,0.16418 -0.54358,0.4011 -0.72044,0.71076c-0.17386,0.30666 -0.26062,0.67173 -0.26062,1.09519zM174.95106,186.05958v4.55026h-0.84358v-7.28055h0.81988v1.14224h0.07574c0.17085,-0.37274 0.43614,-0.67139 0.79653,-0.89597c0.36339,-0.22725 0.81188,-0.34104 1.34613,-0.34104c0.48987,0 0.91933,0.10245 1.28906,0.308c0.37307,0.20222 0.66205,0.50088 0.8676,0.89597c0.20855,0.39477 0.31267,0.87996 0.31267,1.45491v4.71643h-0.84358v-4.66404c0,-0.59731 -0.16752,-1.06982 -0.50255,-1.41719c-0.33169,-0.34771 -0.77717,-0.52157 -1.33644,-0.52157c-0.38241,0 -0.72212,0.0821 -1.0191,0.2466c-0.29733,0.16418 -0.53257,0.4011 -0.70642,0.71077c-0.17051,0.30666 -0.25595,0.67172 -0.25595,1.09518zM184.66691,190.76166c-0.62901,0 -1.18495,-0.15984 -1.66847,-0.47885c-0.48051,-0.31934 -0.85627,-0.76015 -1.12822,-1.32243c-0.27163,-0.56562 -0.40744,-1.21831 -0.40744,-1.95779c0,-0.7458 0.13581,-1.40118 0.40744,-1.96713c0.27196,-0.56862 0.6477,-1.01109 1.12822,-1.3271c0.48352,-0.31902 1.03946,-0.47852 1.66847,-0.47852c0.62868,0 1.18327,0.1595 1.6638,0.47852c0.48019,0.31934 0.85627,0.76149 1.12789,1.3271c0.27497,0.56594 0.41245,1.22132 0.41245,1.96713c0,0.73947 -0.13582,1.39217 -0.40778,1.95779c-0.27163,0.56227 -0.64937,1.00308 -1.13256,1.32243c-0.48051,0.31902 -1.03512,0.47885 -1.6638,0.47885zM184.66691,189.98882c0.50555,0 0.93367,-0.13581 1.28438,-0.40744c0.35072,-0.27196 0.61633,-0.63368 0.79653,-1.08551c0.1832,-0.45183 0.27463,-0.9497 0.27463,-1.49328c0,-0.54325 -0.09143,-1.04279 -0.27463,-1.49762c-0.18019,-0.45515 -0.44581,-0.82022 -0.79653,-1.09518c-0.35072,-0.27462 -0.77884,-0.41211 -1.28438,-0.41211c-0.50255,0 -0.93068,0.13749 -1.28473,0.41211c-0.35072,0.27497 -0.61767,0.64003 -0.80086,1.09518c-0.18019,0.45482 -0.27029,0.95436 -0.27029,1.49762c0,0.54359 0.0901,1.04146 0.27029,1.49328c0.1832,0.45183 0.45015,0.81355 0.80086,1.08551c0.35105,0.27163 0.77918,0.40744 1.28473,0.40744zM190.56696,180.90234v9.7075h-0.84359v-9.7075zM195.62909,190.76166c-0.62868,0 -1.18494,-0.15984 -1.66846,-0.47885c-0.48019,-0.31934 -0.85626,-0.76015 -1.12789,-1.32243c-0.27196,-0.56562 -0.40777,-1.21831 -0.40777,-1.95779c0,-0.7458 0.13581,-1.40118 0.40777,-1.96713c0.27163,-0.56862 0.6477,-1.01109 1.12789,-1.3271c0.48352,-0.31902 1.03978,-0.47852 1.66846,-0.47852c0.62901,0 1.18362,0.1595 1.6638,0.47852c0.48051,0.31934 0.85627,0.76149 1.12822,1.3271c0.27497,0.56594 0.41245,1.22132 0.41245,1.96713c0,0.73947 -0.13615,1.39217 -0.40778,1.95779c-0.27163,0.56227 -0.64937,1.00308 -1.13289,1.32243c-0.48019,0.31902 -1.03478,0.47885 -1.6638,0.47885zM195.62909,189.98882c0.50588,0 0.93401,-0.13581 1.28473,-0.40744c0.35072,-0.27196 0.616,-0.63368 0.79619,-1.08551c0.1832,-0.45183 0.27496,-0.9497 0.27496,-1.49328c0,-0.54325 -0.09176,-1.04279 -0.27496,-1.49762c-0.18019,-0.45515 -0.44548,-0.82022 -0.79619,-1.09518c-0.35072,-0.27462 -0.77885,-0.41211 -1.28473,-0.41211c-0.50221,0 -0.93034,0.13749 -1.28438,0.41211c-0.35072,0.27497 -0.61768,0.64003 -0.80121,1.09518c-0.17986,0.45482 -0.26996,0.95436 -0.26996,1.49762c0,0.54359 0.0901,1.04146 0.26996,1.49328c0.18353,0.45183 0.45049,0.81355 0.80121,1.08551c0.35072,0.27163 0.77884,0.40744 1.28438,0.40744zM203.46324,193.49162c-0.4962,0 -0.93067,-0.06474 -1.30342,-0.19422c-0.37307,-0.12647 -0.68741,-0.30033 -0.94335,-0.52157c-0.25595,-0.22091 -0.45516,-0.46918 -0.59732,-0.74413l0.69208,-0.45482c0.10444,0.1832 0.24327,0.36339 0.41712,0.54025c0.17686,0.17686 0.4061,0.32402 0.68741,0.44081c0.2843,0.11679 0.63336,0.17553 1.04747,0.17553c0.6447,0 1.16458,-0.16117 1.55935,-0.48352c0.3981,-0.32235 0.59731,-0.82323 0.59731,-1.50263v-1.64011h-0.07575c-0.09811,0.22124 -0.23859,0.44248 -0.42178,0.66372c-0.18353,0.21791 -0.42345,0.39977 -0.72078,0.54493c-0.29366,0.14549 -0.65871,0.21823 -1.09485,0.21823c-0.5813,0 -1.09818,-0.14382 -1.55001,-0.43147c-0.44848,-0.28764 -0.80254,-0.69842 -1.06182,-1.23233c-0.25595,-0.53725 -0.38375,-1.17726 -0.38375,-1.91974c0,-0.73612 0.1248,-1.38417 0.37441,-1.94344c0.25295,-0.55927 0.60532,-0.99541 1.05714,-1.30808c0.45183,-0.31301 0.97807,-0.46918 1.57838,-0.46918c0.44547,0 0.81522,0.07875 1.1092,0.23692c0.29366,0.15484 0.52924,0.34737 0.7061,0.57829c0.18019,0.23058 0.32067,0.45483 0.42178,0.67306h0.08543v-1.38884h0.82489v7.47009c0,0.61633 -0.13114,1.12355 -0.39342,1.52165c-0.26228,0.3981 -0.61934,0.69208 -1.0715,0.88162c-0.45183,0.19287 -0.96538,0.28898 -1.54033,0.28898zM203.40617,189.76125c0.46784,0 0.8676,-0.11212 1.1993,-0.33636c0.33202,-0.22759 0.5863,-0.55293 0.76316,-0.97639c0.17686,-0.42346 0.26561,-0.92766 0.26561,-1.51229c0,-0.56862 -0.08709,-1.07249 -0.26095,-1.51197c-0.17352,-0.44248 -0.42647,-0.78985 -0.75816,-1.04279c-0.3287,-0.25595 -0.7318,-0.38375 -1.20898,-0.38375c-0.48653,0 -0.8973,0.13114 -1.23233,0.39343c-0.3347,0.26228 -0.58764,0.616 -0.75816,1.06148c-0.17085,0.44248 -0.25595,0.93702 -0.25595,1.48361c0,0.55626 0.08676,1.0478 0.26062,1.47426c0.17386,0.42346 0.42813,0.75516 0.76316,0.99541c0.3347,0.23692 0.74247,0.35538 1.22265,0.35538zM209.28987,193.34012c-0.16752,0 -0.32402,-0.01601 -0.46918,-0.04738c-0.14549,-0.0317 -0.26096,-0.06641 -0.34604,-0.10444l0.22759,-0.74413c0.28731,0.08843 0.54325,0.12013 0.76783,0.09476c0.22424,-0.02202 0.42346,-0.12313 0.59698,-0.30333c0.17386,-0.17686 0.3287,-0.44882 0.46451,-0.81522l0.26561,-0.73947l-2.67823,-7.35162h0.91499l2.16134,6.16667h0.06641l2.16134,-6.16667h0.91499l-3.081,8.43246c-0.12981,0.35072 -0.28931,0.64303 -0.47884,0.87695c-0.18954,0.23692 -0.40911,0.41211 -0.65871,0.5259c-0.2466,0.11712 -0.52323,0.17553 -0.82956,0.17553z"/></g></g></svg>