<svg version="1.1" xmlns="http://www.w3.org/2000/svg" xmlns:xlink="http://www.w3.org/1999/xlink" width="393.98219" height="50.31661" viewBox="0,0,393.98219,50.31661"><g transform="translate(-21.68833,-252.5309)"><g fill="#d9d9d9" stroke="none" stroke-miterlimit="10"><path d="M31.50161,252.5309l-6.44115,38.79849h-3.37213l6.44113,-38.79849zM45.67212,291.93556c-2.7154,0 -4.95715,-0.6315 -6.72533,-1.89451c-1.76815,-1.27568 -3.00585,-3.03749 -3.71311,-5.28547c-0.70729,-2.26071 -0.81462,-4.86245 -0.32209,-7.80515c0.49257,-2.9301 1.46506,-5.5318 2.91746,-7.80515c1.45243,-2.28599 3.24585,-4.07307 5.38026,-5.36132c2.13441,-1.30085 4.45198,-1.95126 6.95265,-1.95126c1.5787,0 3.0564,0.29048 4.433,0.87144c1.37667,0.56832 2.54499,1.44609 3.50492,2.63328c0.97226,1.17455 1.64811,2.65855 2.02688,4.45198c0.37877,1.78078 0.36643,3.88996 -0.03801,6.32748l-0.26507,1.66712h-22.73347l0.47363,-2.97431h19.30437c0.31575,-1.86917 0.2274,-3.54893 -0.26507,-5.03923c-0.49247,-1.4903 -1.33236,-2.67119 -2.51968,-3.54263c-1.17455,-0.88407 -2.63328,-1.32613 -4.37619,-1.32613c-1.78078,0 -3.46684,0.49887 -5.05817,1.49661c-1.57873,0.99777 -2.91746,2.29862 -4.01626,3.90259c-1.08613,1.59133 -1.78709,3.29003 -2.10284,5.09608l-0.37887,2.23544c-0.40418,2.4628 -0.35366,4.52776 0.15154,6.19488c0.5052,1.65448 1.42085,2.90486 2.74695,3.75108c1.32613,0.84623 3.02482,1.26934 5.09608,1.26934c1.38928,0 2.64592,-0.21472 3.76996,-0.64417c1.12407,-0.42945 2.10287,-1.00427 2.93643,-1.72413c0.83356,-0.73243 1.50291,-1.53442 2.00811,-2.40585l3.01228,1.04195c-0.64417,1.2252 -1.55342,2.35551 -2.72807,3.39112c-1.16198,1.03561 -2.54492,1.86917 -4.14889,2.50068c-1.59133,0.61883 -3.36581,0.92825 -5.32341,0.92825zM81.29252,262.23049l-0.47346,2.93643h-13.90544l0.49247,-2.93643zM72.88124,255.25892h3.39092l-4.73595,28.47364c-0.20205,1.21243 -0.15171,2.16602 0.15137,2.86054c0.30308,0.68219 0.77054,1.16832 1.40205,1.45873c0.6315,0.27808 1.32603,0.41678 2.0839,0.41678c0.44212,0 0.82089,-0.02534 1.13664,-0.07569c0.32842,-0.06302 0.61883,-0.12637 0.87157,-0.18938l0.24607,3.04983c-0.3661,0.12637 -0.80188,0.24007 -1.30702,0.34109c-0.50514,0.1137 -1.11164,0.17071 -1.81883,0.17071c-1.23767,0 -2.38065,-0.27174 -3.42893,-0.81489c-1.04828,-0.54281 -1.84383,-1.35137 -2.38698,-2.42466c-0.54315,-1.07362 -0.68819,-2.40599 -0.43578,-3.99742zM94.84253,252.5309l-0.53048,3.41002c-0.16404,1.03565 -0.53648,2.14075 -1.11764,3.3153c-0.56815,1.16192 -1.30069,2.29229 -2.1976,3.39105c-0.89658,1.08616 -1.91319,2.03339 -3.04983,2.8417l-1.59143,-1.6103c1.12397,-1.09876 2.12158,-2.32386 2.99315,-3.67523c0.88424,-1.364 1.44606,-2.76592 1.68612,-4.20567l0.56815,-3.46686zM114.05708,268.61483l-3.23955,0.83356c-0.16404,-0.87147 -0.46713,-1.65452 -0.90925,-2.34914c-0.42945,-0.70726 -1.05462,-1.26298 -1.87551,-1.66712c-0.80822,-0.41678 -1.86917,-0.62517 -3.18253,-0.62517c-1.97053,0 -3.669,0.47993 -5.09638,1.43979c-1.42705,0.94722 -2.26061,2.15969 -2.50068,3.63735c-0.20205,1.2377 0.05702,2.24178 0.77688,3.01218c0.73253,0.77041 1.95753,1.37664 3.67533,1.81866l4.24349,1.07986c2.34897,0.6062 4.02243,1.55342 5.02036,2.84167c1.01027,1.28822 1.3577,2.91746 1.04195,4.88769c-0.27774,1.64185 -0.97893,3.09427 -2.1029,4.35728c-1.1113,1.26301 -2.53869,2.25428 -4.2815,2.97414c-1.73014,0.71986 -3.66266,1.07996 -5.79691,1.07996c-2.86711,0 -5.12139,-0.64417 -6.76317,-1.93252c-1.62944,-1.28802 -2.50068,-3.14452 -2.61438,-5.56955l3.39092,-0.75777c0.10103,1.71763 0.68852,3.01842 1.76181,3.90266c1.08629,0.88391 2.61438,1.32603 4.58458,1.32603c2.24828,0 4.13646,-0.51147 5.66454,-1.53442c1.52808,-1.02294 2.40599,-2.28605 2.63338,-3.789c0.21472,-1.18719 -0.00634,-2.17229 -0.66318,-2.95534c-0.64417,-0.78305 -1.74281,-1.364 -3.29623,-1.74291l-4.5279,-1.13668c-2.43733,-0.61883 -4.16146,-1.58503 -5.17174,-2.89852c-0.99794,-1.32609 -1.33236,-2.96164 -1.00427,-4.90663c0.26541,-1.60397 0.93459,-3.01218 2.00821,-4.22461c1.07362,-1.21246 2.43133,-2.15969 4.07311,-2.84167c1.64178,-0.69466 3.43527,-1.04195 5.38013,-1.04195c2.67773,0 4.71728,0.6062 6.11933,1.81866c1.40171,1.19983 2.28595,2.85431 2.65205,4.96348zM142.35543,302.84752c-1.98287,0 -3.68133,-0.25874 -5.09605,-0.77654c-1.41438,-0.50514 -2.5637,-1.19999 -3.44794,-2.0839c-0.87124,-0.88424 -1.50908,-1.87551 -1.91319,-2.97447l3.06883,-1.79982c0.27808,0.73253 0.70119,1.45273 1.26934,2.15992c0.56849,0.70719 1.37037,1.28802 2.40599,1.74281c1.03561,0.46746 2.39332,0.70086 4.07311,0.70086c2.5637,0 4.76763,-0.65018 6.61146,-1.9512c1.84417,-1.28835 2.99348,-3.28356 3.44794,-5.98662l1.02328,-6.55465h-0.30342c-0.51781,0.88411 -1.21233,1.76801 -2.0839,2.65225c-0.87124,0.87157 -1.9512,1.59777 -3.23921,2.17859c-1.27568,0.58082 -2.78509,0.87157 -4.5279,0.87157c-2.32396,0 -4.29417,-0.57482 -5.9106,-1.72413c-1.61677,-1.14931 -2.75975,-2.79109 -3.42893,-4.9255c-0.66952,-2.14705 -0.75154,-4.70458 -0.2464,-7.67255c0.4798,-2.9427 1.40205,-5.5318 2.76575,-7.76724c1.37671,-2.23547 3.06917,-3.97835 5.07738,-5.22869c2.02055,-1.25034 4.23081,-1.87551 6.63047,-1.87551c1.78082,0 3.20787,0.31572 4.2815,0.94722c1.07362,0.61883 1.88818,1.38924 2.444,2.31123c0.56815,0.92195 0.9786,1.81866 1.23133,2.69013h0.34076l0.90958,-5.55077h3.29623l-4.92567,29.85644c-0.41678,2.463 -1.27535,4.48989 -2.57637,6.08132c-1.30069,1.59143 -2.91746,2.76608 -4.84965,3.52362c-1.91985,0.77054 -4.02909,1.15565 -6.32772,1.15565zM144.40165,287.93814c1.86917,0 3.54896,-0.44812 5.03903,-1.34503c1.50307,-0.90925 2.75975,-2.2038 3.77002,-3.88355c1.02294,-1.69239 1.72413,-3.71314 2.1029,-6.06225c0.37877,-2.27335 0.3601,-4.2878 -0.05668,-6.04331c-0.40444,-1.76818 -1.19366,-3.15742 -2.36831,-4.1678c-1.16198,-1.02301 -2.69006,-1.53452 -4.58458,-1.53452c-1.95753,0 -3.68767,0.52414 -5.19074,1.57239c-1.4904,1.04828 -2.72174,2.4628 -3.694,4.24359c-0.95993,1.76815 -1.62311,3.74468 -1.98921,5.92964c-0.35376,2.2228 -0.34109,4.18674 0.03768,5.89173c0.39177,1.69239 1.16198,3.01852 2.31129,3.97838c1.14931,0.94726 2.69006,1.42072 4.62259,1.42072zM176.80144,291.93556c-2.7154,0 -4.95701,-0.6315 -6.72516,-1.89451c-1.76815,-1.27568 -3.00615,-3.03749 -3.71334,-5.28547c-0.70719,-2.26071 -0.81455,-4.86245 -0.32209,-7.80515c0.4928,-2.9301 1.46506,-5.5318 2.91746,-7.80515c1.45239,-2.28599 3.24588,-4.07307 5.38046,-5.36132c2.13425,-1.30085 4.45187,-1.95126 6.95255,-1.95126c1.57876,0 3.0565,0.29048 4.43287,0.87144c1.37671,0.56832 2.54502,1.44609 3.50495,2.63328c0.97226,1.17455 1.64811,2.65855 2.02688,4.45198c0.3791,1.78078 0.36643,3.88996 -0.03768,6.32748l-0.26541,1.66712h-22.7335l0.4738,-2.97431h19.30457c0.31575,-1.86917 0.22706,-3.54893 -0.26541,-5.03923c-0.49247,-1.4903 -1.33236,-2.67119 -2.51968,-3.54263c-1.17432,-0.88407 -2.63305,-1.32613 -4.37619,-1.32613c-1.78082,0 -3.46661,0.49887 -5.05804,1.49661c-1.57876,0.99777 -2.91746,2.29862 -4.01642,3.90259c-1.08596,1.59133 -1.78682,3.29003 -2.10257,5.09608l-0.3791,2.23544c-0.40411,2.4628 -0.35343,4.52776 0.15171,6.19488c0.50514,1.65448 1.42072,2.90486 2.74675,3.75108c1.32636,0.84623 3.02482,1.26934 5.09605,1.26934c1.38938,0 2.64605,-0.21472 3.77002,-0.64417c1.12431,-0.42945 2.1029,-1.00427 2.93646,-1.72413c0.83356,-0.73243 1.50307,-1.53442 2.00821,-2.40585l3.01215,1.04195c-0.64417,1.2252 -1.55342,2.35551 -2.72807,3.39112c-1.16198,1.03561 -2.54469,1.86917 -4.14879,2.50068c-1.59143,0.61883 -3.36591,0.92825 -5.32344,0.92825zM212.42178,262.23049l-0.47346,2.93643h-13.90544l0.4928,-2.93643zM204.0105,255.25892h3.39125l-4.73629,28.47364c-0.20205,1.21243 -0.15137,2.16602 0.15171,2.86054c0.30308,0.68219 0.77021,1.16832 1.40171,1.45873c0.6315,0.27808 1.32603,0.41678 2.0839,0.41678c0.44212,0 0.82089,-0.02534 1.13664,-0.07569c0.32842,-0.06302 0.61883,-0.12637 0.87157,-0.18938l0.2464,3.04983c-0.36643,0.12637 -0.80222,0.24007 -1.30735,0.34109c-0.50514,0.1137 -1.1113,0.17071 -1.81849,0.17071c-1.238,0 -2.38098,-0.27174 -3.42926,-0.81489c-1.04828,-0.54281 -1.84383,-1.35137 -2.38698,-2.42466c-0.54281,-1.07362 -0.68819,-2.40599 -0.43545,-3.99742zM253.57428,268.61483l-3.23955,0.83356c-0.16438,-0.87147 -0.46746,-1.65452 -0.90925,-2.34914c-0.42945,-0.70726 -1.05462,-1.26298 -1.87551,-1.66712c-0.80855,-0.41678 -1.86951,-0.62517 -3.18286,-0.62517c-1.9702,0 -3.669,0.47993 -5.09605,1.43979c-1.42705,0.94722 -2.26061,2.15969 -2.50068,3.63735c-0.20205,1.2377 0.05668,2.24178 0.77688,3.01218c0.7322,0.77041 1.95753,1.37664 3.675,1.81866l4.24382,1.07986c2.34897,0.6062 4.02243,1.55342 5.02003,2.84167c1.01061,1.28822 1.3577,2.91746 1.04195,4.88769c-0.27774,1.64185 -0.9786,3.09427 -2.10257,4.35728c-1.11164,1.26301 -2.53869,2.25428 -4.2815,2.97414c-1.73047,0.71986 -3.66266,1.07996 -5.79724,1.07996c-2.86678,0 -5.12139,-0.64417 -6.76317,-1.93252c-1.62911,-1.28802 -2.50068,-3.14452 -2.61438,-5.56955l3.39125,-0.75777c0.10103,1.71763 0.68819,3.01842 1.76181,3.90266c1.08596,0.88391 2.61438,1.32603 4.58458,1.32603c2.24794,0 4.13612,-0.51147 5.6642,-1.53442c1.52841,-1.02294 2.40599,-2.28605 2.63338,-3.789c0.21472,-1.18719 -0.00634,-2.17229 -0.66285,-2.95534c-0.64417,-0.78305 -1.74314,-1.364 -3.29656,-1.74291l-4.52756,-1.13668c-2.43766,-0.61883 -4.16146,-1.58503 -5.17207,-2.89852c-0.9976,-1.32609 -1.33236,-2.96164 -1.00394,-4.90663c0.26507,-1.60397 0.93459,-3.01218 2.00821,-4.22461c1.07329,-1.21246 2.43099,-2.15969 4.07311,-2.84167c1.64178,-0.69466 3.43527,-1.04195 5.38013,-1.04195c2.67739,0 4.71728,0.6062 6.11899,1.81866c1.40205,1.19983 2.28595,2.85431 2.65239,4.96348zM273.8968,262.23049l-0.47346,2.93643h-13.90544l0.4928,-2.93643zM265.48552,255.25892h3.39125l-4.73629,28.47364c-0.20205,1.21243 -0.15137,2.16602 0.15171,2.86054c0.30308,0.68219 0.77021,1.16832 1.40171,1.45873c0.6315,0.27808 1.32603,0.41678 2.0839,0.41678c0.44212,0 0.82089,-0.02534 1.13664,-0.07569c0.32842,-0.06302 0.61883,-0.12637 0.87157,-0.18938l0.2464,3.04983c-0.36643,0.12637 -0.80222,0.24007 -1.30735,0.34109c-0.50514,0.1137 -1.1113,0.17071 -1.81849,0.17071c-1.238,0 -2.38098,-0.27174 -3.42926,-0.81489c-1.04828,-0.54281 -1.84383,-1.35137 -2.38698,-2.42466c-0.54281,-1.07362 -0.68819,-2.40599 -0.43545,-3.99742zM284.75675,291.99224c-1.75548,0 -3.30256,-0.34076 -4.64126,-1.02294c-1.3387,-0.69452 -2.33663,-1.69246 -2.99315,-2.99315c-0.64417,-1.31336 -0.82089,-2.90486 -0.53048,-4.77403c0.2524,-1.43979 0.73253,-2.65225 1.43972,-3.63735c0.71986,-0.98513 1.62911,-1.79342 2.72807,-2.42492c1.09863,-0.64411 2.36164,-1.14928 3.78869,-1.51554c1.42739,-0.36627 2.98081,-0.64411 4.6606,-0.83356c1.64178,-0.20209 3.04349,-0.3789 4.20547,-0.53044c1.16198,-0.15157 2.06523,-0.39154 2.70907,-0.7199c0.64417,-0.32839 1.02928,-0.85883 1.15565,-1.59133l0.1137,-0.68202c0.32842,-1.98287 0.02534,-3.54263 -0.90925,-4.6793c-0.93459,-1.14928 -2.50068,-1.72393 -4.69828,-1.72393c-2.09657,0 -3.91506,0.46729 -5.45615,1.40188c-1.52808,0.92198 -2.66472,2.00181 -3.40993,3.23951l-2.99315,-1.15561c0.90925,-1.59133 2.02688,-2.86061 3.35324,-3.80783c1.32603,-0.95986 2.74675,-1.64818 4.26249,-2.06496c1.51541,-0.42942 3.01215,-0.64411 4.48989,-0.64411c1.1113,0 2.24161,0.14524 3.39092,0.43572c1.14931,0.29048 2.17859,0.79565 3.08784,1.51554c0.92225,0.70726 1.59777,1.69869 2.02722,2.97431c0.44212,1.26298 0.50514,2.86694 0.18938,4.81191l-3.29623,19.75923h-3.37225l0.77688,-4.60358h-0.20839c-0.53048,0.8589 -1.26301,1.69246 -2.1976,2.50068c-0.92192,0.80822 -2.02722,1.4714 -3.31523,1.98921c-1.28835,0.51781 -2.74074,0.77654 -4.35752,0.77654zM285.60931,288.9044c1.79349,0 3.41626,-0.39777 4.86899,-1.19366c1.46473,-0.79555 2.66472,-1.85007 3.59931,-3.16356c0.94726,-1.32613 1.55342,-2.78486 1.81883,-4.37619l0.70086,-4.20571c-0.27808,0.23997 -0.73253,0.45469 -1.36404,0.64411c-0.61883,0.18945 -1.31969,0.35996 -2.1029,0.51151c-0.77054,0.13894 -1.54709,0.2589 -2.3303,0.35996c-0.77021,0.10103 -1.45239,0.18945 -2.04589,0.26521c-1.67979,0.20209 -3.14485,0.51784 -4.39519,0.94722c-1.23767,0.42942 -2.22894,1.02301 -2.97414,1.78078c-0.7452,0.74517 -1.21266,1.70503 -1.40205,2.87958c-0.29041,1.76815 0.09469,3.13842 1.15565,4.11102c1.07362,0.95993 2.56403,1.43972 4.47088,1.43972zM306.40095,291.32939l4.84998,-29.0989h3.27722l-0.75787,4.47091h0.2464c0.80822,-1.46503 2.01455,-2.64592 3.61832,-3.54263c1.61677,-0.90931 3.34057,-1.364 5.17207,-1.364c0.27774,0 0.58716,0.00634 0.92825,0.01894c0.34109,0 0.62517,0.01264 0.85256,0.03791l-0.58749,3.42896c-0.15137,-0.02527 -0.41678,-0.06315 -0.79555,-0.11366c-0.36643,-0.05055 -0.77688,-0.07579 -1.23133,-0.07579c-1.51574,0 -2.91746,0.32205 -4.20581,0.96616c-1.27568,0.6315 -2.34897,1.50924 -3.22054,2.63328c-0.8589,1.12407 -1.41438,2.40595 -1.66712,3.84574l-3.10684,18.79307zM343.60339,262.23049l-0.4738,2.93643h-13.90511l0.49247,-2.93643zM335.1921,255.25892h3.39092l-4.73595,28.47364c-0.20239,1.21243 -0.15171,2.16602 0.15137,2.86054c0.30308,0.68219 0.77054,1.16832 1.40205,1.45873c0.6315,0.27808 1.32603,0.41678 2.0839,0.41678c0.44179,0 0.82089,-0.02534 1.13664,-0.07569c0.32842,-0.06302 0.61883,-0.12637 0.87124,-0.18938l0.2464,3.04983c-0.3661,0.12637 -0.80188,0.24007 -1.30702,0.34109c-0.50547,0.1137 -1.11164,0.17071 -1.81883,0.17071c-1.23767,0 -2.38065,-0.27174 -3.42893,-0.81489c-1.04828,-0.54281 -1.84383,-1.35137 -2.38698,-2.42466c-0.54315,-1.07362 -0.68852,-2.40599 -0.43578,-3.99742zM357.78957,291.93556c-2.71674,0 -4.95868,-0.6315 -6.72683,-1.89451c-1.76815,-1.27568 -3.00582,-3.03749 -3.71301,-5.28547c-0.70753,-2.26071 -0.81455,-4.86245 -0.32209,-7.80515c0.49247,-2.9301 1.46506,-5.5318 2.91746,-7.80515c1.45239,-2.28599 3.24588,-4.07307 5.38046,-5.36132c2.13391,-1.30085 4.45121,-1.95126 6.95189,-1.95126c1.58043,0 3.0575,0.29048 4.43454,0.87144c1.37704,0.56832 2.54402,1.44609 3.50428,2.63328c0.97026,1.17455 1.64711,2.65855 2.02722,4.45198c0.37677,1.78078 0.36677,3.88996 -0.04001,6.32748l-0.2634,1.66712h-22.73384l0.47346,-2.97431h19.30624c0.31342,-1.86917 0.22673,-3.54893 -0.26674,-5.03923c-0.49347,-1.4903 -1.3337,-2.67119 -2.52068,-3.54263c-1.17365,-0.88407 -2.63071,-1.32613 -4.37452,-1.32613c-1.78048,0 -3.46761,0.49887 -5.05804,1.49661c-1.58043,0.99777 -2.91846,2.29862 -4.01709,3.90259c-1.08629,1.59133 -1.78715,3.29003 -2.1029,5.09608l-0.37877,2.23544c-0.40411,2.4628 -0.35376,4.52776 0.15137,6.19488c0.50514,1.65448 1.42105,2.90486 2.74708,3.75108c1.32603,0.84623 3.02349,1.26934 5.09738,1.26934c1.38704,0 2.64405,-0.21472 3.76769,-0.64417c1.12364,-0.42945 2.1039,-1.00427 2.93746,-1.72413c0.83356,-0.73243 1.50374,-1.53442 2.00721,-2.40585l3.01415,1.04195c-0.64684,1.2252 -1.55376,2.35551 -2.73074,3.39112c-1.16031,1.03561 -2.54402,1.86917 -4.14779,2.50068c-1.59043,0.61883 -3.36425,0.92825 -5.32144,0.92825zM387.51764,291.93556c-2.38731,0 -4.37785,-0.6315 -5.96829,-1.89451c-1.59043,-1.26301 -2.70407,-3.02482 -3.33424,-5.28547c-0.63017,-2.26071 -0.70019,-4.89403 -0.21006,-7.89988c0.5068,-2.99325 1.44706,-5.61389 2.8241,-7.862c1.39038,-2.26071 3.0875,-4.01622 5.09472,-5.26656c2.02388,-1.26298 4.22781,-1.89445 6.61179,-1.89445c1.78382,0 3.2042,0.31572 4.26449,0.94722c1.07362,0.61883 1.88718,1.38924 2.444,2.31123c0.55348,0.92195 0.95359,1.81866 1.19366,2.69013h0.30342l2.53736,-15.25036h3.39092l-6.44175,38.79849h-3.27756l0.91025,-5.39913h-0.41678c-0.54348,0.88391 -1.25701,1.79315 -2.14058,2.72774c-0.87024,0.92225 -1.94386,1.69879 -3.22087,2.3303c-1.27701,0.6315 -2.79743,0.94726 -4.56457,0.94726zM388.2545,288.84772c1.88384,0 3.58097,-0.51181 5.09805,-1.53475c1.52708,-1.03561 2.80409,-2.45637 3.82437,-4.26242c1.03695,-1.81866 1.74381,-3.90256 2.12391,-6.2517c0.39011,-2.32386 0.38344,-4.37619 -0.02001,-6.15697c-0.40344,-1.79342 -1.18699,-3.1953 -2.3473,-4.20567c-1.16365,-1.02301 -2.6974,-1.53452 -4.60458,-1.53452c-1.93386,0 -3.65099,0.53044 -5.15473,1.59133c-1.50041,1.04828 -2.74408,2.4691 -3.73101,4.26252c-0.9736,1.79342 -1.64711,3.80787 -2.02722,6.04331c-0.36677,2.26071 -0.36677,4.30043 0,6.11909c0.36677,1.81866 1.11364,3.26472 2.23727,4.33834c1.13698,1.06095 2.67072,1.59143 4.60125,1.59143zM412.88452,291.61347c-0.76021,0 -1.39705,-0.26507 -1.91385,-0.79555c-0.5068,-0.53048 -0.75687,-1.17465 -0.75687,-1.93252c0,-0.75787 0.27674,-1.39538 0.83356,-1.91319c0.55348,-0.51781 1.20366,-0.77688 1.95053,-0.77688c0.74354,0 1.38371,0.26507 1.91385,0.79555c0.53014,0.53048 0.78355,1.16198 0.75687,1.89451c-0.01334,0.50514 -0.15337,0.96626 -0.41678,1.38304c-0.2534,0.40411 -0.58683,0.73253 -1.00361,0.98493c-0.40344,0.24007 -0.86023,0.3601 -1.3637,0.3601z"/></g></g></svg>