<svg version="1.1" xmlns="http://www.w3.org/2000/svg" xmlns:xlink="http://www.w3.org/1999/xlink" width="56.11495" height="110.55765" viewBox="0,0,56.11495,110.55765"><g transform="translate(-299.94253,-103.22117)"><g fill-opacity="0.75" fill="#ffffff" stroke="none" stroke-miterlimit="10"><path d="M331.04948,105.56604c1.45313,-4.07119 7.54628,-2.43819 6.77127,1.81388l-0.51778,2.82353c-0.56121,3.07299 2.86285,5.2977 5.44174,3.53436l2.36845,-1.62016c3.57104,-2.4398 7.5396,2.46328 4.41285,5.44625l-2.07781,1.98077c-2.26155,2.15578 -0.79839,5.96947 2.32501,6.05864l2.86952,0.08184c4.31932,0.1234 4.65003,6.42402 0.36746,6.99859l-2.84614,0.38115c-3.09668,0.41523 -4.15229,4.36074 -1.68029,6.26852l2.27491,1.75245c3.42071,2.6397 -0.01336,7.93111 -3.81824,5.87768l-5.11437,-2.76195c-2.25821,-1.21796 -5.01749,0.31067 -5.18117,2.86918l-2.1012,32.85721c-0.22382,3.49721 4.24916,5.13307 6.33366,2.317l0.4944,-0.66744c2.54215,-3.43241 7.85361,-0.21446 5.98959,3.62816l-12.91452,26.59302c-1.20259,2.47367 -4.65003,2.67277 -6.12655,0.35376l-17.0902,-26.81617c-2.3317,-3.6589 2.7359,-7.46878 5.60543,-4.21175l1.97426,2.24417c2.28493,2.5966 6.55414,0.67846 6.12655,-2.75461l-4.01199,-32.41224c-0.32403,-2.61331 -3.30046,-3.9562 -5.47514,-2.46999l-4.56318,3.12106c-3.5677,2.43993 -7.5396,-2.46331 -4.40951,-5.44608l2.07781,-1.98094c2.25821,-2.15565 0.79505,-5.96921 -2.32835,-6.0584l-2.86618,-0.08184c-4.32265,-0.1236 -4.65337,-6.42415 -0.36746,-6.99853l2.8428,-0.38135c3.09668,-0.4151 4.15563,-4.36084 1.68029,-6.26845l-2.27156,-1.75255c-3.42405,-2.63963 0.01336,-7.93111 3.8149,-5.87755l2.52545,1.36371c2.74927,1.4841 5.92612,-1.08667 5.04421,-4.08411l-0.80841,-2.75411c-1.21596,-4.14744 4.67342,-6.40842 6.54411,-2.51141l1.23934,2.58779c1.35292,2.81644 5.43172,2.60272 6.48065,-0.3396z"/></g></g></svg>