<svg version="1.1" xmlns="http://www.w3.org/2000/svg" xmlns:xlink="http://www.w3.org/1999/xlink" width="105" height="31.5" viewBox="0,0,105,31.5"><g transform="translate(-525.1982,-265.10961)"><g stroke-miterlimit="10"><g><path d="M534.1982,295.60961c-4.41828,0 -8,-3.58172 -8,-8v-13.5c0,-4.41828 3.58172,-8 8,-8h87c4.41828,0 8,3.58172 8,8v13.5c0,4.41828 -3.58172,8 -8,8z" fill="#bb363f" stroke="none" stroke-width="1"/><path d="M534.1982,294.60961c-3.86599,0 -7,-3.13401 -7,-7v-13.5c0,-3.86599 3.13401,-7 7,-7h87c3.86599,0 7,3.13401 7,7v13.5c0,3.86599 -3.13401,7 -7,7z" fill="none" stroke="#191919" stroke-width="4"/></g><path d="M572.40786,276.01932l-1.58394,9.54082h-1.53734l-3.41477,-6.49873h-0.07451l-1.08546,6.49873h-1.72834l1.58394,-9.54082h1.54663l3.41009,6.50342h0.08852l1.07614,-6.50342zM575.78184,285.6999c-0.71742,0 -1.31063,-0.14909 -1.77959,-0.44723c-0.46896,-0.30125 -0.79819,-0.72675 -0.98762,-1.27647c-0.18636,-0.55279 -0.21741,-1.20346 -0.09316,-1.95194c0.12111,-0.73604 0.368,-1.38207 0.74069,-1.93797c0.37272,-0.55904 0.83857,-0.99384 1.39761,-1.30441c0.56212,-0.31369 1.18327,-0.47053 1.86359,-0.47053c0.4407,0 0.84622,0.07143 1.21586,0.2143c0.3693,0.13976 0.68155,0.35714 0.93641,0.65221c0.25451,0.29503 0.43011,0.67083 0.52611,1.12738c0.09634,0.45345 0.0919,0.99384 -0.01367,1.62117l-0.07926,0.51713h-5.86993l0.18168,-1.13671h4.24862c0.05603,-0.32301 0.03724,-0.61029 -0.05603,-0.86183c-0.09292,-0.25469 -0.24837,-0.45498 -0.46564,-0.60096c-0.21762,-0.14598 -0.48921,-0.21895 -0.81547,-0.21895c-0.33217,0 -0.64274,0.08541 -0.93159,0.25622c-0.28571,0.16771 -0.52642,0.38509 -0.72207,0.65221c-0.19565,0.26709 -0.3199,0.54815 -0.37268,0.84318l-0.19101,1.09014c-0.06833,0.44719 -0.05278,0.81212 0.0466,1.09475c0.09938,0.28263 0.2733,0.49072 0.52174,0.62426c0.24847,0.13354 0.56215,0.2003 0.94106,0.2003c0.24847,0 0.47828,-0.03416 0.68951,-0.10249c0.21113,-0.06833 0.39902,-0.17082 0.56369,-0.30747c0.16774,-0.13976 0.30747,-0.31058 0.41918,-0.51245l1.54212,0.17703c-0.17082,0.41617 -0.42089,0.77953 -0.75022,1.09011c-0.32899,0.30747 -0.72357,0.54661 -1.18307,0.71742c-0.45676,0.16771 -0.96442,0.25158 -1.52347,0.25158zM582.83972,278.40452l1.0061,2.64145l1.90527,-2.64145h1.78434l-2.7532,3.57783l1.59781,3.57779h-1.77477l-1.08536,-2.5762l-1.92885,2.5762h-1.78878l2.77643,-3.57779l-1.52811,-3.57783zM592.41289,278.40452l-0.21864,1.30441h-4.10913l0.21454,-1.30441zM589.59444,276.69018h1.68663l-1.11816,6.71769c-0.03416,0.22671 -0.02801,0.40063 0.01879,0.52177c0.04954,0.118 0.12879,0.19876 0.23743,0.24225c0.11171,0.04346 0.23777,0.06522 0.3775,0.06522c0.10249,0 0.19849,-0.00779 0.28868,-0.0233c0.09019,-0.01865 0.16159,-0.03263 0.2142,-0.04192l0.07482,1.31839c-0.10249,0.03105 -0.24085,0.06522 -0.41474,0.10249c-0.17082,0.03724 -0.37579,0.059 -0.61493,0.06522c-0.42875,0.00929 -0.80147,-0.05592 -1.11816,-0.19569c-0.31362,-0.14284 -0.54353,-0.36182 -0.68941,-0.65685c-0.1428,-0.29814 -0.1756,-0.67083 -0.09771,-1.11805z" fill="#d9d9d9" stroke="none" stroke-width="1"/></g></g></svg>