<svg version="1.1" xmlns="http://www.w3.org/2000/svg" xmlns:xlink="http://www.w3.org/1999/xlink" width="45.64339" height="12.7221" viewBox="0,0,45.64339,12.7221"><g transform="translate(-35.37138,-73.98735)"><g fill="#e3e3e3" stroke="none" stroke-miterlimit="10"><path d="M42.5238,77.15376c-0.08843,-0.32235 -0.21791,-0.62401 -0.38842,-0.90531c-0.17085,-0.2843 -0.38241,-0.53257 -0.63536,-0.74413c-0.2496,-0.2149 -0.53858,-0.38241 -0.86728,-0.50255c-0.32569,-0.12013 -0.68908,-0.18019 -1.09018,-0.18019c-0.63201,0 -1.19763,0.16452 -1.69683,0.4932c-0.49954,0.32835 -0.8943,0.80254 -1.18529,1.42187c-0.28731,0.61933 -0.43114,1.36515 -0.43114,2.23743c0,0.86894 0.14516,1.61308 0.43614,2.23241c0.29065,0.61933 0.68875,1.09485 1.1943,1.42654c0.50888,0.32869 1.09018,0.4932 1.74422,0.4932c0.59731,0 1.12521,-0.13281 1.58338,-0.3981c0.45816,-0.26562 0.81522,-0.64469 1.07116,-1.13789c0.25928,-0.49287 0.38541,-1.07883 0.37908,-1.75823l0.28464,0.08976h-3.10969v-0.79619h3.68799v0.79619c0,0.82823 -0.16752,1.54367 -0.50255,2.14733c-0.33503,0.60366 -0.79486,1.06982 -1.37949,1.39818c-0.5843,0.32869 -1.25602,0.4932 -2.01452,0.4932c-0.84659,0 -1.58772,-0.20389 -2.22273,-0.61166c-0.63536,-0.41078 -1.12989,-0.98907 -1.4836,-1.73488c-0.35105,-0.74881 -0.52624,-1.62876 -0.52624,-2.63986c0,-0.76183 0.10111,-1.4489 0.30333,-2.0619c0.20222,-0.61332 0.4882,-1.13789 0.85793,-1.5737c0.37273,-0.43614 0.81355,-0.7695 1.32243,-1.00041c0.50888,-0.23359 1.07116,-0.35071 1.6875,-0.35071c0.5309,0 1.01577,0.08375 1.45524,0.25127c0.44215,0.16752 0.8309,0.3981 1.16593,0.69208c0.33803,0.29065 0.61467,0.62735 0.82956,1.00976c0.21791,0.37908 0.36473,0.78351 0.44081,1.21331zM47.55891,83.9935c-0.43914,0 -0.84058,-0.08543 -1.20396,-0.25595c-0.36339,-0.17385 -0.65237,-0.42346 -0.86728,-0.74881c-0.2149,-0.32869 -0.32235,-0.72679 -0.32235,-1.19462c0,-0.36005 0.06807,-0.66338 0.20389,-0.90998c0.13581,-0.2466 0.32869,-0.44882 0.5783,-0.60665c0.2496,-0.15817 0.54493,-0.28297 0.88629,-0.3744c0.34137,-0.09176 0.71744,-0.16284 1.12822,-0.21357c0.40745,-0.05039 0.75181,-0.09476 1.03311,-0.13248c0.28464,-0.03804 0.50088,-0.09811 0.64937,-0.18019c0.14849,-0.08209 0.22291,-0.2149 0.22291,-0.3981v-0.17085c0,-0.49587 -0.14849,-0.88629 -0.44548,-1.1706c-0.29398,-0.28765 -0.71744,-0.43146 -1.27037,-0.43146c-0.52457,0 -0.9527,0.11546 -1.28473,0.34604c-0.32835,0.23059 -0.55927,0.50255 -0.69175,0.81522l-0.8012,-0.28898c0.16418,-0.3981 0.39176,-0.71578 0.68241,-0.9527c0.29098,-0.24026 0.61633,-0.41245 0.97672,-0.51689c0.36005,-0.10712 0.72512,-0.16085 1.09485,-0.16085c0.27797,0 0.56728,0.03603 0.86728,0.10879c0.30333,0.07274 0.58463,0.19922 0.84391,0.37941c0.25894,0.17686 0.46918,0.42479 0.63035,0.74413c0.16117,0.31601 0.2416,0.71711 0.2416,1.20396v4.94368h-0.84358v-1.15192h-0.05206c-0.10111,0.2149 -0.25127,0.42346 -0.45049,0.62568c-0.19888,0.20222 -0.44882,0.3684 -0.74881,0.49787c-0.30033,0.12948 -0.6527,0.19421 -1.05714,0.19421zM47.67269,83.22099c0.44882,0 0.83758,-0.09944 1.16593,-0.29866c0.32869,-0.19922 0.58163,-0.46283 0.75849,-0.79153c0.18019,-0.33202 0.27029,-0.69675 0.27029,-1.09485v-1.05247c-0.06341,0.06006 -0.16918,0.11379 -0.31767,0.16117c-0.14516,0.04738 -0.31434,0.0901 -0.50721,0.12814c-0.18954,0.0347 -0.37908,0.06474 -0.56862,0.08976c-0.18954,0.02536 -0.36039,0.04772 -0.51189,0.06641c-0.41078,0.05072 -0.76183,0.1298 -1.05247,0.23726c-0.29065,0.10745 -0.51356,0.25595 -0.66839,0.44548c-0.15484,0.18654 -0.23225,0.42646 -0.23225,0.72044c0,0.44247 0.15817,0.78518 0.47418,1.02845c0.31601,0.24026 0.71244,0.36039 1.18962,0.36039zM52.95541,83.82765v-7.28055h0.82022v1.11854h0.07575c0.14516,-0.37608 0.38709,-0.67139 0.72512,-0.88629c0.34137,-0.21823 0.75048,-0.32702 1.22767,-0.32702c0.50255,0 0.91498,0.11847 1.237,0.35539c0.32569,0.23392 0.56895,0.55627 0.73012,0.96704h0.06173c0.16418,-0.40444 0.43114,-0.72546 0.80087,-0.96238c0.37307,-0.23993 0.8249,-0.36005 1.3558,-0.36005c0.67606,0 1.21031,0.21323 1.60207,0.63969c0.39176,0.42346 0.58764,1.04279 0.58764,1.85835v4.87727h-0.84358v-4.87727c0,-0.57529 -0.14716,-1.00676 -0.44081,-1.29406c-0.29398,-0.28765 -0.68107,-0.43146 -1.16126,-0.43146c-0.55627,0 -0.9844,0.17051 -1.28473,0.51189c-0.29999,0.34137 -0.45015,0.77417 -0.45015,1.29874v4.79219h-0.8626v-4.95336c0,-0.49287 -0.13748,-0.89097 -0.41245,-1.1943c-0.27497,-0.30333 -0.66205,-0.45515 -1.16126,-0.45515c-0.33503,0 -0.63703,0.08209 -0.90531,0.2466c-0.26562,0.16418 -0.47585,0.39342 -0.63068,0.68707c-0.1515,0.29098 -0.22724,0.62568 -0.22724,1.00509v4.66404zM64.42249,83.82765v-7.28055h0.84859v7.28055zM64.85395,75.29574c-0.17385,0 -0.32235,-0.05839 -0.44548,-0.17553c-0.12313,-0.12013 -0.18486,-0.26362 -0.18486,-0.43114c0,-0.16752 0.06173,-0.30967 0.18486,-0.4268c0.12313,-0.12013 0.27162,-0.18019 0.44548,-0.18019c0.17385,0 0.32235,0.06006 0.44548,0.18019c0.12347,0.11712 0.18486,0.25928 0.18486,0.4268c0,0.16752 -0.0614,0.311 -0.18486,0.43114c-0.12313,0.11712 -0.27162,0.17553 -0.44548,0.17553zM68.34607,79.27739v4.55026h-0.84358v-7.28055h0.81988v1.14224h0.07609c0.17051,-0.37273 0.4358,-0.67139 0.79619,-0.89597c0.36339,-0.22724 0.81221,-0.34104 1.34612,-0.34104c0.48987,0 0.91966,0.10244 1.2894,0.30799c0.37273,0.20222 0.66205,0.50088 0.86728,0.89597c0.20856,0.39476 0.31301,0.87996 0.31301,1.45491v4.71644h-0.84391v-4.66404c0,-0.59731 -0.16752,-1.06982 -0.50255,-1.41719c-0.3317,-0.34771 -0.77717,-0.52156 -1.33644,-0.52156c-0.38241,0 -0.72211,0.08209 -1.0191,0.2466c-0.29698,0.16418 -0.53257,0.4011 -0.70643,0.71077c-0.17051,0.30666 -0.25595,0.67173 -0.25595,1.09519zM78.00985,86.70943c-0.4962,0 -0.93067,-0.06474 -1.30341,-0.19421c-0.37307,-0.12647 -0.68741,-0.30033 -0.94335,-0.52156c-0.25595,-0.22091 -0.45515,-0.46918 -0.59731,-0.74413l0.69208,-0.45483c0.10411,0.18319 0.24327,0.36339 0.41712,0.54025c0.17686,0.17686 0.4061,0.32402 0.68741,0.44081c0.2843,0.1168 0.63336,0.17553 1.04746,0.17553c0.64469,0 1.16426,-0.16117 1.55935,-0.48352c0.3981,-0.32235 0.59731,-0.82322 0.59731,-1.50263v-1.6401h-0.07575c-0.09811,0.22124 -0.23859,0.44247 -0.42213,0.66372c-0.18319,0.21791 -0.42346,0.39977 -0.72044,0.54493c-0.29365,0.14549 -0.65871,0.21823 -1.09485,0.21823c-0.5813,0 -1.09819,-0.14382 -1.55001,-0.43146c-0.44882,-0.28765 -0.80254,-0.69842 -1.06182,-1.23233c-0.25595,-0.53725 -0.38374,-1.17727 -0.38374,-1.91974c0,-0.73613 0.1248,-1.38416 0.3744,-1.94343c0.25295,-0.55927 0.60499,-0.99541 1.05714,-1.30808c0.45182,-0.31301 0.97772,-0.46918 1.57838,-0.46918c0.44548,0 0.81522,0.07875 1.1092,0.23692c0.29365,0.15484 0.52924,0.34737 0.7061,0.5783c0.18019,0.23059 0.32068,0.45483 0.42179,0.67306h0.08543v-1.38884h0.82456v7.47009c0,0.61633 -0.13114,1.12355 -0.39309,1.52165c-0.26228,0.3981 -0.61967,0.69208 -1.07149,0.88162c-0.45182,0.19287 -0.96538,0.28898 -1.54034,0.28898zM77.95278,82.97906c0.46784,0 0.8676,-0.11212 1.1993,-0.33636c0.3317,-0.22758 0.5863,-0.55293 0.76316,-0.97639c0.17686,-0.42346 0.26529,-0.92767 0.26529,-1.5123c0,-0.56862 -0.08676,-1.07249 -0.26061,-1.51197c-0.17385,-0.44247 -0.42646,-0.78986 -0.75816,-1.04279c-0.32869,-0.25595 -0.73179,-0.38374 -1.20898,-0.38374c-0.48652,0 -0.8973,0.13114 -1.23233,0.39342c-0.33503,0.26228 -0.58764,0.616 -0.75849,1.06148c-0.17051,0.44247 -0.25595,0.93702 -0.25595,1.4836c0,0.55627 0.0871,1.0478 0.26095,1.47427c0.17352,0.42346 0.42813,0.75515 0.76316,0.99541c0.3347,0.23692 0.74247,0.35539 1.22265,0.35539z"/></g></g></svg>